<svg id="App_Icon" data-name="App Icon" xmlns="http://www.w3.org/2000/svg" width="200" height="200" viewBox="0 0 200 200">
  <rect id="Rectangle_2554" data-name="Rectangle 2554" width="200" height="200" fill="none"/>
  <g id="Logo" transform="translate(10 68.771)">
    <path id="Path_5621" data-name="Path 5621" d="M180.247,523.454h0a8.681,8.681,0,0,1,13.042,0h0a6.757,6.757,0,1,0,.009-8.911h0a8.681,8.681,0,0,1-13.057,0h0a6.757,6.757,0,1,0,.009,8.911Z" transform="translate(-168.403 -489.034)" fill="#6cca98" opacity="0.75"/>
    <path id="Path_5622" data-name="Path 5622" d="M179.6,451.388v0a6.753,6.753,0,0,0,.01-10.157v0a8.681,8.681,0,0,1,0-13.057v0a6.758,6.758,0,1,0-8.911.009v0a8.681,8.681,0,0,1,0,13.042v0a6.753,6.753,0,0,0-.01,10.157v0a8.681,8.681,0,0,1,0,13.057v0a6.758,6.758,0,1,0,8.911-.009v0a8.68,8.68,0,0,1,0-13.042Z" transform="translate(-168.39 -416.334)" fill="#6cca98" opacity="0.75"/>
    <path id="Path_5623" data-name="Path 5623" d="M275.526,451.388v0a6.753,6.753,0,0,0,.01-10.157v0a8.681,8.681,0,0,1,0-13.057v0a6.758,6.758,0,1,0-8.911.009v0a8.68,8.68,0,0,1,0,13.042v0a6.753,6.753,0,0,0-.01,10.157v0a8.681,8.681,0,0,1,0,13.057v0a6.758,6.758,0,1,0,8.911-.009v0a8.68,8.68,0,0,1,0-13.042Z" transform="translate(-241.103 -416.334)" fill="#6cca98" opacity="0.75"/>
    <path id="Path_5624" data-name="Path 5624" d="M201.011,452.52l.034-.015q.143-.062.285-.131l.043-.021q.137-.068.272-.143l.045-.025q.135-.077.266-.16L202,452q.137-.088.271-.183l.025-.017a6.75,6.75,0,0,0,.34-10.734l-.008-.006c-.072-.059-.146-.115-.22-.171l-.062-.047c-.066-.048-.133-.094-.2-.14l-.091-.062c-.062-.04-.125-.079-.188-.117l-.113-.068c-.059-.034-.118-.067-.177-.1l-.133-.07c-.055-.028-.11-.056-.166-.082s-.1-.048-.153-.071-.1-.045-.153-.067-.118-.048-.177-.071l-.136-.051c-.069-.025-.14-.048-.21-.071l-.109-.035c-.087-.027-.175-.051-.263-.074l-.061-.016a6.787,6.787,0,0,0-2.083-.189l0,0a8.581,8.581,0,0,1-6.707-2.522h0l0,0-6.8-6.8h0a8.591,8.591,0,0,1-2.524-6.71l0,0a6.757,6.757,0,1,0-6.295,6.307h0a8.591,8.591,0,0,1,6.7,2.525l6.878,6.878a8.577,8.577,0,0,1,2.449,6.618l0,0h0q-.011.173-.014.346v.009q0,.17,0,.339v.017c0,.056,0,.112.006.168l0,0a8.581,8.581,0,0,1-2.522,6.708h0l0,0-6.8,6.8h0a8.59,8.59,0,0,1-6.71,2.524l0,0a6.758,6.758,0,1,0,6.307,6.3h0a8.592,8.592,0,0,1,2.525-6.7l6.878-6.878a8.577,8.577,0,0,1,6.618-2.449l0,0h.005a6.78,6.78,0,0,0,2.769-.4l.014-.005Q200.857,452.585,201.011,452.52Z" transform="translate(-168.39 -416.334)" fill="#129789" opacity="0.5"/>
    <path id="Path_5625" data-name="Path 5625" d="M172.5,440.09l-.034.015q-.144.062-.285.131l-.043.021q-.137.068-.272.143l-.045.025q-.135.076-.266.159l-.04.025c-.092.059-.182.12-.272.183l-.025.017a6.749,6.749,0,0,0-.34,10.734l.007.006c.072.059.146.115.22.171l.062.047c.066.048.133.094.2.14l.091.062c.062.04.125.079.188.117l.113.068c.059.034.118.067.177.1l.133.07.166.082.153.071.153.067c.059.025.118.048.178.071l.136.051c.07.025.14.048.21.071l.109.035c.087.027.175.051.263.074l.061.016a6.787,6.787,0,0,0,2.083.189l0,0a8.581,8.581,0,0,1,6.708,2.522h0l0,0,6.8,6.8h0a8.591,8.591,0,0,1,2.524,6.71l0,0a6.757,6.757,0,1,0,6.295-6.307h0a8.593,8.593,0,0,1-6.7-2.525l-6.878-6.878a8.578,8.578,0,0,1-2.449-6.618l0,0h0q.012-.173.014-.347V446.4q0-.17,0-.339v-.017c0-.056,0-.112-.006-.168l0,0a8.582,8.582,0,0,1,2.522-6.708h0l0,0,6.8-6.8h0a8.592,8.592,0,0,1,6.71-2.524h0a6.758,6.758,0,1,0-6.307-6.3h0a8.591,8.591,0,0,1-2.525,6.7l-6.878,6.878a8.577,8.577,0,0,1-6.618,2.449l0,0h-.005a6.775,6.775,0,0,0-2.769.4l-.014.005Q172.653,440.025,172.5,440.09Z" transform="translate(-168.39 -416.334)" fill="#38d430" opacity="0.5"/>
    <g id="Group_3145" data-name="Group 3145" transform="translate(52.676 19.803)">
      <path id="Path_5626" data-name="Path 5626" d="M398.257,509.8h-9.538v7.39a1.332,1.332,0,1,1-2.665,0V499.863a1.332,1.332,0,1,1,2.665,0v7.5h9.538v-7.5a1.332,1.332,0,1,1,2.663,0v17.329a1.332,1.332,0,1,1-2.663,0Z" transform="translate(-386.054 -498.431)" fill="#129789"/>
      <path id="Path_5627" data-name="Path 5627" d="M485.868,498.163A10.126,10.126,0,1,1,475.9,508.3,10.006,10.006,0,0,1,485.868,498.163Zm0,17.672a7.551,7.551,0,1,0-7.3-7.533A7.356,7.356,0,0,0,485.868,515.835Z" transform="translate(-454.157 -498.163)" fill="#129789"/>
      <path id="Path_5628" data-name="Path 5628" d="M588.162,518.395a1.388,1.388,0,0,1-1.346-1.375V499.863a1.332,1.332,0,1,1,2.664,0V515.9h6.931a1.246,1.246,0,1,1,0,2.492Z" transform="translate(-538.23 -498.431)" fill="#129789"/>
      <path id="Path_5629" data-name="Path 5629" d="M658.841,517.192a1.332,1.332,0,1,1-2.664,0V499.863a1.332,1.332,0,1,1,2.664,0Z" transform="translate(-590.805 -498.431)" fill="#129789"/>
      <path id="Path_5630" data-name="Path 5630" d="M702.919,515.92c2.606,0,3.981-1.575,3.981-3.179.029-1.947-1.661-2.807-3.351-3.237l-2.55-.63c-4.181-1.032-4.811-3.466-4.811-5.156,0-3.322,3.036-5.556,6.387-5.556,3.151,0,5.413,1.632,6.129,4.181a2.434,2.434,0,0,1,.086.659c0,.63-.315,1.2-1.318,1.2a1.186,1.186,0,0,1-1.232-.916,3.42,3.42,0,0,0-3.695-2.578c-1.919,0-3.695,1.174-3.695,2.978,0,.86.315,2.148,2.807,2.75l2.578.63c3.38.831,5.327,2.721,5.327,5.413,0,3.179-2.406,5.929-6.645,5.929-3.466,0-5.785-1.862-6.588-4.382a2.185,2.185,0,0,1-.085-.573,1.225,1.225,0,0,1,1.317-1.232,1.279,1.279,0,0,1,1.2.945A4.17,4.17,0,0,0,702.919,515.92Z" transform="translate(-621.134 -498.163)" fill="#129789"/>
      <path id="Path_5631" data-name="Path 5631" d="M771.783,501.6a1.246,1.246,0,1,1,0-2.492h12.545a1.246,1.246,0,1,1,0,2.492H779.4V517.64a1.332,1.332,0,1,1-2.663,0V501.6Z" transform="translate(-677.479 -498.88)" fill="#129789"/>
      <path id="Path_5632" data-name="Path 5632" d="M859.465,516.7a1.307,1.307,0,0,1-.745,1.747,1.324,1.324,0,0,1-1.718-.773l-1.633-4.3h-8.362l-1.662,4.3a1.324,1.324,0,0,1-1.718.773,1.307,1.307,0,0,1-.745-1.747l6.416-16.9a1.858,1.858,0,0,1,1.833-1.289h.144a1.813,1.813,0,0,1,1.776,1.289Zm-5.013-5.728-3.265-9.252-3.265,9.252Z" transform="translate(-732.246 -498.431)" fill="#129789"/>
    </g>
  </g>
</svg>
