<svg id="App_Icon" data-name="App Icon" xmlns="http://www.w3.org/2000/svg" width="400" height="400" viewBox="0 0 400 400">
  <rect id="Rectangle_2554" data-name="Rectangle 2554" width="400" height="400" fill="none"/>
  <g id="Logo" transform="translate(20 140)">
    <path id="Path_5621" data-name="Path 5621" d="M192.087,534.662h0a17.361,17.361,0,0,1,26.083,0h.006a13.515,13.515,0,1,0,.017-17.822h-.007a17.361,17.361,0,0,1-26.114,0h0a13.515,13.515,0,1,0,.017,17.822Z" transform="translate(-168.399 -465.823)" fill="#6cca98" opacity="0.75"/>
    <path id="Path_5622" data-name="Path 5622" d="M190.806,486.442v-.005a13.5,13.5,0,0,0,.02-20.313v-.007a17.362,17.362,0,0,1,0-26.115v0a13.515,13.515,0,1,0-17.822.017v0a17.361,17.361,0,0,1,0,26.083v.005a13.505,13.505,0,0,0-.02,20.313v.007a17.362,17.362,0,0,1,0,26.115v0a13.515,13.515,0,1,0,17.822-.017v0a17.36,17.36,0,0,1,0-26.083Z" transform="translate(-168.39 -416.334)" fill="#6cca98" opacity="0.75"/>
    <path id="Path_5623" data-name="Path 5623" d="M286.734,486.442v-.005a13.5,13.5,0,0,0,.02-20.313v-.007a17.362,17.362,0,0,1,0-26.115v0a13.515,13.515,0,1,0-17.822.017v0a17.361,17.361,0,0,1,0,26.083v.005a13.505,13.505,0,0,0-.02,20.313v.007a17.361,17.361,0,0,1,0,26.115v0a13.515,13.515,0,1,0,17.822-.017v0a17.361,17.361,0,0,1,0-26.083Z" transform="translate(-217.888 -416.334)" fill="#6cca98" opacity="0.75"/>
    <path id="Path_5624" data-name="Path 5624" d="M233.631,488.706l.068-.029q.287-.124.57-.262l.087-.042q.274-.137.543-.286l.09-.05q.269-.153.533-.319l.08-.05q.274-.176.543-.366l.05-.035a13.5,13.5,0,0,0,.68-21.467l-.015-.013c-.145-.118-.292-.23-.44-.341-.041-.031-.082-.063-.123-.093-.132-.1-.266-.188-.4-.279-.061-.041-.122-.083-.183-.123-.124-.081-.249-.158-.375-.234-.075-.046-.151-.091-.226-.135-.118-.068-.236-.134-.354-.2-.089-.048-.177-.095-.266-.14-.11-.057-.221-.111-.333-.164s-.2-.1-.307-.141-.2-.091-.306-.133-.236-.1-.355-.141c-.091-.035-.181-.07-.272-.1-.139-.05-.279-.1-.42-.142-.073-.023-.145-.048-.217-.07-.174-.053-.35-.1-.526-.148l-.121-.032a13.574,13.574,0,0,0-4.167-.379l0,0a17.162,17.162,0,0,1-13.415-5.044l0,0,0,0-13.6-13.6h0a17.182,17.182,0,0,1-5.048-13.419l0,0a13.515,13.515,0,1,0-12.59,12.615l0,0a17.183,17.183,0,0,1,13.4,5.05l13.755,13.755a17.153,17.153,0,0,1,4.9,13.235l0,0v0q-.022.346-.028.693v.018q-.005.34.008.679v.034c0,.112.005.224.013.336l0,0a17.163,17.163,0,0,1-5.044,13.415l0,0,0,0-13.6,13.6h0a17.181,17.181,0,0,1-13.419,5.048l0,0a13.515,13.515,0,1,0,12.615,12.59l0,0a17.185,17.185,0,0,1,5.05-13.4L214.2,494.655a17.154,17.154,0,0,1,13.235-4.9l0,0h.01a13.559,13.559,0,0,0,5.538-.792l.027-.011Q233.324,488.836,233.631,488.706Z" transform="translate(-168.39 -416.334)" fill="#129789" opacity="0.5"/>
    <path id="Path_5625" data-name="Path 5625" d="M176.61,463.845l-.068.029q-.287.124-.57.262l-.086.043q-.274.137-.543.286l-.09.05q-.269.153-.533.319l-.08.05c-.183.117-.364.239-.543.366l-.05.035a13.5,13.5,0,0,0-.68,21.467l.015.013c.145.118.292.23.44.341l.124.094c.132.1.266.188.4.279.061.041.121.083.182.123.124.081.249.158.375.234.076.046.151.091.226.135.117.068.235.134.354.2q.132.072.266.14.166.085.332.165t.307.141c.1.046.2.091.306.133.118.049.236.1.355.141.09.035.18.07.271.1.139.05.279.1.42.142.073.024.145.048.218.07.174.053.349.1.526.148l.121.032a13.573,13.573,0,0,0,4.167.378l0,0a17.163,17.163,0,0,1,13.415,5.044l0,0,0,0,13.6,13.6h0a17.183,17.183,0,0,1,5.049,13.419l0,0a13.515,13.515,0,1,0,12.59-12.615l0,0a17.185,17.185,0,0,1-13.4-5.05l-13.755-13.755a17.155,17.155,0,0,1-4.9-13.235l0,0v0q.023-.346.028-.693v-.017q0-.34-.008-.678v-.034c0-.112-.006-.224-.013-.336l0,0a17.164,17.164,0,0,1,5.044-13.415l0,0,0,0,13.6-13.6h0a17.184,17.184,0,0,1,13.419-5.049l0,0a13.515,13.515,0,1,0-12.614-12.59l0,0a17.181,17.181,0,0,1-5.05,13.4L196.042,457.9a17.154,17.154,0,0,1-13.235,4.9l0,0h-.01a13.55,13.55,0,0,0-5.538.792l-.028.011Q176.916,463.715,176.61,463.845Z" transform="translate(-168.39 -416.334)" fill="#38d430" opacity="0.5"/>
    <g id="Group_3145" data-name="Group 3145" transform="translate(105.352 39.606)">
      <path id="Path_5626" data-name="Path 5626" d="M410.459,521.087H391.383v14.78a2.665,2.665,0,1,1-5.329,0V501.209a2.665,2.665,0,1,1,5.329,0v15.009h19.076V501.209a2.663,2.663,0,1,1,5.327,0v34.657a2.663,2.663,0,1,1-5.327,0Z" transform="translate(-386.054 -498.346)" fill="#129789"/>
      <path id="Path_5627" data-name="Path 5627" d="M495.837,498.163A20.252,20.252,0,1,1,475.9,518.441,20.013,20.013,0,0,1,495.837,498.163Zm0,35.344A14.712,14.712,0,0,0,510.5,518.441c0-8.363-6.359-15.122-14.665-15.122-8.25,0-14.607,6.759-14.607,15.122S487.587,533.507,495.837,533.507Z" transform="translate(-432.413 -498.163)" fill="#129789"/>
      <path id="Path_5628" data-name="Path 5628" d="M589.507,538.272a2.776,2.776,0,0,1-2.691-2.75V501.209a2.664,2.664,0,1,1,5.327,0v32.079H606a2.492,2.492,0,1,1,0,4.984Z" transform="translate(-489.645 -498.346)" fill="#129789"/>
      <path id="Path_5629" data-name="Path 5629" d="M661.505,535.867a2.665,2.665,0,1,1-5.329,0V501.209a2.665,2.665,0,1,1,5.329,0Z" transform="translate(-525.434 -498.346)" fill="#129789"/>
      <path id="Path_5630" data-name="Path 5630" d="M709.649,533.678c5.212,0,7.963-3.15,7.963-6.358.058-3.895-3.323-5.613-6.7-6.473l-5.1-1.259c-8.362-2.063-9.623-6.932-9.623-10.312,0-6.645,6.072-11.113,12.774-11.113,6.3,0,10.825,3.265,12.259,8.363a4.869,4.869,0,0,1,.173,1.318c0,1.26-.63,2.406-2.636,2.406a2.372,2.372,0,0,1-2.463-1.833c-.973-3.666-3.782-5.155-7.39-5.155-3.839,0-7.39,2.348-7.39,5.957,0,1.719.63,4.3,5.614,5.5l5.157,1.26c6.76,1.662,10.654,5.443,10.654,10.827,0,6.358-4.812,11.858-13.29,11.858-6.932,0-11.571-3.724-13.177-8.764a4.37,4.37,0,0,1-.17-1.146,2.45,2.45,0,0,1,2.634-2.463,2.558,2.558,0,0,1,2.405,1.89C702.145,531.1,705.353,533.678,709.649,533.678Z" transform="translate(-546.079 -498.163)" fill="#129789"/>
      <path id="Path_5631" data-name="Path 5631" d="M773.044,504.093a2.492,2.492,0,1,1,0-4.984h25.09a2.492,2.492,0,1,1,0,4.984h-9.853v32.079a2.663,2.663,0,1,1-5.327,0V504.093Z" transform="translate(-584.435 -498.651)" fill="#129789"/>
      <path id="Path_5632" data-name="Path 5632" d="M876.154,534.893a2.614,2.614,0,0,1-1.491,3.495,2.648,2.648,0,0,1-3.436-1.546l-3.266-8.593H851.236l-3.324,8.593a2.648,2.648,0,0,1-3.436,1.546,2.615,2.615,0,0,1-1.49-3.495l12.832-33.8a3.716,3.716,0,0,1,3.666-2.578h.288a3.626,3.626,0,0,1,3.551,2.578Zm-10.026-11.456-6.53-18.5-6.529,18.5Z" transform="translate(-621.716 -498.346)" fill="#129789"/>
    </g>
  </g>
</svg>
