<svg id="App_Icon" data-name="App Icon" xmlns="http://www.w3.org/2000/svg" width="600" height="600" viewBox="0 0 600 600">
  <rect id="Rectangle_2554" data-name="Rectangle 2554" width="600" height="600" fill="none"/>
  <g id="Logo" transform="translate(30 210)">
    <path id="Path_5621" data-name="Path 5621" d="M203.928,545.87h0a26.042,26.042,0,0,1,39.125,0h.009a20.272,20.272,0,1,0,.026-26.733h-.011a26.042,26.042,0,0,1-39.172,0H203.9a20.272,20.272,0,1,0,.026,26.733Z" transform="translate(-168.395 -442.612)" fill="#6cca98" opacity="0.75"/>
    <path id="Path_5622" data-name="Path 5622" d="M202.014,521.5v-.008a20.257,20.257,0,0,0,.03-30.47v-.01a26.043,26.043,0,0,1,0-39.173v-.007a20.273,20.273,0,1,0-26.733.026v.005a26.042,26.042,0,0,1,0,39.125v.008a20.258,20.258,0,0,0-.03,30.47v.01a26.043,26.043,0,0,1,0,39.172v.007a20.273,20.273,0,1,0,26.734-.026v-.005a26.041,26.041,0,0,1,0-39.125Z" transform="translate(-168.39 -416.334)" fill="#6cca98" opacity="0.75"/>
    <path id="Path_5623" data-name="Path 5623" d="M297.942,521.5v-.008a20.257,20.257,0,0,0,.03-30.47v-.01a26.043,26.043,0,0,1,0-39.173v-.007a20.273,20.273,0,1,0-26.733.026v.005a26.041,26.041,0,0,1,0,39.125v.008a20.258,20.258,0,0,0-.031,30.47v.01a26.042,26.042,0,0,1,0,39.172v.007a20.273,20.273,0,1,0,26.734-.026v-.005a26.041,26.041,0,0,1,0-39.125Z" transform="translate(-194.672 -416.334)" fill="#6cca98" opacity="0.75"/>
    <path id="Path_5624" data-name="Path 5624" d="M266.252,524.891l.1-.044q.43-.186.855-.393l.13-.064q.411-.2.815-.429l.136-.075q.4-.23.8-.479l.12-.075q.411-.264.814-.549l.075-.052a20.264,20.264,0,0,0,2.547-30.826,20.5,20.5,0,0,0-1.526-1.375l-.023-.019c-.217-.177-.438-.345-.661-.512-.062-.046-.123-.094-.185-.14-.2-.145-.4-.282-.6-.419-.091-.062-.182-.125-.274-.185-.186-.121-.374-.237-.563-.351-.112-.069-.226-.137-.339-.2-.176-.1-.354-.2-.531-.3-.133-.071-.266-.142-.4-.21-.166-.085-.331-.167-.5-.247-.152-.073-.306-.143-.46-.212s-.306-.136-.46-.2c-.176-.074-.354-.144-.532-.212-.136-.052-.271-.1-.407-.154-.208-.075-.419-.145-.63-.213-.109-.035-.217-.072-.326-.1-.261-.08-.525-.153-.788-.221-.061-.015-.121-.033-.182-.049a20.363,20.363,0,0,0-6.25-.568l-.007-.007a25.743,25.743,0,0,1-20.122-7.567l0,0-.007.007-20.4-20.4h0a25.774,25.774,0,0,1-7.572-20.129l-.005,0A20.272,20.272,0,1,0,190,456.83l0,0a25.774,25.774,0,0,1,20.093,7.575l20.633,20.633a25.73,25.73,0,0,1,7.347,19.853l.006.006v0q-.034.519-.041,1.039v.026q-.008.51.012,1.018l0,.052c.007.168.008.336.019.5l-.007.007a25.744,25.744,0,0,1-7.567,20.123l0,0,.007.007-20.4,20.4v0a25.771,25.771,0,0,1-20.129,7.572l-.005.005a20.273,20.273,0,1,0,18.922,18.885l0,0a25.777,25.777,0,0,1,7.575-20.093L237.1,533.815a25.731,25.731,0,0,1,19.853-7.347l.006-.006h.015a20.339,20.339,0,0,0,8.307-1.189l.041-.016Q265.791,525.087,266.252,524.891Z" transform="translate(-168.39 -416.334)" fill="#129789" opacity="0.5"/>
    <path id="Path_5625" data-name="Path 5625" d="M180.719,487.6l-.1.044q-.431.186-.855.393l-.129.064q-.412.2-.815.429l-.136.076q-.4.229-.8.478l-.12.075c-.275.176-.546.359-.815.549l-.075.052a20.246,20.246,0,0,0-1.02,32.2l.022.019c.217.177.439.345.661.512.063.047.123.094.186.14.2.144.4.282.6.419.091.062.182.125.274.185.186.121.374.237.563.352.113.069.226.137.34.2.176.1.353.2.532.3q.2.108.4.211.248.127.5.247.23.109.46.212c.153.068.306.136.46.2.177.074.354.144.533.212.135.052.27.1.407.153.209.076.419.145.629.213.109.036.217.073.327.105.261.08.524.152.788.222.06.015.121.033.182.048a20.361,20.361,0,0,0,6.25.568l.007.007a25.744,25.744,0,0,1,20.123,7.567l0,0,.007-.007,20.4,20.4h0a25.774,25.774,0,0,1,7.573,20.129l.005.005a20.272,20.272,0,1,0,18.885-18.922l0,0a25.778,25.778,0,0,1-20.093-7.575l-20.633-20.633a25.733,25.733,0,0,1-7.347-19.853l-.006-.006v0q.035-.519.042-1.04v-.026q.007-.51-.012-1.018l0-.052c-.007-.168-.009-.336-.019-.5l.007-.007a25.747,25.747,0,0,1,7.566-20.123l0,0-.007-.007,20.4-20.4h0A25.776,25.776,0,0,1,257,456.837l.005,0a20.273,20.273,0,1,0-18.921-18.885l0,0a25.772,25.772,0,0,1-7.575,20.093l-20.633,20.633a25.732,25.732,0,0,1-19.853,7.347l-.006.006h-.015a20.323,20.323,0,0,0-8.306,1.188l-.042.016Q181.179,487.405,180.719,487.6Z" transform="translate(-168.39 -416.334)" fill="#38d430" opacity="0.5"/>
    <g id="Group_3145" data-name="Group 3145" transform="translate(158.028 59.41)">
      <path id="Path_5626" data-name="Path 5626" d="M422.662,532.371H394.048v22.17a4,4,0,1,1-7.994,0V502.555a4,4,0,1,1,7.994,0v22.513h28.614V502.555a4,4,0,1,1,7.99,0v51.986a4,4,0,1,1-7.99,0Z" transform="translate(-386.054 -498.26)" fill="#129789"/>
      <path id="Path_5627" data-name="Path 5627" d="M505.8,498.163a30.376,30.376,0,0,1,0,60.749c-16.843,0-29.9-13.576-29.9-30.332C475.9,511.739,488.962,498.163,505.8,498.163Zm0,53.015c12.458,0,22-10.053,22-22.6s-9.539-22.683-22-22.683c-12.375,0-21.911,10.139-21.911,22.683S493.43,551.178,505.8,551.178Z" transform="translate(-410.67 -498.163)" fill="#129789"/>
      <path id="Path_5628" data-name="Path 5628" d="M590.853,558.15a4.164,4.164,0,0,1-4.037-4.125v-51.47a4,4,0,1,1,7.991,0v48.118H615.6a3.739,3.739,0,1,1,0,7.477Z" transform="translate(-441.059 -498.26)" fill="#129789"/>
      <path id="Path_5629" data-name="Path 5629" d="M664.17,554.541a4,4,0,1,1-7.994,0V502.555a4,4,0,1,1,7.994,0Z" transform="translate(-460.062 -498.26)" fill="#129789"/>
      <path id="Path_5630" data-name="Path 5630" d="M716.38,551.436c7.818,0,11.944-4.724,11.944-9.537.087-5.842-4.984-8.42-10.053-9.71l-7.649-1.889c-12.544-3.1-14.434-10.4-14.434-15.468,0-9.967,9.108-16.669,19.161-16.669,9.453,0,16.238,4.9,18.388,12.544a7.3,7.3,0,0,1,.259,1.977c0,1.89-.945,3.608-3.954,3.608a3.559,3.559,0,0,1-3.695-2.75c-1.459-5.5-5.672-7.733-11.085-7.733-5.758,0-11.085,3.522-11.085,8.935,0,2.579.945,6.444,8.421,8.249l7.735,1.891c10.14,2.492,15.98,8.164,15.98,16.24,0,9.538-7.217,17.787-19.934,17.787-10.4,0-17.356-5.586-19.765-13.146a6.557,6.557,0,0,1-.255-1.719,3.674,3.674,0,0,1,3.95-3.695,3.838,3.838,0,0,1,3.608,2.834C705.123,547.57,709.936,551.436,716.38,551.436Z" transform="translate(-471.025 -498.163)" fill="#129789"/>
      <path id="Path_5631" data-name="Path 5631" d="M774.3,506.585a3.738,3.738,0,1,1,0-7.476h37.635a3.738,3.738,0,1,1,0,7.476H797.16V554.7a4,4,0,1,1-7.99,0V506.585Z" transform="translate(-491.391 -498.422)" fill="#129789"/>
      <path id="Path_5632" data-name="Path 5632" d="M892.843,553.08a3.922,3.922,0,0,1-2.236,5.242,3.973,3.973,0,0,1-5.154-2.32l-4.9-12.889H855.466L850.481,556a3.972,3.972,0,0,1-5.154,2.32,3.922,3.922,0,0,1-2.236-5.242l19.248-50.7c1.031-2.406,2.663-3.868,5.5-3.868h.431a5.44,5.44,0,0,1,5.327,3.868ZM877.8,535.9l-9.795-27.755L858.216,535.9Z" transform="translate(-511.187 -498.26)" fill="#129789"/>
    </g>
  </g>
</svg>
