<svg width="186" height="19" viewBox="0 0 186 19" fill="none" xmlns="http://www.w3.org/2000/svg">
<path d="M10.2461 3.69189C10.3822 3.69189 10.6141 3.71354 10.9419 3.75684C11.2697 3.80013 11.6284 3.92383 12.0181 4.12793C12.4139 4.32585 12.7726 4.65674 13.0942 5.12061C13.0757 5.13916 12.986 5.20719 12.8252 5.32471C12.6644 5.43604 12.485 5.60303 12.2871 5.82568C12.0892 6.04215 11.916 6.32048 11.7676 6.66064C11.6191 6.99463 11.5449 7.39355 11.5449 7.85742C11.5449 8.38932 11.6377 8.84082 11.8232 9.21191C12.015 9.58301 12.2345 9.88298 12.4819 10.1118C12.7355 10.3345 12.9582 10.4984 13.1499 10.6035C13.3478 10.7087 13.453 10.7643 13.4653 10.7705C13.4591 10.7952 13.3787 11.0148 13.2241 11.4292C13.0757 11.8436 12.8283 12.3044 12.4819 12.8115C12.1789 13.2507 11.8511 13.6558 11.4985 14.0269C11.1522 14.3979 10.7347 14.5835 10.2461 14.5835C9.91829 14.5835 9.64925 14.5371 9.43896 14.4443C9.22868 14.3454 9.01221 14.2495 8.78955 14.1567C8.56689 14.0578 8.26693 14.0083 7.88965 14.0083C7.52474 14.0083 7.21859 14.0578 6.97119 14.1567C6.72998 14.2557 6.49805 14.3547 6.27539 14.4536C6.05892 14.5526 5.80225 14.6021 5.50537 14.6021C5.05387 14.6021 4.65804 14.4227 4.31787 14.064C3.9777 13.7052 3.62826 13.2754 3.26953 12.7744C2.85514 12.1807 2.49951 11.457 2.20264 10.6035C1.91195 9.74382 1.7666 8.87793 1.7666 8.00586C1.7666 7.07194 1.94287 6.28955 2.29541 5.65869C2.64795 5.02165 3.09945 4.54232 3.6499 4.2207C4.20654 3.8929 4.78174 3.729 5.37549 3.729C5.69092 3.729 5.98779 3.78158 6.26611 3.88672C6.54443 3.98568 6.8042 4.08773 7.04541 4.19287C7.29281 4.29801 7.51546 4.35059 7.71338 4.35059C7.90511 4.35059 8.12777 4.29492 8.38135 4.18359C8.63493 4.07227 8.91943 3.96403 9.23486 3.85889C9.55029 3.74756 9.88737 3.69189 10.2461 3.69189ZM9.73584 2.51367C9.49463 2.80436 9.19157 3.04867 8.82666 3.24658C8.46175 3.43831 8.1154 3.53418 7.7876 3.53418C7.71956 3.53418 7.65462 3.52799 7.59277 3.51562C7.58659 3.49707 7.5804 3.46305 7.57422 3.41357C7.56803 3.3641 7.56494 3.31152 7.56494 3.25586C7.56494 2.88477 7.64535 2.52604 7.80615 2.17969C7.96696 1.82715 8.14941 1.53646 8.35352 1.30762C8.61328 0.998372 8.94108 0.741699 9.33691 0.537598C9.73275 0.333496 10.11 0.22526 10.4688 0.212891C10.4873 0.293294 10.4966 0.38916 10.4966 0.500488C10.4966 0.871582 10.4255 1.2334 10.2832 1.58594C10.141 1.93229 9.9585 2.24154 9.73584 2.51367Z" fill="white"/>
<path d="M25.7622 14.8247C24.7231 14.8247 23.8201 14.667 23.0532 14.3516C22.2925 14.0299 21.6925 13.5815 21.2534 13.0063C20.8143 12.4312 20.5638 11.757 20.502 10.9839L20.4927 10.854H22.8213L22.8306 10.9468C22.8739 11.3241 23.0254 11.6519 23.2852 11.9302C23.5449 12.2085 23.8944 12.4281 24.3335 12.5889C24.7726 12.7435 25.2736 12.8208 25.8364 12.8208C26.3807 12.8208 26.8569 12.7373 27.2651 12.5703C27.6795 12.4033 28.0011 12.1745 28.23 11.8838C28.465 11.5869 28.5825 11.2498 28.5825 10.8726V10.8633C28.5825 10.3747 28.3939 9.97884 28.0166 9.67578C27.6455 9.36654 27.027 9.12223 26.1611 8.94287L24.7231 8.63672C23.3563 8.35221 22.3605 7.89144 21.7358 7.25439C21.1112 6.61735 20.7988 5.79785 20.7988 4.7959V4.78662C20.7988 3.98877 21.0091 3.28988 21.4297 2.68994C21.8564 2.09001 22.4409 1.62305 23.1831 1.28906C23.9315 0.955078 24.7881 0.788086 25.7529 0.788086C26.7425 0.788086 27.5991 0.955078 28.3228 1.28906C29.0464 1.61686 29.6154 2.06527 30.0298 2.63428C30.4442 3.20329 30.6761 3.84652 30.7256 4.56396L30.7349 4.69385H28.4526L28.4341 4.58252C28.3784 4.22998 28.2331 3.92074 27.998 3.65479C27.7692 3.38265 27.4631 3.17236 27.0796 3.02393C26.6961 2.8693 26.2477 2.79199 25.7344 2.79199C25.2396 2.79199 24.8005 2.8693 24.417 3.02393C24.0397 3.17236 23.7397 3.38265 23.5171 3.65479C23.3006 3.92692 23.1924 4.25472 23.1924 4.63818V4.64746C23.1924 5.11751 23.3748 5.50716 23.7397 5.81641C24.1108 6.11947 24.7139 6.35758 25.5488 6.53076L26.9868 6.83691C27.9269 7.03483 28.6908 7.29769 29.2783 7.62549C29.8659 7.95329 30.2957 8.36149 30.5679 8.8501C30.8462 9.33252 30.9854 9.9139 30.9854 10.5942V10.6035C30.9854 11.4694 30.772 12.2178 30.3452 12.8486C29.9246 13.4795 29.3216 13.9681 28.5361 14.3145C27.7568 14.6546 26.8322 14.8247 25.7622 14.8247ZM33.3789 14.5V4.3877H35.689V14.5H33.3789ZM34.5386 2.71777C34.1675 2.71777 33.8459 2.5848 33.5737 2.31885C33.3078 2.0529 33.1748 1.73438 33.1748 1.36328C33.1748 0.986003 33.3078 0.66748 33.5737 0.407715C33.8459 0.141764 34.1675 0.00878906 34.5386 0.00878906C34.922 0.00878906 35.2467 0.141764 35.5127 0.407715C35.7786 0.66748 35.9116 0.986003 35.9116 1.36328C35.9116 1.73438 35.7786 2.0529 35.5127 2.31885C35.2467 2.5848 34.922 2.71777 34.5386 2.71777ZM42.8232 18.0532C41.9326 18.0532 41.1657 17.9326 40.5225 17.6914C39.8792 17.4564 39.369 17.1255 38.9917 16.6987C38.6206 16.272 38.3949 15.7772 38.3145 15.2144V15.1772H40.6245L40.6338 15.2144C40.7204 15.536 40.9523 15.7988 41.3296 16.0029C41.7069 16.207 42.2171 16.3091 42.8604 16.3091C43.6458 16.3091 44.255 16.1297 44.688 15.771C45.1209 15.4185 45.3374 14.9206 45.3374 14.2773V12.3755H45.189C44.9972 12.7404 44.7498 13.0496 44.4468 13.3032C44.1437 13.5506 43.7943 13.7393 43.3984 13.8691C43.0026 13.999 42.5728 14.064 42.1089 14.064C41.2554 14.064 40.5163 13.8599 39.8916 13.4517C39.2669 13.0373 38.7876 12.4652 38.4536 11.7354C38.1196 11.0055 37.9526 10.1613 37.9526 9.20264V9.18408C37.9526 8.20068 38.1196 7.33789 38.4536 6.5957C38.7938 5.84733 39.2762 5.26595 39.9009 4.85156C40.5317 4.43099 41.2801 4.2207 42.146 4.2207C42.616 4.2207 43.0459 4.29492 43.4355 4.44336C43.8314 4.5918 44.1777 4.80208 44.4746 5.07422C44.7777 5.34635 45.0251 5.67415 45.2168 6.05762H45.3281V4.3877H47.6382V14.2495C47.6382 15.0226 47.4403 15.6937 47.0444 16.2627C46.6548 16.8317 46.0981 17.2708 45.3745 17.5801C44.6571 17.8955 43.8066 18.0532 42.8232 18.0532ZM42.814 12.2271C43.3459 12.2271 43.8005 12.1003 44.1777 11.8467C44.5612 11.5931 44.855 11.2406 45.0591 10.7891C45.2694 10.3314 45.3745 9.80257 45.3745 9.20264V9.18408C45.3745 8.58415 45.2694 8.05534 45.0591 7.59766C44.855 7.13379 44.5612 6.77507 44.1777 6.52148C43.8005 6.2679 43.3459 6.14111 42.814 6.14111C42.2882 6.14111 41.8368 6.2679 41.4595 6.52148C41.0884 6.77507 40.8039 7.1307 40.606 7.58838C40.408 8.04606 40.3091 8.57487 40.3091 9.1748V9.19336C40.3091 9.79948 40.408 10.3314 40.606 10.7891C40.8039 11.2406 41.0884 11.5931 41.4595 11.8467C41.8368 12.1003 42.2882 12.2271 42.814 12.2271ZM50.3657 14.5V4.3877H52.6758V5.93701H52.8242C53.0716 5.39274 53.4396 4.96598 53.9282 4.65674C54.4168 4.34749 55.026 4.19287 55.7559 4.19287C56.8877 4.19287 57.7505 4.52067 58.3442 5.17627C58.9442 5.83187 59.2441 6.7596 59.2441 7.95947V14.5H56.9341V8.48828C56.9341 7.70898 56.7671 7.12142 56.4331 6.72559C56.1053 6.32975 55.5951 6.13184 54.9023 6.13184C54.4447 6.13184 54.0488 6.23389 53.7148 6.43799C53.387 6.64209 53.1304 6.92969 52.9448 7.30078C52.7655 7.66569 52.6758 8.10173 52.6758 8.60889V14.5H50.3657ZM66.8701 14.5V4.3877H69.1802V14.5H66.8701ZM68.0298 2.71777C67.6587 2.71777 67.3371 2.5848 67.0649 2.31885C66.799 2.0529 66.666 1.73438 66.666 1.36328C66.666 0.986003 66.799 0.66748 67.0649 0.407715C67.3371 0.141764 67.6587 0.00878906 68.0298 0.00878906C68.4132 0.00878906 68.738 0.141764 69.0039 0.407715C69.2699 0.66748 69.4028 0.986003 69.4028 1.36328C69.4028 1.73438 69.2699 2.0529 69.0039 2.31885C68.738 2.5848 68.4132 2.71777 68.0298 2.71777ZM71.9448 14.5V4.3877H74.2549V5.93701H74.4033C74.6507 5.39274 75.0187 4.96598 75.5073 4.65674C75.9959 4.34749 76.6051 4.19287 77.335 4.19287C78.4668 4.19287 79.3296 4.52067 79.9233 5.17627C80.5233 5.83187 80.8232 6.7596 80.8232 7.95947V14.5H78.5132V8.48828C78.5132 7.70898 78.3462 7.12142 78.0122 6.72559C77.6844 6.32975 77.1742 6.13184 76.4814 6.13184C76.0238 6.13184 75.6279 6.23389 75.2939 6.43799C74.9661 6.64209 74.7095 6.92969 74.5239 7.30078C74.3446 7.66569 74.2549 8.10173 74.2549 8.60889V14.5H71.9448ZM90.3604 14.5L87.6143 4.3877H89.9336L91.6128 12.0044H91.7705L93.7188 4.3877H95.9175L97.875 12.0044H98.0234L99.7026 4.3877H101.994L99.248 14.5H96.8359L94.8599 7.16162H94.7114L92.7446 14.5H90.3604ZM103.942 14.5V4.3877H106.252V14.5H103.942ZM105.102 2.71777C104.731 2.71777 104.409 2.5848 104.137 2.31885C103.871 2.0529 103.738 1.73438 103.738 1.36328C103.738 0.986003 103.871 0.66748 104.137 0.407715C104.409 0.141764 104.731 0.00878906 105.102 0.00878906C105.486 0.00878906 105.81 0.141764 106.076 0.407715C106.342 0.66748 106.475 0.986003 106.475 1.36328C106.475 1.73438 106.342 2.0529 106.076 2.31885C105.81 2.5848 105.486 2.71777 105.102 2.71777ZM112.979 14.5649C111.828 14.5649 110.996 14.3516 110.483 13.9248C109.97 13.4919 109.713 12.7868 109.713 11.8096V6.17822H108.164V4.3877H109.713V1.90137H112.06V4.3877H114.175V6.17822H112.06V11.29C112.06 11.7972 112.165 12.1652 112.375 12.394C112.592 12.6167 112.938 12.728 113.415 12.728C113.575 12.728 113.708 12.7249 113.813 12.7188C113.925 12.7064 114.045 12.694 114.175 12.6816V14.4629C114.014 14.4876 113.832 14.5093 113.628 14.5278C113.424 14.5526 113.207 14.5649 112.979 14.5649ZM116.513 14.5V0.500488H118.823V5.94629H118.972C119.213 5.40202 119.578 4.97526 120.066 4.66602C120.561 4.35059 121.174 4.19287 121.903 4.19287C122.658 4.19287 123.292 4.34131 123.805 4.63818C124.325 4.93506 124.721 5.36491 124.993 5.92773C125.265 6.49056 125.401 7.17399 125.401 7.97803V14.5H123.091V8.50684C123.091 7.72135 122.924 7.1307 122.59 6.73486C122.256 6.33285 121.743 6.13184 121.05 6.13184C120.592 6.13184 120.196 6.23389 119.862 6.43799C119.528 6.64209 119.272 6.92969 119.092 7.30078C118.913 7.66569 118.823 8.10173 118.823 8.60889V14.5H116.513ZM132.266 14.5L137.025 1.11279H139.001V3.58984H138.296L134.771 14.5H132.266ZM134.66 11.0396L135.291 9.19336H141.423L142.054 11.0396H134.66ZM141.961 14.5L138.445 3.58984V1.11279H139.716L144.475 14.5H141.961ZM146.46 17.8584V4.3877H148.771V5.99268H148.919C149.104 5.6154 149.346 5.29688 149.643 5.03711C149.946 4.77734 150.295 4.57633 150.691 4.43408C151.087 4.29183 151.523 4.2207 151.999 4.2207C152.846 4.2207 153.579 4.43408 154.198 4.86084C154.822 5.2876 155.305 5.89062 155.645 6.66992C155.985 7.44303 156.155 8.36458 156.155 9.43457V9.45312C156.155 10.5293 155.985 11.457 155.645 12.2363C155.311 13.0156 154.832 13.6156 154.207 14.0361C153.589 14.4567 152.853 14.667 151.999 14.667C151.535 14.667 151.102 14.5959 150.7 14.4536C150.298 14.3052 149.946 14.098 149.643 13.832C149.34 13.5661 149.098 13.2507 148.919 12.8857H148.771V17.8584H146.46ZM151.275 12.728C151.801 12.728 152.253 12.5981 152.63 12.3384C153.007 12.0724 153.295 11.6951 153.493 11.2065C153.697 10.7118 153.799 10.1273 153.799 9.45312V9.43457C153.799 8.75423 153.697 8.16976 153.493 7.68115C153.295 7.19255 153.007 6.81836 152.63 6.55859C152.253 6.29883 151.801 6.16895 151.275 6.16895C150.762 6.16895 150.314 6.30192 149.93 6.56787C149.547 6.82764 149.253 7.20182 149.049 7.69043C148.845 8.17285 148.743 8.75423 148.743 9.43457V9.45312C148.743 10.1273 148.845 10.7087 149.049 11.1973C149.259 11.6859 149.553 12.0632 149.93 12.3291C150.314 12.5951 150.762 12.728 151.275 12.728ZM158.41 17.8584V4.3877H160.72V5.99268H160.868C161.054 5.6154 161.295 5.29688 161.592 5.03711C161.895 4.77734 162.244 4.57633 162.64 4.43408C163.036 4.29183 163.472 4.2207 163.948 4.2207C164.796 4.2207 165.528 4.43408 166.147 4.86084C166.772 5.2876 167.254 5.89062 167.594 6.66992C167.934 7.44303 168.104 8.36458 168.104 9.43457V9.45312C168.104 10.5293 167.934 11.457 167.594 12.2363C167.26 13.0156 166.781 13.6156 166.156 14.0361C165.538 14.4567 164.802 14.667 163.948 14.667C163.484 14.667 163.051 14.5959 162.649 14.4536C162.247 14.3052 161.895 14.098 161.592 13.832C161.289 13.5661 161.048 13.2507 160.868 12.8857H160.72V17.8584H158.41ZM163.225 12.728C163.75 12.728 164.202 12.5981 164.579 12.3384C164.956 12.0724 165.244 11.6951 165.442 11.2065C165.646 10.7118 165.748 10.1273 165.748 9.45312V9.43457C165.748 8.75423 165.646 8.16976 165.442 7.68115C165.244 7.19255 164.956 6.81836 164.579 6.55859C164.202 6.29883 163.75 6.16895 163.225 6.16895C162.711 6.16895 162.263 6.30192 161.879 6.56787C161.496 6.82764 161.202 7.20182 160.998 7.69043C160.794 8.17285 160.692 8.75423 160.692 9.43457V9.45312C160.692 10.1273 160.794 10.7087 160.998 11.1973C161.208 11.6859 161.502 12.0632 161.879 12.3291C162.263 12.5951 162.711 12.728 163.225 12.728ZM170.452 14.5V0.500488H172.762V14.5H170.452ZM179.933 14.7041C178.931 14.7041 178.068 14.4907 177.345 14.064C176.627 13.6372 176.074 13.0342 175.684 12.2549C175.294 11.4694 175.1 10.5417 175.1 9.47168V9.4624C175.1 8.3986 175.291 7.47396 175.675 6.68848C176.064 5.89681 176.615 5.28451 177.326 4.85156C178.037 4.41243 178.869 4.19287 179.822 4.19287C180.787 4.19287 181.615 4.40316 182.308 4.82373C183.007 5.2443 183.542 5.83496 183.913 6.5957C184.29 7.35645 184.479 8.24398 184.479 9.2583V10.019H176.259V8.479H183.356L182.252 9.92627V9.00781C182.252 8.33366 182.15 7.77702 181.946 7.33789C181.742 6.89258 181.461 6.55859 181.102 6.33594C180.743 6.11328 180.326 6.00195 179.85 6.00195C179.38 6.00195 178.959 6.11637 178.588 6.34521C178.223 6.57406 177.932 6.91423 177.716 7.36572C177.506 7.81104 177.4 8.3584 177.4 9.00781V9.92627C177.4 10.5509 177.506 11.0859 177.716 11.5312C177.926 11.9704 178.223 12.3075 178.606 12.5425C178.996 12.7775 179.454 12.895 179.979 12.895C180.394 12.895 180.75 12.8363 181.046 12.7188C181.343 12.5951 181.584 12.4466 181.77 12.2734C181.962 12.1003 182.092 11.9364 182.16 11.7817L182.197 11.7075H184.377L184.358 11.8003C184.278 12.1281 184.13 12.4621 183.913 12.8022C183.703 13.1424 183.415 13.4578 183.05 13.7485C182.692 14.033 182.252 14.265 181.733 14.4443C181.213 14.6175 180.613 14.7041 179.933 14.7041Z" fill="white"/>
</svg>
