<svg width="21" height="20" viewBox="0 0 21 20" fill="none" xmlns="http://www.w3.org/2000/svg">
<path d="M13.625 4.87427C13.6416 4.87427 13.6578 4.87782 13.6729 4.88403L13.7139 4.91138L18.7139 9.91138H18.7148C18.7264 9.92296 18.7349 9.93727 18.7412 9.95239C18.7475 9.96756 18.751 9.98384 18.751 10.0002C18.751 10.0166 18.7475 10.033 18.7412 10.0481L18.7148 10.0881L13.7139 15.0891C13.6903 15.1126 13.6583 15.1262 13.625 15.1262C13.6084 15.1262 13.5922 15.1226 13.5771 15.1165L13.5361 15.0891C13.5126 15.0656 13.4991 15.0335 13.499 15.0002L13.5088 14.9524L13.5361 14.9114L17.4697 10.9788L18.3232 10.1252H2.375C2.35841 10.1252 2.34218 10.1217 2.32715 10.1155L2.28613 10.0881C2.26298 10.0648 2.25005 10.0331 2.25 10.0002L2.25977 9.95239L2.28613 9.91138C2.30958 9.88793 2.34185 9.87524 2.375 9.87524H18.3232L17.4697 9.02173L13.5361 5.08911C13.5126 5.06557 13.4991 5.03354 13.499 5.00024L13.5088 4.95239C13.515 4.93716 13.5243 4.92326 13.5361 4.91138C13.5597 4.88779 13.5916 4.87427 13.625 4.87427Z" fill="#525252" stroke="#0766F1"/>
</svg>
