<svg width="21" height="20" viewBox="0 0 21 20" fill="none" xmlns="http://www.w3.org/2000/svg">
<g id="Mobile-Icon">
<path id="Vector" d="M7.37512 4.87415L7.42297 4.88391L7.46399 4.91125L7.49133 4.95227C7.49756 4.96743 7.5011 4.98373 7.5011 5.00012L7.49133 5.04797L7.46399 5.08899L3.5304 9.02161L2.67688 9.87512H18.6251C18.6417 9.87512 18.6579 9.87865 18.673 9.88489L18.714 9.91125C18.7374 9.93469 18.7501 9.96698 18.7501 10.0001C18.7501 10.0167 18.7466 10.0329 18.7404 10.048L18.714 10.088C18.6905 10.1115 18.6583 10.1251 18.6251 10.1251H2.67688L3.5304 10.9786L7.46399 14.9113C7.47566 14.9229 7.48501 14.937 7.49133 14.9523C7.49756 14.9674 7.5011 14.9837 7.5011 15.0001C7.50107 15.0166 7.49762 15.0328 7.49133 15.048L7.46399 15.089L7.42297 15.1163C7.40784 15.1225 7.39149 15.1261 7.37512 15.1261L7.32727 15.1163L7.28625 15.089L2.28625 10.089V10.088L2.25891 10.048C2.25263 10.0328 2.24917 10.0165 2.24915 10.0001L2.25891 9.95227L2.28625 9.91125L7.28625 4.91125L7.32727 4.88391L7.37512 4.87415Z" fill="#0766F1" stroke="#0766F1"/>
</g>
</svg>
