<svg width="40" height="40" viewBox="0 0 40 40" fill="none" xmlns="http://www.w3.org/2000/svg">
<rect width="40" height="40" rx="20" fill="url(#paint0_linear_2728_1069)"/>
<g clip-path="url(#clip0_2728_1069)">
<path d="M31.9459 9.0292C32.0005 8.8929 32.0138 8.74359 31.9843 8.59978C31.9548 8.45596 31.8838 8.32397 31.7799 8.22016C31.6761 8.11635 31.5441 8.04529 31.4003 8.01579C31.2565 7.98629 31.1072 7.99964 30.9709 8.0542L9.1504 16.7827H9.1489L8.4709 17.0527C8.34249 17.1039 8.23073 17.1896 8.14798 17.3004C8.06522 17.4111 8.01469 17.5426 8.00196 17.6803C7.98924 17.8179 8.01481 17.9565 8.07586 18.0805C8.13691 18.2045 8.23106 18.3093 8.3479 18.3832L8.9629 18.7732L8.9644 18.7762L16.4569 23.5432L21.2239 31.0357L21.2269 31.0387L21.6169 31.6537C21.691 31.7701 21.7959 31.8638 21.9198 31.9244C22.0438 31.9851 22.182 32.0104 22.3194 31.9975C22.4568 31.9847 22.588 31.9341 22.6986 31.8515C22.8091 31.7689 22.8947 31.6573 22.9459 31.5292L31.9459 9.0292ZM29.1964 11.8642L17.9554 23.1052L17.6329 22.5982C17.5738 22.5052 17.4949 22.4263 17.4019 22.3672L16.8949 22.0447L28.1359 10.8037L29.9029 10.0972L29.1979 11.8642H29.1964Z" fill="white"/>
</g>
<defs>
<linearGradient id="paint0_linear_2728_1069" x1="0" y1="20" x2="40" y2="20" gradientUnits="userSpaceOnUse">
<stop stop-color="#0766F1"/>
<stop offset="1" stop-color="#DC5DDC"/>
</linearGradient>
<clipPath id="clip0_2728_1069">
<rect width="24" height="24" fill="white" transform="translate(8 8)"/>
</clipPath>
</defs>
</svg>
