<svg width="64" height="64" viewBox="0 0 64 64" fill="none" xmlns="http://www.w3.org/2000/svg">
<path d="M64 32C64 49.6731 49.6731 64 32 64C14.3269 64 0 49.6731 0 32C0 14.3269 14.3269 0 32 0C49.6731 0 64 14.3269 64 32ZM48.1213 19.8787C46.9497 18.7071 45.0502 18.7071 43.8787 19.8787C43.8504 19.907 43.8238 19.9369 43.7991 19.9684L29.9096 37.667L21.5355 29.2929C20.3639 28.1213 18.4644 28.1213 17.2929 29.2929C16.1213 30.4645 16.1213 32.364 17.2929 33.5355L27.8787 44.1213C29.0502 45.2929 30.9497 45.2929 32.1213 44.1213C32.1474 44.0952 32.172 44.0677 32.1951 44.0389L48.1639 24.0779C49.2927 22.9033 49.2785 21.0359 48.1213 19.8787Z" fill="#009262"/>
</svg>
