<svg width="90" height="90" viewBox="0 0 90 90" fill="none" xmlns="http://www.w3.org/2000/svg">
<g id="check(1)">
<path id="Path 5887" d="M90.0001 45.0001C90.0013 43.4116 89.6153 41.8467 88.8757 40.441C88.136 39.0352 87.0649 37.8308 85.7551 36.9321C84.9237 36.359 84.3235 35.5085 84.0622 34.5331C83.8009 33.5577 83.8955 32.5211 84.3291 31.6091C85.013 30.1756 85.3379 28.5972 85.2756 27.0101C85.2133 25.423 84.7658 23.8749 83.9716 22.4994C83.1774 21.1239 82.0605 19.9623 80.7172 19.1149C79.3739 18.2674 77.8445 17.7595 76.2611 17.6351C75.2534 17.5552 74.3071 17.1187 73.5923 16.4039C72.8775 15.6891 72.441 14.7428 72.3611 13.7351C72.2358 12.1526 71.7275 10.6242 70.88 9.28191C70.0325 7.93957 68.8713 6.82348 67.4964 6.02986C66.1216 5.23623 64.5743 4.78889 62.9881 4.72638C61.4018 4.66388 59.8242 4.9881 58.3911 5.67109C57.4791 6.1047 56.4425 6.19933 55.4671 5.93802C54.4917 5.67671 53.6412 5.07654 53.0681 4.24509C52.1685 2.93621 50.9639 1.86586 49.5583 1.12638C48.1527 0.386897 46.5884 0.000488281 45.0001 0.000488281C43.4119 0.000488281 41.8475 0.386897 40.4419 1.12638C39.0363 1.86586 37.8318 2.93621 36.9321 4.24509C36.3591 5.0763 35.5088 5.67631 34.5336 5.93761C33.5584 6.19891 32.522 6.10443 31.6101 5.67109C30.1766 4.98717 28.5982 4.66234 27.0111 4.72463C25.4241 4.78692 23.876 5.23445 22.5005 6.02861C21.125 6.82276 19.9634 7.93969 19.1159 9.28301C18.2684 10.6263 17.7606 12.1557 17.6361 13.7391C17.5562 14.7468 17.1197 15.6931 16.4049 16.4079C15.6901 17.1227 14.7439 17.5592 13.7361 17.6391C12.1535 17.7642 10.6251 18.2724 9.28261 19.1199C7.94014 19.9673 6.82392 21.1285 6.03019 22.5034C5.23645 23.8783 4.78902 25.4256 4.72647 27.0119C4.66391 28.5982 4.98811 30.176 5.67112 31.6091C6.10473 32.5211 6.19937 33.5577 5.93806 34.5331C5.67675 35.5085 5.07658 36.359 4.24512 36.9321C2.93604 37.8316 1.8655 39.0361 1.12587 40.4417C0.386245 41.8473 -0.000244141 43.4118 -0.000244141 45.0001C-0.000244141 46.5884 0.386245 48.1529 1.12587 49.5585C1.8655 50.9641 2.93604 52.1686 4.24512 53.0681C5.07658 53.6412 5.67675 54.4916 5.93806 55.4671C6.19937 56.4425 6.10473 57.4791 5.67112 58.3911C4.98721 59.8246 4.66238 61.403 4.72467 62.9901C4.78695 64.5771 5.23448 66.1252 6.02864 67.5007C6.8228 68.8762 7.93972 70.0378 9.28304 70.8853C10.6264 71.7328 12.1557 72.2406 13.7391 72.3651C14.7469 72.445 15.6931 72.8815 16.4079 73.5963C17.1227 74.3111 17.5592 75.2574 17.6391 76.2651C17.7644 77.8477 18.2727 79.3762 19.1202 80.7187C19.9678 82.0611 21.1291 83.1773 22.5041 83.9709C23.8791 84.7646 25.4265 85.2119 27.0129 85.2743C28.5993 85.3367 30.177 85.0123 31.6101 84.3291C32.5221 83.8955 33.5587 83.8008 34.5341 84.0621C35.5096 84.3235 36.36 84.9236 36.9331 85.7551C37.8326 87.064 39.0371 88.1343 40.4426 88.8738C41.8481 89.6133 43.4124 89.9997 45.0006 89.9997C46.5888 89.9997 48.1531 89.6133 49.5586 88.8738C50.9641 88.1343 52.1686 87.064 53.0681 85.7551C53.6412 84.9236 54.4917 84.3235 55.4671 84.0621C56.4425 83.8008 57.4791 83.8955 58.3911 84.3291C59.8246 85.013 61.403 85.3378 62.9901 85.2755C64.5772 85.2132 66.1253 84.7657 67.5008 83.9716C68.8763 83.1774 70.0379 82.0605 70.8853 80.7172C71.7328 79.3738 72.2407 77.8445 72.3651 76.2611C72.445 75.2534 72.8815 74.3071 73.5963 73.5923C74.3111 72.8775 75.2574 72.441 76.2651 72.3611C77.8485 72.2366 79.3779 71.7288 80.7212 70.8813C82.0645 70.0338 83.1814 68.8722 83.9756 67.4967C84.7698 66.1212 85.2173 64.5732 85.2796 62.9861C85.3419 61.399 85.017 59.8206 84.3331 58.3871C83.8995 57.4751 83.8049 56.4385 84.0662 55.4631C84.3275 54.4876 84.9277 53.6372 85.7591 53.0641C87.0676 52.1652 88.1375 50.9613 88.8764 49.5563C89.6153 48.1513 90.001 46.5875 90.0001 45.0001Z" fill="#3C9584"/>
<path id="Ellipse 113" d="M45.0002 76.239C62.2763 76.239 76.2812 62.234 76.2812 44.958C76.2812 27.682 62.2763 13.677 45.0002 13.677C27.7242 13.677 13.7192 27.682 13.7192 44.958C13.7192 62.234 27.7242 76.239 45.0002 76.239Z" fill="#FAF7F7"/>
<g id="Group 3313">
<path id="Path 5890" d="M40.2791 60.1921H40.2501C39.5987 60.1879 38.9558 60.0439 38.3649 59.7698C37.774 59.4956 37.2489 59.0978 36.8251 58.6031L27.7131 47.9731C26.9279 47.0571 26.5388 45.8666 26.6313 44.6637C26.7239 43.4607 27.2905 42.3438 28.2066 41.5586C29.1226 40.7735 30.3131 40.3843 31.516 40.4769C32.719 40.5694 33.8359 41.1361 34.6211 42.0521L40.3211 48.7051L55.4091 31.2701C56.2059 30.3642 57.33 29.8118 58.5341 29.7347C59.7382 29.6575 60.9236 30.0618 61.8296 30.8586C62.7355 31.6555 63.2879 32.7796 63.365 33.9837C63.4422 35.1877 63.0379 36.3732 62.2411 37.2791L43.6931 58.6481C43.2663 59.1332 42.7411 59.5217 42.1524 59.788C41.5638 60.0542 40.9251 60.192 40.2791 60.1921Z" fill="#38D430"/>
</g>
<g id="Group 3314">
<path id="Path 5891" d="M62.2492 37.279L43.7022 58.648C43.2751 59.1332 42.7496 59.522 42.1606 59.7884C41.5716 60.0548 40.9326 60.1927 40.2862 60.193C40.2765 60.1938 40.2668 60.1938 40.2572 60.193C39.6059 60.1891 38.963 60.0453 38.3721 59.7713C37.7811 59.4974 37.256 59.0996 36.8322 58.605L35.9092 57.528C36.2395 57.6066 36.5777 57.6472 36.9172 57.649H36.9462C37.5927 57.6492 38.2318 57.5115 38.8209 57.245C39.4099 56.9786 39.9354 56.5896 40.3622 56.104L58.9112 34.735C59.4969 34.069 59.8753 33.2463 59.9996 32.3681C60.124 31.4899 59.989 30.5945 59.6112 29.792C60.4081 29.9301 61.1538 30.2781 61.7716 30.8001C62.3893 31.3222 62.8567 31.9995 63.1256 32.7623C63.3945 33.5251 63.4553 34.3458 63.3016 35.1398C63.1479 35.9339 62.7853 36.6726 62.2512 37.28L62.2492 37.279Z" fill="#67ACD5"/>
</g>
</g>
</svg>
