<svg width="20" height="20" viewBox="0 0 20 20" fill="none" xmlns="http://www.w3.org/2000/svg">
<g id="Mobile-Icon">
<path id="Vector" fill-rule="evenodd" clip-rule="evenodd" d="M14.1928 2.0574C14.251 2.11545 14.2971 2.18442 14.3287 2.26035C14.3602 2.33629 14.3764 2.41769 14.3764 2.4999C14.3764 2.58211 14.3602 2.66351 14.3287 2.73944C14.2971 2.81537 14.251 2.88434 14.1928 2.9424L7.13401 9.9999L14.1928 17.0574C14.3101 17.1748 14.3761 17.3339 14.3761 17.4999C14.3761 17.6659 14.3101 17.825 14.1928 17.9424C14.0754 18.0598 13.9162 18.1257 13.7503 18.1257C13.5843 18.1257 13.4251 18.0598 13.3078 17.9424L5.80776 10.4424C5.74956 10.3843 5.70338 10.3154 5.67187 10.2394C5.64036 10.1635 5.62415 10.0821 5.62415 9.9999C5.62415 9.91769 5.64036 9.83629 5.67187 9.76035C5.70338 9.68442 5.74956 9.61545 5.80776 9.5574L13.3078 2.0574C13.3658 1.99919 13.4348 1.95301 13.5107 1.92151C13.5867 1.89 13.6681 1.87378 13.7503 1.87378C13.8325 1.87378 13.9139 1.89 13.9898 1.92151C14.0657 1.95301 14.1347 1.99919 14.1928 2.0574Z" fill="#525252"/>
</g>
</svg>
