<svg width="21" height="20" viewBox="0 0 21 20" fill="none" xmlns="http://www.w3.org/2000/svg">
<g id="Mobile-Icon">
<path id="Vector" d="M8.625 0C8.12772 0 7.65081 0.197544 7.29917 0.549175C6.94754 0.900805 6.75 1.37772 6.75 1.875V3.125C6.75 3.62228 6.94754 4.09919 7.29917 4.45083C7.65081 4.80246 8.12772 5 8.625 5H12.375C12.8723 5 13.3492 4.80246 13.7008 4.45083C14.0525 4.09919 14.25 3.62228 14.25 3.125V1.875C14.25 1.37772 14.0525 0.900805 13.7008 0.549175C13.3492 0.197544 12.8723 0 12.375 0L8.625 0ZM12.375 1.25C12.5408 1.25 12.6997 1.31585 12.8169 1.43306C12.9342 1.55027 13 1.70924 13 1.875V3.125C13 3.29076 12.9342 3.44973 12.8169 3.56694C12.6997 3.68415 12.5408 3.75 12.375 3.75H8.625C8.45924 3.75 8.30027 3.68415 8.18306 3.56694C8.06585 3.44973 8 3.29076 8 3.125V1.875C8 1.70924 8.06585 1.55027 8.18306 1.43306C8.30027 1.31585 8.45924 1.25 8.625 1.25H12.375Z" fill="#0766F1"/>
<path id="Vector_2" d="M5.5 1.875H4.25C3.58696 1.875 2.95107 2.13839 2.48223 2.60723C2.01339 3.07607 1.75 3.71196 1.75 4.375V17.5C1.75 18.163 2.01339 18.7989 2.48223 19.2678C2.95107 19.7366 3.58696 20 4.25 20H16.75C17.413 20 18.0489 19.7366 18.5178 19.2678C18.9866 18.7989 19.25 18.163 19.25 17.5V4.375C19.25 3.71196 18.9866 3.07607 18.5178 2.60723C18.0489 2.13839 17.413 1.875 16.75 1.875H15.5V3.125C15.5 3.53538 15.4192 3.94174 15.2621 4.32089C15.1051 4.70003 14.8749 5.04453 14.5847 5.33471C14.2945 5.62489 13.95 5.85508 13.5709 6.01212C13.1917 6.16917 12.7854 6.25 12.375 6.25H8.625C7.7962 6.25 7.00134 5.92076 6.41529 5.33471C5.82924 4.74866 5.5 3.9538 5.5 3.125V1.875ZM14.0675 11.0675L10.3175 14.8175C10.2594 14.8757 10.1905 14.9219 10.1145 14.9534C10.0386 14.9849 9.95721 15.0011 9.875 15.0011C9.79279 15.0011 9.71139 14.9849 9.63546 14.9534C9.55953 14.9219 9.49056 14.8757 9.4325 14.8175L7.5575 12.9425C7.44014 12.8251 7.37421 12.666 7.37421 12.5C7.37421 12.334 7.44014 12.1749 7.5575 12.0575C7.67486 11.9401 7.83403 11.8742 8 11.8742C8.16597 11.8742 8.32514 11.9401 8.4425 12.0575L9.875 13.4913L13.1825 10.1825C13.2999 10.0651 13.459 9.99921 13.625 9.99921C13.791 9.99921 13.9501 10.0651 14.0675 10.1825C14.1849 10.2999 14.2508 10.459 14.2508 10.625C14.2508 10.791 14.1849 10.9501 14.0675 11.0675Z" fill="#0766F1"/>
</g>
</svg>
