<svg width="16" height="16" viewBox="0 0 16 16" fill="none" xmlns="http://www.w3.org/2000/svg">
<path d="M13.5 1.99902C13.5658 1.99903 13.6307 2.01289 13.6914 2.03809C13.7521 2.06326 13.8071 2.1 13.8535 2.14648C13.9001 2.19292 13.9377 2.24787 13.9629 2.30859C13.9881 2.36923 14.0009 2.43436 14.001 2.5C14.001 2.56577 13.9881 2.63164 13.9629 2.69238C13.9377 2.75303 13.9 2.80811 13.8535 2.85449L8.70801 8L13.8545 13.1465C13.9482 13.2403 14.0009 13.3674 14.001 13.5C14.001 13.6327 13.9483 13.7606 13.8545 13.8545C13.7606 13.9484 13.6328 14.001 13.5 14.001C13.3674 14.0009 13.2403 13.9482 13.1465 13.8545L8 8.70801L2.85352 13.8545C2.75966 13.9482 2.63263 14.001 2.5 14.001C2.36722 14.001 2.23939 13.9484 2.14551 13.8545C2.05173 13.7606 1.99902 13.6327 1.99902 13.5C1.99912 13.3675 2.05189 13.2403 2.14551 13.1465L7.29199 8L2.14648 2.85449C2.09997 2.80809 2.06231 2.75306 2.03711 2.69238C2.0119 2.63164 1.99902 2.56577 1.99902 2.5C1.99907 2.43437 2.01196 2.36922 2.03711 2.30859C2.06232 2.24785 2.09992 2.19293 2.14648 2.14648C2.19287 2.09999 2.24794 2.06328 2.30859 2.03809C2.36926 2.01291 2.43432 1.99906 2.5 1.99902C2.56568 1.99902 2.63073 2.01295 2.69141 2.03809C2.75215 2.06329 2.80805 2.09992 2.85449 2.14648L8 7.29199L13.1455 2.14648C13.192 2.09992 13.2478 2.06329 13.3086 2.03809C13.3693 2.0129 13.4343 1.99902 13.5 1.99902Z" fill="#525252"/>
</svg>
