<svg width="166" height="20" viewBox="0 0 166 20" fill="none" xmlns="http://www.w3.org/2000/svg">
<mask id="mask0_9439_11281" style="mask-type:luminance" maskUnits="userSpaceOnUse" x="0" y="0" width="20" height="20">
<path d="M20 0H0V20H20V0Z" fill="white"/>
</mask>
<g mask="url(#mask0_9439_11281)">
<path d="M19.6 10.2273C19.6 9.51819 19.5364 8.83639 19.4182 8.18179H10V12.05H15.3818C15.15 13.3 14.4455 14.3591 13.3864 15.0682V17.5773H16.6182C18.5091 15.8364 19.6 13.2727 19.6 10.2273Z" fill="#4285F4"/>
<path d="M9.99988 20C12.6999 20 14.9635 19.1045 16.6181 17.5773L13.3863 15.0682C12.4908 15.6682 11.3453 16.0227 9.99988 16.0227C7.39528 16.0227 5.19078 14.2636 4.40438 11.9H1.06348V14.4909C2.70898 17.7591 6.09078 20 9.99988 20Z" fill="#34A853"/>
<path d="M4.4045 11.9C4.2045 11.3 4.0909 10.6591 4.0909 9.99999C4.0909 9.34089 4.2045 8.69999 4.4045 8.09999V5.50909H1.0636C0.386401 6.85909 0 8.38639 0 9.99999C0 11.6136 0.386401 13.1409 1.0636 14.4909L4.4045 11.9Z" fill="#FBBC04"/>
<path d="M9.99988 3.9773C11.4681 3.9773 12.7862 4.4818 13.8226 5.4727L16.6908 2.6045C14.959 0.9909 12.6953 0 9.99988 0C6.09078 0 2.70898 2.2409 1.06348 5.5091L4.40438 8.1C5.19078 5.7364 7.39528 3.9773 9.99988 3.9773Z" fill="#E94235"/>
</g>
<path d="M38.8906 11.7598H40.5996C40.5449 12.4115 40.3626 12.9925 40.0527 13.5029C39.7428 14.0088 39.3076 14.4076 38.7471 14.6992C38.1865 14.9909 37.5052 15.1367 36.7031 15.1367C36.0879 15.1367 35.5342 15.0273 35.042 14.8086C34.5498 14.5853 34.1283 14.2708 33.7773 13.8652C33.4264 13.4551 33.1576 12.9606 32.9707 12.3818C32.7884 11.8031 32.6973 11.1559 32.6973 10.4404V9.6133C32.6973 8.8978 32.7907 8.2507 32.9775 7.6719C33.1689 7.0931 33.4424 6.5986 33.7979 6.1885C34.1533 5.7738 34.5794 5.457 35.0762 5.2383C35.5775 5.0195 36.1403 4.9102 36.7646 4.9102C37.5576 4.9102 38.2275 5.056 38.7744 5.3477C39.3213 5.6393 39.7451 6.0426 40.0459 6.5576C40.3512 7.0726 40.5381 7.6628 40.6064 8.3281H38.8975C38.8519 7.8997 38.7516 7.5329 38.5967 7.2275C38.4463 6.9222 38.223 6.6898 37.9268 6.5303C37.6305 6.3662 37.2432 6.2842 36.7646 6.2842C36.3727 6.2842 36.0309 6.3571 35.7393 6.5029C35.4476 6.6488 35.2038 6.863 35.0078 7.1455C34.8118 7.4281 34.6637 7.7767 34.5635 8.1914C34.4678 8.6016 34.4199 9.071 34.4199 9.5996V10.4404C34.4199 10.9417 34.4632 11.3975 34.5498 11.8076C34.641 12.2132 34.7777 12.5618 34.96 12.8535C35.1468 13.1452 35.3838 13.3708 35.6709 13.5303C35.958 13.6898 36.3021 13.7695 36.7031 13.7695C37.1908 13.7695 37.585 13.6921 37.8857 13.5371C38.1911 13.3822 38.4212 13.1566 38.5762 12.8604C38.7357 12.5596 38.8405 12.1927 38.8906 11.7598ZM41.6797 11.3838V11.2266C41.6797 10.6934 41.7572 10.1989 41.9121 9.7432C42.0671 9.2829 42.2904 8.8841 42.582 8.5469C42.8783 8.2051 43.2383 7.9408 43.6621 7.7539C44.0905 7.5625 44.5736 7.4668 45.1113 7.4668C45.6536 7.4668 46.1367 7.5625 46.5605 7.7539C46.9889 7.9408 47.3512 8.2051 47.6475 8.5469C47.9437 8.8841 48.1693 9.2829 48.3242 9.7432C48.4792 10.1989 48.5566 10.6934 48.5566 11.2266V11.3838C48.5566 11.917 48.4792 12.4115 48.3242 12.8672C48.1693 13.3229 47.9437 13.7217 47.6475 14.0635C47.3512 14.4007 46.9912 14.665 46.5674 14.8564C46.1436 15.0433 45.6628 15.1367 45.125 15.1367C44.5827 15.1367 44.0973 15.0433 43.6689 14.8564C43.2451 14.665 42.8851 14.4007 42.5889 14.0635C42.2926 13.7217 42.0671 13.3229 41.9121 12.8672C41.7572 12.4115 41.6797 11.917 41.6797 11.3838ZM43.3271 11.2266V11.3838C43.3271 11.7165 43.3613 12.0309 43.4297 12.3271C43.498 12.6234 43.6051 12.8831 43.751 13.1064C43.8968 13.3298 44.0837 13.5052 44.3115 13.6328C44.5394 13.7604 44.8105 13.8242 45.125 13.8242C45.4303 13.8242 45.6947 13.7604 45.918 13.6328C46.1458 13.5052 46.3327 13.3298 46.4785 13.1064C46.6243 12.8831 46.7314 12.6234 46.7998 12.3271C46.8727 12.0309 46.9092 11.7165 46.9092 11.3838V11.2266C46.9092 10.8984 46.8727 10.5885 46.7998 10.2969C46.7314 10.0007 46.6221 9.7386 46.4717 9.5107C46.3258 9.2829 46.139 9.1051 45.9111 8.9775C45.6878 8.8454 45.4212 8.7793 45.1113 8.7793C44.8014 8.7793 44.5326 8.8454 44.3047 8.9775C44.0814 9.1051 43.8968 9.2829 43.751 9.5107C43.6051 9.7386 43.498 10.0007 43.4297 10.2969C43.3613 10.5885 43.3271 10.8984 43.3271 11.2266ZM51.5713 9.1826V15H49.9238V7.6035H51.4756L51.5713 9.1826ZM51.2773 11.0283L50.7441 11.0215C50.7487 10.4974 50.8216 10.0166 50.9629 9.5791C51.1087 9.1416 51.3092 8.7656 51.5645 8.4512C51.8242 8.1367 52.1341 7.8952 52.4941 7.7266C52.8542 7.5534 53.2552 7.4668 53.6973 7.4668C54.0527 7.4668 54.374 7.5169 54.6611 7.6172C54.9528 7.7129 55.2012 7.8701 55.4062 8.0889C55.6159 8.3076 55.7754 8.5924 55.8848 8.9434C55.9941 9.2897 56.0488 9.7158 56.0488 10.2217V15H54.3945V10.2148C54.3945 9.8594 54.3421 9.5791 54.2373 9.374C54.137 9.1644 53.9889 9.0163 53.793 8.9297C53.6016 8.8385 53.3623 8.793 53.0752 8.793C52.7926 8.793 52.5397 8.8522 52.3164 8.9707C52.0931 9.0892 51.904 9.251 51.749 9.4561C51.5986 9.6611 51.4824 9.8981 51.4004 10.167C51.3184 10.4359 51.2773 10.723 51.2773 11.0283ZM61.1211 7.6035V8.8066H56.9512V7.6035H61.1211ZM58.1543 5.792H59.8018V12.9561C59.8018 13.1839 59.8337 13.3594 59.8975 13.4824C59.9658 13.6009 60.0592 13.6807 60.1777 13.7217C60.2962 13.7627 60.4352 13.7832 60.5947 13.7832C60.7087 13.7832 60.818 13.7764 60.9229 13.7627C61.0277 13.749 61.112 13.7354 61.1758 13.7217L61.1826 14.9795C61.0459 15.0205 60.8864 15.057 60.7041 15.0889C60.5264 15.1208 60.3213 15.1367 60.0889 15.1367C59.7106 15.1367 59.3757 15.0706 59.084 14.9385C58.7923 14.8018 58.5645 14.5807 58.4004 14.2754C58.2363 13.9701 58.1543 13.5645 58.1543 13.0586V5.792ZM64.1562 7.6035V15H62.502V7.6035H64.1562ZM62.3926 5.6621C62.3926 5.4115 62.4746 5.2041 62.6387 5.04C62.8073 4.8714 63.0397 4.7871 63.3359 4.7871C63.6276 4.7871 63.8577 4.8714 64.0264 5.04C64.195 5.2041 64.2793 5.4115 64.2793 5.6621C64.2793 5.9082 64.195 6.1133 64.0264 6.2773C63.8577 6.4414 63.6276 6.5234 63.3359 6.5234C63.0397 6.5234 62.8073 6.4414 62.6387 6.2773C62.4746 6.1133 62.3926 5.9082 62.3926 5.6621ZM67.5947 9.1826V15H65.9473V7.6035H67.499L67.5947 9.1826ZM67.3008 11.0283L66.7676 11.0215C66.7721 10.4974 66.8451 10.0166 66.9863 9.5791C67.1322 9.1416 67.3327 8.7656 67.5879 8.4512C67.8477 8.1367 68.1576 7.8952 68.5176 7.7266C68.8776 7.5534 69.2786 7.4668 69.7207 7.4668C70.0762 7.4668 70.3975 7.5169 70.6846 7.6172C70.9762 7.7129 71.2246 7.8701 71.4297 8.0889C71.6393 8.3076 71.7988 8.5924 71.9082 8.9434C72.0176 9.2897 72.0723 9.7158 72.0723 10.2217V15H70.418V10.2148C70.418 9.8594 70.3656 9.5791 70.2607 9.374C70.1605 9.1644 70.0124 9.0163 69.8164 8.9297C69.625 8.8385 69.3857 8.793 69.0986 8.793C68.8161 8.793 68.5632 8.8522 68.3398 8.9707C68.1165 9.0892 67.9274 9.251 67.7725 9.4561C67.6221 9.6611 67.5059 9.8981 67.4238 10.167C67.3418 10.4359 67.3008 10.723 67.3008 11.0283ZM78.2041 13.2568V7.6035H79.8584V15H78.2998L78.2041 13.2568ZM78.4365 11.7188L78.9902 11.7051C78.9902 12.2018 78.9355 12.6598 78.8262 13.0791C78.7168 13.4938 78.5482 13.8561 78.3203 14.166C78.0924 14.4714 77.8008 14.7106 77.4453 14.8838C77.0898 15.0524 76.6637 15.1367 76.167 15.1367C75.807 15.1367 75.4766 15.0843 75.1758 14.9795C74.875 14.8747 74.6152 14.7129 74.3965 14.4941C74.1823 14.2754 74.016 13.9906 73.8975 13.6396C73.779 13.2887 73.7197 12.8695 73.7197 12.3818V7.6035H75.3672V12.3955C75.3672 12.6644 75.3991 12.89 75.4629 13.0723C75.5267 13.25 75.6133 13.3936 75.7227 13.5029C75.832 13.6123 75.9596 13.6898 76.1055 13.7354C76.2513 13.7809 76.4062 13.8037 76.5703 13.8037C77.0397 13.8037 77.4089 13.7126 77.6777 13.5303C77.9512 13.3434 78.1449 13.0928 78.2588 12.7783C78.3773 12.4639 78.4365 12.1107 78.4365 11.7188ZM84.8076 15.1367C84.2607 15.1367 83.7663 15.0479 83.3242 14.8701C82.8867 14.6878 82.513 14.4349 82.2031 14.1113C81.8978 13.7878 81.6631 13.4072 81.499 12.9697C81.335 12.5322 81.2529 12.0605 81.2529 11.5547V11.2812C81.2529 10.7025 81.3372 10.1784 81.5059 9.709C81.6745 9.2396 81.9092 8.8385 82.21 8.5059C82.5107 8.1686 82.8662 7.9111 83.2764 7.7334C83.6865 7.5557 84.1309 7.4668 84.6094 7.4668C85.138 7.4668 85.6006 7.5557 85.9971 7.7334C86.3936 7.9111 86.7217 8.1618 86.9814 8.4854C87.2458 8.8044 87.4417 9.1849 87.5693 9.627C87.7015 10.069 87.7676 10.5566 87.7676 11.0898V11.7939H82.0527V10.6113H86.1406V10.4814C86.1315 10.1852 86.0723 9.9072 85.9629 9.6475C85.8581 9.3877 85.6963 9.1781 85.4775 9.0186C85.2588 8.859 84.9671 8.7793 84.6025 8.7793C84.3291 8.7793 84.0853 8.8385 83.8711 8.957C83.6615 9.071 83.486 9.2373 83.3447 9.4561C83.2035 9.6748 83.0941 9.9391 83.0166 10.249C82.9437 10.5544 82.9072 10.8984 82.9072 11.2812V11.5547C82.9072 11.8783 82.9505 12.179 83.0371 12.457C83.1283 12.7305 83.2604 12.9697 83.4336 13.1748C83.6068 13.3799 83.8164 13.5417 84.0625 13.6602C84.3086 13.7741 84.5889 13.8311 84.9033 13.8311C85.2998 13.8311 85.653 13.7513 85.9629 13.5918C86.2728 13.4323 86.5417 13.2067 86.7695 12.915L87.6377 13.7559C87.4782 13.9883 87.2708 14.2116 87.0156 14.4258C86.7604 14.6354 86.4482 14.8063 86.0791 14.9385C85.7145 15.0706 85.2907 15.1367 84.8076 15.1367ZM94.549 13.3594L96.258 7.6035H97.311L97.023 9.3262L95.301 15H94.357L94.549 13.3594ZM93.544 7.6035L94.877 13.3867L94.986 15H93.934L91.931 7.6035H93.544ZM98.91 13.3184L100.202 7.6035H101.809L99.812 15H98.76L98.91 13.3184ZM97.488 7.6035L99.177 13.291L99.389 15H98.445L96.702 9.3193L96.415 7.6035H97.488ZM104.693 7.6035V15H103.039V7.6035H104.693ZM102.93 5.6621C102.93 5.4115 103.012 5.2041 103.176 5.04C103.344 4.8714 103.577 4.7871 103.873 4.7871C104.165 4.7871 104.395 4.8714 104.563 5.04C104.732 5.2041 104.816 5.4115 104.816 5.6621C104.816 5.9082 104.732 6.1133 104.563 6.2773C104.395 6.4414 104.165 6.5234 103.873 6.5234C103.577 6.5234 103.344 6.4414 103.176 6.2773C103.012 6.1133 102.93 5.9082 102.93 5.6621ZM109.889 7.6035V8.8066H105.719V7.6035H109.889ZM106.922 5.792H108.569V12.9561C108.569 13.1839 108.601 13.3594 108.665 13.4824C108.733 13.6009 108.827 13.6807 108.945 13.7217C109.064 13.7627 109.203 13.7832 109.362 13.7832C109.476 13.7832 109.586 13.7764 109.69 13.7627C109.795 13.749 109.88 13.7354 109.943 13.7217L109.95 14.9795C109.813 15.0205 109.654 15.057 109.472 15.0889C109.294 15.1208 109.089 15.1367 108.856 15.1367C108.478 15.1367 108.143 15.0706 107.852 14.9385C107.56 14.8018 107.332 14.5807 107.168 14.2754C107.004 13.9701 106.922 13.5645 106.922 13.0586V5.792ZM112.787 4.5V15H111.146V4.5H112.787ZM112.5 11.0283L111.967 11.0215C111.971 10.5111 112.042 10.0394 112.179 9.6064C112.32 9.1735 112.516 8.7975 112.767 8.4785C113.022 8.1549 113.327 7.9066 113.683 7.7334C114.038 7.5557 114.432 7.4668 114.865 7.4668C115.23 7.4668 115.558 7.5169 115.85 7.6172C116.146 7.7174 116.401 7.8792 116.615 8.1025C116.829 8.3213 116.991 8.6084 117.101 8.9639C117.215 9.3148 117.271 9.7432 117.271 10.249V15H115.617V10.2354C115.617 9.8799 115.565 9.5973 115.46 9.3877C115.36 9.1781 115.212 9.0277 115.016 8.9365C114.82 8.8408 114.58 8.793 114.298 8.793C114.002 8.793 113.74 8.8522 113.512 8.9707C113.288 9.0892 113.102 9.251 112.951 9.4561C112.801 9.6611 112.687 9.8981 112.609 10.167C112.536 10.4359 112.5 10.723 112.5 11.0283ZM130.232 9.9141V13.7148C130.091 13.9017 129.87 14.1068 129.569 14.3301C129.273 14.5488 128.879 14.738 128.387 14.8975C127.895 15.057 127.282 15.1367 126.548 15.1367C125.924 15.1367 125.352 15.0319 124.832 14.8223C124.312 14.6081 123.864 14.2959 123.485 13.8857C123.112 13.4756 122.822 12.9766 122.617 12.3887C122.412 11.7962 122.31 11.1217 122.31 10.3652V9.6748C122.31 8.9229 122.403 8.2529 122.59 7.665C122.781 7.0726 123.055 6.5713 123.41 6.1611C123.766 5.751 124.194 5.4411 124.695 5.2314C125.201 5.0173 125.773 4.9102 126.411 4.9102C127.227 4.9102 127.901 5.0469 128.435 5.3203C128.972 5.5892 129.387 5.9629 129.679 6.4414C129.97 6.9199 130.155 7.4668 130.232 8.082H128.551C128.496 7.7357 128.389 7.4258 128.229 7.1523C128.075 6.8789 127.851 6.6647 127.56 6.5098C127.272 6.3503 126.899 6.2705 126.438 6.2705C126.042 6.2705 125.693 6.3457 125.393 6.4961C125.092 6.6465 124.841 6.8675 124.641 7.1592C124.445 7.4508 124.297 7.8063 124.196 8.2256C124.096 8.6449 124.046 9.1234 124.046 9.6611V10.3652C124.046 10.9121 124.103 11.3975 124.217 11.8213C124.335 12.2451 124.504 12.6029 124.723 12.8945C124.946 13.1862 125.217 13.4072 125.536 13.5576C125.855 13.7035 126.215 13.7764 126.616 13.7764C127.008 13.7764 127.329 13.7445 127.58 13.6807C127.831 13.6123 128.029 13.5326 128.175 13.4414C128.325 13.3457 128.441 13.2546 128.523 13.168V11.1924H126.452V9.9141H130.232ZM131.654 11.3838V11.2266C131.654 10.6934 131.732 10.1989 131.887 9.7432C132.042 9.2829 132.265 8.8841 132.557 8.5469C132.853 8.2051 133.213 7.9408 133.637 7.7539C134.065 7.5625 134.548 7.4668 135.086 7.4668C135.628 7.4668 136.111 7.5625 136.535 7.7539C136.964 7.9408 137.326 8.2051 137.622 8.5469C137.918 8.8841 138.144 9.2829 138.299 9.7432C138.454 10.1989 138.531 10.6934 138.531 11.2266V11.3838C138.531 11.917 138.454 12.4115 138.299 12.8672C138.144 13.3229 137.918 13.7217 137.622 14.0635C137.326 14.4007 136.966 14.665 136.542 14.8564C136.118 15.0433 135.637 15.1367 135.1 15.1367C134.557 15.1367 134.072 15.0433 133.644 14.8564C133.22 14.665 132.86 14.4007 132.563 14.0635C132.267 13.7217 132.042 13.3229 131.887 12.8672C131.732 12.4115 131.654 11.917 131.654 11.3838ZM133.302 11.2266V11.3838C133.302 11.7165 133.336 12.0309 133.404 12.3271C133.473 12.6234 133.58 12.8831 133.726 13.1064C133.871 13.3298 134.058 13.5052 134.286 13.6328C134.514 13.7604 134.785 13.8242 135.1 13.8242C135.405 13.8242 135.669 13.7604 135.893 13.6328C136.12 13.5052 136.307 13.3298 136.453 13.1064C136.599 12.8831 136.706 12.6234 136.774 12.3271C136.847 12.0309 136.884 11.7165 136.884 11.3838V11.2266C136.884 10.8984 136.847 10.5885 136.774 10.2969C136.706 10.0007 136.597 9.7386 136.446 9.5107C136.3 9.2829 136.114 9.1051 135.886 8.9775C135.662 8.8454 135.396 8.7793 135.086 8.7793C134.776 8.7793 134.507 8.8454 134.279 8.9775C134.056 9.1051 133.871 9.2829 133.726 9.5107C133.58 9.7386 133.473 10.0007 133.404 10.2969C133.336 10.5885 133.302 10.8984 133.302 11.2266ZM139.598 11.3838V11.2266C139.598 10.6934 139.675 10.1989 139.83 9.7432C139.985 9.2829 140.208 8.8841 140.5 8.5469C140.796 8.2051 141.156 7.9408 141.58 7.7539C142.008 7.5625 142.492 7.4668 143.029 7.4668C143.572 7.4668 144.055 7.5625 144.479 7.7539C144.907 7.9408 145.269 8.2051 145.565 8.5469C145.862 8.8841 146.087 9.2829 146.242 9.7432C146.397 10.1989 146.475 10.6934 146.475 11.2266V11.3838C146.475 11.917 146.397 12.4115 146.242 12.8672C146.087 13.3229 145.862 13.7217 145.565 14.0635C145.269 14.4007 144.909 14.665 144.485 14.8564C144.062 15.0433 143.581 15.1367 143.043 15.1367C142.501 15.1367 142.015 15.0433 141.587 14.8564C141.163 14.665 140.803 14.4007 140.507 14.0635C140.211 13.7217 139.985 13.3229 139.83 12.8672C139.675 12.4115 139.598 11.917 139.598 11.3838ZM141.245 11.2266V11.3838C141.245 11.7165 141.279 12.0309 141.348 12.3271C141.416 12.6234 141.523 12.8831 141.669 13.1064C141.815 13.3298 142.002 13.5052 142.229 13.6328C142.457 13.7604 142.729 13.8242 143.043 13.8242C143.348 13.8242 143.613 13.7604 143.836 13.6328C144.064 13.5052 144.251 13.3298 144.396 13.1064C144.542 12.8831 144.649 12.6234 144.718 12.3271C144.791 12.0309 144.827 11.7165 144.827 11.3838V11.2266C144.827 10.8984 144.791 10.5885 144.718 10.2969C144.649 10.0007 144.54 9.7386 144.39 9.5107C144.244 9.2829 144.057 9.1051 143.829 8.9775C143.606 8.8454 143.339 8.7793 143.029 8.7793C142.719 8.7793 142.451 8.8454 142.223 8.9775C141.999 9.1051 141.815 9.2829 141.669 9.5107C141.523 9.7386 141.416 10.0007 141.348 10.2969C141.279 10.5885 141.245 10.8984 141.245 11.2266ZM152.593 7.6035H154.09V14.7949C154.09 15.4603 153.949 16.0254 153.666 16.4902C153.383 16.9551 152.989 17.3083 152.483 17.5498C151.978 17.7959 151.392 17.9189 150.727 17.9189C150.444 17.9189 150.13 17.8779 149.783 17.7959C149.441 17.7139 149.109 17.5817 148.785 17.3994C148.466 17.2217 148.2 16.987 147.985 16.6953L148.758 15.7246C149.022 16.0391 149.314 16.2692 149.633 16.415C149.952 16.5609 150.287 16.6338 150.638 16.6338C151.016 16.6338 151.337 16.5632 151.602 16.4219C151.87 16.2852 152.078 16.0824 152.224 15.8135C152.369 15.5446 152.442 15.2165 152.442 14.8291V9.2783L152.593 7.6035ZM147.568 11.3838V11.2402C147.568 10.6797 147.637 10.1693 147.773 9.709C147.91 9.2441 148.106 8.8454 148.361 8.5127C148.617 8.1755 148.926 7.918 149.291 7.7402C149.656 7.5579 150.068 7.4668 150.528 7.4668C151.007 7.4668 151.415 7.5534 151.752 7.7266C152.094 7.8997 152.379 8.1481 152.606 8.4717C152.834 8.7907 153.012 9.1735 153.14 9.6201C153.272 10.0622 153.37 10.5544 153.434 11.0967V11.5547C153.374 12.0833 153.274 12.5664 153.133 13.0039C152.992 13.4414 152.805 13.8197 152.572 14.1387C152.34 14.4577 152.053 14.7038 151.711 14.877C151.374 15.0501 150.975 15.1367 150.515 15.1367C150.063 15.1367 149.656 15.0433 149.291 14.8564C148.931 14.6696 148.621 14.4076 148.361 14.0703C148.106 13.7331 147.91 13.3366 147.773 12.8809C147.637 12.4206 147.568 11.9215 147.568 11.3838ZM149.216 11.2402V11.3838C149.216 11.721 149.248 12.0355 149.312 12.3271C149.38 12.6188 149.482 12.8763 149.619 13.0996C149.76 13.3184 149.938 13.4915 150.152 13.6191C150.371 13.7422 150.629 13.8037 150.925 13.8037C151.312 13.8037 151.629 13.7217 151.875 13.5576C152.126 13.3936 152.317 13.1725 152.449 12.8945C152.586 12.612 152.682 12.2975 152.736 11.9512V10.7139C152.709 10.445 152.652 10.1943 152.565 9.9619C152.483 9.7295 152.372 9.5267 152.23 9.3535C152.089 9.1758 151.911 9.0391 151.697 8.9434C151.483 8.8431 151.23 8.793 150.938 8.793C150.642 8.793 150.385 8.8568 150.166 8.9844C149.947 9.112 149.767 9.2874 149.626 9.5107C149.489 9.734 149.387 9.9938 149.318 10.29C149.25 10.5863 149.216 10.903 149.216 11.2402ZM157.562 4.5V15H155.908V4.5H157.562ZM162.628 15.1367C162.081 15.1367 161.587 15.0479 161.145 14.8701C160.707 14.6878 160.333 14.4349 160.023 14.1113C159.718 13.7878 159.483 13.4072 159.319 12.9697C159.155 12.5322 159.073 12.0605 159.073 11.5547V11.2812C159.073 10.7025 159.158 10.1784 159.326 9.709C159.495 9.2396 159.729 8.8385 160.03 8.5059C160.331 8.1686 160.687 7.9111 161.097 7.7334C161.507 7.5557 161.951 7.4668 162.43 7.4668C162.958 7.4668 163.421 7.5557 163.817 7.7334C164.214 7.9111 164.542 8.1618 164.802 8.4854C165.066 8.8044 165.262 9.1849 165.39 9.627C165.522 10.069 165.588 10.5566 165.588 11.0898V11.7939H159.873V10.6113H163.961V10.4814C163.952 10.1852 163.893 9.9072 163.783 9.6475C163.678 9.3877 163.517 9.1781 163.298 9.0186C163.079 8.859 162.787 8.7793 162.423 8.7793C162.149 8.7793 161.906 8.8385 161.691 8.957C161.482 9.071 161.306 9.2373 161.165 9.4561C161.024 9.6748 160.914 9.9391 160.837 10.249C160.764 10.5544 160.728 10.8984 160.728 11.2812V11.5547C160.728 11.8783 160.771 12.179 160.857 12.457C160.949 12.7305 161.081 12.9697 161.254 13.1748C161.427 13.3799 161.637 13.5417 161.883 13.6602C162.129 13.7741 162.409 13.8311 162.724 13.8311C163.12 13.8311 163.473 13.7513 163.783 13.5918C164.093 13.4323 164.362 13.2067 164.59 12.915L165.458 13.7559C165.299 13.9883 165.091 14.2116 164.836 14.4258C164.581 14.6354 164.269 14.8063 163.899 14.9385C163.535 15.0706 163.111 15.1367 162.628 15.1367Z" fill="#E3E3E3"/>
</svg>
