<svg width="206" height="18" viewBox="0 0 206 18" fill="none" xmlns="http://www.w3.org/2000/svg">
<path d="M9.74609 3.69189C9.88216 3.69189 10.1141 3.71354 10.4419 3.75684C10.7697 3.80013 11.1284 3.92383 11.5181 4.12793C11.9139 4.32585 12.2726 4.65674 12.5942 5.12061C12.5757 5.13916 12.486 5.20719 12.3252 5.32471C12.1644 5.43604 11.985 5.60303 11.7871 5.82568C11.5892 6.04215 11.416 6.32048 11.2676 6.66064C11.1191 6.99463 11.0449 7.39355 11.0449 7.85742C11.0449 8.38932 11.1377 8.84082 11.3232 9.21191C11.515 9.58301 11.7345 9.88298 11.9819 10.1118C12.2355 10.3345 12.4582 10.4984 12.6499 10.6035C12.8478 10.7087 12.953 10.7643 12.9653 10.7705C12.9591 10.7952 12.8787 11.0148 12.7241 11.4292C12.5757 11.8436 12.3283 12.3044 11.9819 12.8115C11.6789 13.2507 11.3511 13.6558 10.9985 14.0269C10.6522 14.3979 10.2347 14.5835 9.74609 14.5835C9.41829 14.5835 9.14925 14.5371 8.93896 14.4443C8.72868 14.3454 8.51221 14.2495 8.28955 14.1567C8.06689 14.0578 7.76693 14.0083 7.38965 14.0083C7.02474 14.0083 6.71859 14.0578 6.47119 14.1567C6.22998 14.2557 5.99805 14.3547 5.77539 14.4536C5.55892 14.5526 5.30225 14.6021 5.00537 14.6021C4.55387 14.6021 4.15804 14.4227 3.81787 14.064C3.4777 13.7052 3.12826 13.2754 2.76953 12.7744C2.35514 12.1807 1.99951 11.457 1.70264 10.6035C1.41195 9.74382 1.2666 8.87793 1.2666 8.00586C1.2666 7.07194 1.44287 6.28955 1.79541 5.65869C2.14795 5.02165 2.59945 4.54232 3.1499 4.2207C3.70654 3.8929 4.28174 3.729 4.87549 3.729C5.19092 3.729 5.48779 3.78158 5.76611 3.88672C6.04443 3.98568 6.3042 4.08773 6.54541 4.19287C6.79281 4.29801 7.01546 4.35059 7.21338 4.35059C7.40511 4.35059 7.62777 4.29492 7.88135 4.18359C8.13493 4.07227 8.41943 3.96403 8.73486 3.85889C9.05029 3.74756 9.38737 3.69189 9.74609 3.69189ZM9.23584 2.51367C8.99463 2.80436 8.69157 3.04867 8.32666 3.24658C7.96175 3.43831 7.6154 3.53418 7.2876 3.53418C7.21956 3.53418 7.15462 3.52799 7.09277 3.51562C7.08659 3.49707 7.0804 3.46305 7.07422 3.41357C7.06803 3.3641 7.06494 3.31152 7.06494 3.25586C7.06494 2.88477 7.14535 2.52604 7.30615 2.17969C7.46696 1.82715 7.64941 1.53646 7.85352 1.30762C8.11328 0.998372 8.44108 0.741699 8.83691 0.537598C9.23275 0.333496 9.61003 0.22526 9.96875 0.212891C9.9873 0.293294 9.99658 0.38916 9.99658 0.500488C9.99658 0.871582 9.92546 1.2334 9.7832 1.58594C9.64095 1.93229 9.4585 2.24154 9.23584 2.51367Z" fill="white"/>
<path d="M26.2085 14.8247C24.9468 14.8247 23.8551 14.5402 22.9336 13.9712C22.012 13.4022 21.3008 12.5951 20.7998 11.5498C20.305 10.5046 20.0576 9.26139 20.0576 7.82031V7.80176C20.0576 6.35449 20.305 5.10824 20.7998 4.06299C21.3008 3.01774 22.009 2.21061 22.9243 1.6416C23.8459 1.07259 24.9406 0.788086 26.2085 0.788086C27.2228 0.788086 28.1382 0.989095 28.9546 1.39111C29.771 1.78695 30.4359 2.3374 30.9492 3.04248C31.4626 3.74137 31.7718 4.54232 31.877 5.44531V5.52881H29.5298L29.5205 5.47314C29.403 4.94743 29.1896 4.48975 28.8804 4.1001C28.5773 3.70426 28.1969 3.39811 27.7393 3.18164C27.2816 2.96517 26.7713 2.85693 26.2085 2.85693C25.4478 2.85693 24.7891 3.05794 24.2324 3.45996C23.6758 3.86198 23.2459 4.43099 22.9429 5.16699C22.646 5.90299 22.4976 6.77816 22.4976 7.79248V7.81104C22.4976 8.82536 22.646 9.70361 22.9429 10.4458C23.2459 11.1818 23.6758 11.7508 24.2324 12.1528C24.7891 12.5549 25.4508 12.7559 26.2178 12.7559C26.7868 12.7559 27.297 12.6569 27.7485 12.459C28.2062 12.2611 28.5866 11.9797 28.8896 11.6147C29.1927 11.2498 29.403 10.82 29.5205 10.3252L29.5391 10.2695H31.8862L31.877 10.3438C31.7594 11.2344 31.4471 12.0168 30.9399 12.6909C30.4328 13.3589 29.7741 13.8815 28.9639 14.2588C28.1598 14.6361 27.2414 14.8247 26.2085 14.8247ZM38.603 14.7041C37.5949 14.7041 36.7259 14.4938 35.9961 14.0732C35.2725 13.6527 34.7127 13.0496 34.3169 12.2642C33.9272 11.4787 33.7324 10.5417 33.7324 9.45312V9.43457C33.7324 8.34603 33.9303 7.41211 34.3262 6.63281C34.722 5.84733 35.2817 5.2443 36.0054 4.82373C36.7352 4.40316 37.6011 4.19287 38.603 4.19287C39.605 4.19287 40.4678 4.40316 41.1914 4.82373C41.9212 5.2443 42.484 5.84733 42.8799 6.63281C43.2757 7.41211 43.4736 8.34603 43.4736 9.43457V9.45312C43.4736 10.5417 43.2757 11.4787 42.8799 12.2642C42.4902 13.0496 41.9305 13.6527 41.2007 14.0732C40.4771 14.4938 39.6112 14.7041 38.603 14.7041ZM38.603 12.8301C39.1349 12.8301 39.5864 12.6971 39.9575 12.4312C40.3286 12.1652 40.6131 11.7817 40.811 11.2808C41.009 10.7736 41.1079 10.1644 41.1079 9.45312V9.43457C41.1079 8.72331 41.009 8.11719 40.811 7.61621C40.6131 7.11523 40.3286 6.73177 39.9575 6.46582C39.5864 6.19368 39.1349 6.05762 38.603 6.05762C38.0711 6.05762 37.6196 6.19368 37.2485 6.46582C36.8774 6.73177 36.5898 7.11523 36.3857 7.61621C36.1878 8.11719 36.0889 8.72331 36.0889 9.43457V9.45312C36.0889 10.1644 36.1878 10.7736 36.3857 11.2808C36.5837 11.7817 36.8682 12.1652 37.2393 12.4312C37.6165 12.6971 38.0711 12.8301 38.603 12.8301ZM45.7095 14.5V4.3877H48.0195V5.93701H48.168C48.4154 5.39274 48.7834 4.96598 49.272 4.65674C49.7606 4.34749 50.3698 4.19287 51.0996 4.19287C52.2314 4.19287 53.0942 4.52067 53.688 5.17627C54.2879 5.83187 54.5879 6.7596 54.5879 7.95947V14.5H52.2778V8.48828C52.2778 7.70898 52.1108 7.12142 51.7769 6.72559C51.4491 6.32975 50.9388 6.13184 50.2461 6.13184C49.7884 6.13184 49.3926 6.23389 49.0586 6.43799C48.7308 6.64209 48.4741 6.92969 48.2886 7.30078C48.1092 7.66569 48.0195 8.10173 48.0195 8.60889V14.5H45.7095ZM61.1934 14.5649C60.043 14.5649 59.2111 14.3516 58.6978 13.9248C58.1844 13.4919 57.9277 12.7868 57.9277 11.8096V6.17822H56.3784V4.3877H57.9277V1.90137H60.2749V4.3877H62.3901V6.17822H60.2749V11.29C60.2749 11.7972 60.38 12.1652 60.5903 12.394C60.8068 12.6167 61.1532 12.728 61.6294 12.728C61.7902 12.728 61.9232 12.7249 62.0283 12.7188C62.1396 12.7064 62.2603 12.694 62.3901 12.6816V14.4629C62.2293 14.4876 62.0469 14.5093 61.8428 14.5278C61.6387 14.5526 61.4222 14.5649 61.1934 14.5649ZM64.6631 14.5V4.3877H66.9731V14.5H64.6631ZM65.8228 2.71777C65.4517 2.71777 65.13 2.5848 64.8579 2.31885C64.592 2.0529 64.459 1.73438 64.459 1.36328C64.459 0.986003 64.592 0.66748 64.8579 0.407715C65.13 0.141764 65.4517 0.00878906 65.8228 0.00878906C66.2062 0.00878906 66.5309 0.141764 66.7969 0.407715C67.0628 0.66748 67.1958 0.986003 67.1958 1.36328C67.1958 1.73438 67.0628 2.0529 66.7969 2.31885C66.5309 2.5848 66.2062 2.71777 65.8228 2.71777ZM69.7378 14.5V4.3877H72.0479V5.93701H72.1963C72.4437 5.39274 72.8117 4.96598 73.3003 4.65674C73.7889 4.34749 74.3981 4.19287 75.1279 4.19287C76.2598 4.19287 77.1226 4.52067 77.7163 5.17627C78.3162 5.83187 78.6162 6.7596 78.6162 7.95947V14.5H76.3062V8.48828C76.3062 7.70898 76.1392 7.12142 75.8052 6.72559C75.4774 6.32975 74.9671 6.13184 74.2744 6.13184C73.8167 6.13184 73.4209 6.23389 73.0869 6.43799C72.7591 6.64209 72.5024 6.92969 72.3169 7.30078C72.1375 7.66569 72.0479 8.10173 72.0479 8.60889V14.5H69.7378ZM84.6279 14.7041C83.8734 14.7041 83.2394 14.5588 82.7261 14.2681C82.2127 13.9712 81.8262 13.5413 81.5664 12.9785C81.3066 12.4095 81.1768 11.7261 81.1768 10.9282V4.3877H83.4775V10.4087C83.4775 11.1818 83.6322 11.7663 83.9414 12.1621C84.2568 12.5579 84.764 12.7559 85.4629 12.7559C85.8278 12.7559 86.1525 12.7002 86.437 12.5889C86.7215 12.4714 86.9596 12.3044 87.1514 12.0879C87.3493 11.8714 87.4977 11.6117 87.5967 11.3086C87.6956 11.0055 87.7451 10.6623 87.7451 10.2788V4.3877H90.0459V14.5H87.7451V12.96H87.5967C87.4359 13.3187 87.2163 13.631 86.938 13.897C86.6597 14.1567 86.3257 14.3577 85.936 14.5C85.5526 14.6361 85.1165 14.7041 84.6279 14.7041ZM97.1245 14.7041C96.1226 14.7041 95.2598 14.4907 94.5361 14.064C93.8187 13.6372 93.2651 13.0342 92.8755 12.2549C92.4858 11.4694 92.291 10.5417 92.291 9.47168V9.4624C92.291 8.3986 92.4827 7.47396 92.8662 6.68848C93.2559 5.89681 93.8063 5.28451 94.5176 4.85156C95.2288 4.41243 96.0607 4.19287 97.0132 4.19287C97.978 4.19287 98.8068 4.40316 99.4995 4.82373C100.198 5.2443 100.733 5.83496 101.104 6.5957C101.482 7.35645 101.67 8.24398 101.67 9.2583V10.019H93.4507V8.479H100.548L99.4438 9.92627V9.00781C99.4438 8.33366 99.3418 7.77702 99.1377 7.33789C98.9336 6.89258 98.6522 6.55859 98.2935 6.33594C97.9347 6.11328 97.5173 6.00195 97.041 6.00195C96.571 6.00195 96.1504 6.11637 95.7793 6.34521C95.4144 6.57406 95.1237 6.91423 94.9072 7.36572C94.6969 7.81104 94.5918 8.3584 94.5918 9.00781V9.92627C94.5918 10.5509 94.6969 11.0859 94.9072 11.5312C95.1175 11.9704 95.4144 12.3075 95.7979 12.5425C96.1875 12.7775 96.6452 12.895 97.1709 12.895C97.5853 12.895 97.9409 12.8363 98.2378 12.7188C98.5347 12.5951 98.7759 12.4466 98.9614 12.2734C99.1532 12.1003 99.283 11.9364 99.3511 11.7817L99.3882 11.7075H101.568L101.55 11.8003C101.469 12.1281 101.321 12.4621 101.104 12.8022C100.894 13.1424 100.607 13.4578 100.242 13.7485C99.883 14.033 99.4438 14.265 98.9243 14.4443C98.4048 14.6175 97.8049 14.7041 97.1245 14.7041ZM110.809 14.5L108.062 4.3877H110.382L112.061 12.0044H112.219L114.167 4.3877H116.366L118.323 12.0044H118.472L120.151 4.3877H122.442L119.696 14.5H117.284L115.308 7.16162H115.16L113.193 14.5H110.809ZM124.391 14.5V4.3877H126.701V14.5H124.391ZM125.55 2.71777C125.179 2.71777 124.858 2.5848 124.585 2.31885C124.319 2.0529 124.187 1.73438 124.187 1.36328C124.187 0.986003 124.319 0.66748 124.585 0.407715C124.858 0.141764 125.179 0.00878906 125.55 0.00878906C125.934 0.00878906 126.258 0.141764 126.524 0.407715C126.79 0.66748 126.923 0.986003 126.923 1.36328C126.923 1.73438 126.79 2.0529 126.524 2.31885C126.258 2.5848 125.934 2.71777 125.55 2.71777ZM133.427 14.5649C132.276 14.5649 131.444 14.3516 130.931 13.9248C130.418 13.4919 130.161 12.7868 130.161 11.8096V6.17822H128.612V4.3877H130.161V1.90137H132.508V4.3877H134.624V6.17822H132.508V11.29C132.508 11.7972 132.613 12.1652 132.824 12.394C133.04 12.6167 133.387 12.728 133.863 12.728C134.024 12.728 134.157 12.7249 134.262 12.7188C134.373 12.7064 134.494 12.694 134.624 12.6816V14.4629C134.463 14.4876 134.28 14.5093 134.076 14.5278C133.872 14.5526 133.656 14.5649 133.427 14.5649ZM136.961 14.5V0.500488H139.271V5.94629H139.42C139.661 5.40202 140.026 4.97526 140.515 4.66602C141.009 4.35059 141.622 4.19287 142.352 4.19287C143.106 4.19287 143.74 4.34131 144.253 4.63818C144.773 4.93506 145.169 5.36491 145.441 5.92773C145.713 6.49056 145.849 7.17399 145.849 7.97803V14.5H143.539V8.50684C143.539 7.72135 143.372 7.1307 143.038 6.73486C142.704 6.33285 142.191 6.13184 141.498 6.13184C141.04 6.13184 140.645 6.23389 140.311 6.43799C139.977 6.64209 139.72 6.92969 139.541 7.30078C139.361 7.66569 139.271 8.10173 139.271 8.60889V14.5H136.961ZM152.714 14.5L157.474 1.11279H159.45V3.58984H158.745L155.219 14.5H152.714ZM155.108 11.0396L155.739 9.19336H161.871L162.502 11.0396H155.108ZM162.409 14.5L158.893 3.58984V1.11279H160.164L164.923 14.5H162.409ZM166.909 17.8584V4.3877H169.219V5.99268H169.367C169.553 5.6154 169.794 5.29688 170.091 5.03711C170.394 4.77734 170.743 4.57633 171.139 4.43408C171.535 4.29183 171.971 4.2207 172.447 4.2207C173.295 4.2207 174.028 4.43408 174.646 4.86084C175.271 5.2876 175.753 5.89062 176.093 6.66992C176.433 7.44303 176.604 8.36458 176.604 9.43457V9.45312C176.604 10.5293 176.433 11.457 176.093 12.2363C175.759 13.0156 175.28 13.6156 174.655 14.0361C174.037 14.4567 173.301 14.667 172.447 14.667C171.983 14.667 171.55 14.5959 171.148 14.4536C170.746 14.3052 170.394 14.098 170.091 13.832C169.788 13.5661 169.547 13.2507 169.367 12.8857H169.219V17.8584H166.909ZM171.724 12.728C172.249 12.728 172.701 12.5981 173.078 12.3384C173.455 12.0724 173.743 11.6951 173.941 11.2065C174.145 10.7118 174.247 10.1273 174.247 9.45312V9.43457C174.247 8.75423 174.145 8.16976 173.941 7.68115C173.743 7.19255 173.455 6.81836 173.078 6.55859C172.701 6.29883 172.249 6.16895 171.724 6.16895C171.21 6.16895 170.762 6.30192 170.378 6.56787C169.995 6.82764 169.701 7.20182 169.497 7.69043C169.293 8.17285 169.191 8.75423 169.191 9.43457V9.45312C169.191 10.1273 169.293 10.7087 169.497 11.1973C169.707 11.6859 170.001 12.0632 170.378 12.3291C170.762 12.5951 171.21 12.728 171.724 12.728ZM178.858 17.8584V4.3877H181.168V5.99268H181.316C181.502 5.6154 181.743 5.29688 182.04 5.03711C182.343 4.77734 182.693 4.57633 183.088 4.43408C183.484 4.29183 183.92 4.2207 184.396 4.2207C185.244 4.2207 185.977 4.43408 186.595 4.86084C187.22 5.2876 187.702 5.89062 188.042 6.66992C188.383 7.44303 188.553 8.36458 188.553 9.43457V9.45312C188.553 10.5293 188.383 11.457 188.042 12.2363C187.708 13.0156 187.229 13.6156 186.604 14.0361C185.986 14.4567 185.25 14.667 184.396 14.667C183.933 14.667 183.5 14.5959 183.098 14.4536C182.696 14.3052 182.343 14.098 182.04 13.832C181.737 13.5661 181.496 13.2507 181.316 12.8857H181.168V17.8584H178.858ZM183.673 12.728C184.199 12.728 184.65 12.5981 185.027 12.3384C185.405 12.0724 185.692 11.6951 185.89 11.2065C186.094 10.7118 186.196 10.1273 186.196 9.45312V9.43457C186.196 8.75423 186.094 8.16976 185.89 7.68115C185.692 7.19255 185.405 6.81836 185.027 6.55859C184.65 6.29883 184.199 6.16895 183.673 6.16895C183.16 6.16895 182.711 6.30192 182.328 6.56787C181.944 6.82764 181.65 7.20182 181.446 7.69043C181.242 8.17285 181.14 8.75423 181.14 9.43457V9.45312C181.14 10.1273 181.242 10.7087 181.446 11.1973C181.657 11.6859 181.95 12.0632 182.328 12.3291C182.711 12.5951 183.16 12.728 183.673 12.728ZM190.9 14.5V0.500488H193.21V14.5H190.9ZM200.381 14.7041C199.379 14.7041 198.517 14.4907 197.793 14.064C197.076 13.6372 196.522 13.0342 196.132 12.2549C195.743 11.4694 195.548 10.5417 195.548 9.47168V9.4624C195.548 8.3986 195.74 7.47396 196.123 6.68848C196.513 5.89681 197.063 5.28451 197.774 4.85156C198.486 4.41243 199.318 4.19287 200.27 4.19287C201.235 4.19287 202.064 4.40316 202.756 4.82373C203.455 5.2443 203.99 5.83496 204.361 6.5957C204.739 7.35645 204.927 8.24398 204.927 9.2583V10.019H196.708V8.479H203.805L202.701 9.92627V9.00781C202.701 8.33366 202.599 7.77702 202.395 7.33789C202.19 6.89258 201.909 6.55859 201.55 6.33594C201.192 6.11328 200.774 6.00195 200.298 6.00195C199.828 6.00195 199.407 6.11637 199.036 6.34521C198.671 6.57406 198.381 6.91423 198.164 7.36572C197.954 7.81104 197.849 8.3584 197.849 9.00781V9.92627C197.849 10.5509 197.954 11.0859 198.164 11.5312C198.374 11.9704 198.671 12.3075 199.055 12.5425C199.444 12.7775 199.902 12.895 200.428 12.895C200.842 12.895 201.198 12.8363 201.495 12.7188C201.792 12.5951 202.033 12.4466 202.218 12.2734C202.41 12.1003 202.54 11.9364 202.608 11.7817L202.645 11.7075H204.825L204.807 11.8003C204.726 12.1281 204.578 12.4621 204.361 12.8022C204.151 13.1424 203.863 13.4578 203.499 13.7485C203.14 14.033 202.701 14.265 202.181 14.4443C201.662 14.6175 201.062 14.7041 200.381 14.7041Z" fill="white"/>
</svg>
