<svg width="24" height="24" viewBox="0 0 24 24" fill="none" xmlns="http://www.w3.org/2000/svg">
<g id="Mobile-Icon" clip-path="url(#clip0_2283_397)">
<path id="Vector" fill-rule="evenodd" clip-rule="evenodd" d="M21 6.75V21C21 21.7956 20.6839 22.5587 20.1213 23.1213C19.5587 23.6839 18.7956 24 18 24V22.5C18.3978 22.5 18.7794 22.342 19.0607 22.0607C19.342 21.7794 19.5 21.3978 19.5 21V6.75H16.5C15.9033 6.75 15.331 6.51295 14.909 6.09099C14.4871 5.66903 14.25 5.09674 14.25 4.5V1.5H6C5.60218 1.5 5.22064 1.65804 4.93934 1.93934C4.65804 2.22064 4.5 2.60218 4.5 3V16.5H3V3C3 2.20435 3.31607 1.44129 3.87868 0.87868C4.44129 0.316071 5.20435 0 6 0L14.25 0L21 6.75ZM9.2415 20.499V21.282C9.2415 21.666 9.183 21.9865 9.066 22.2435C8.96651 22.4808 8.7983 22.683 8.583 22.824C8.37025 22.9503 8.12689 23.0157 7.8795 23.013C7.6311 23.0162 7.38662 22.9508 7.173 22.824C6.95965 22.6823 6.79271 22.4809 6.693 22.245C6.56682 21.9401 6.507 21.6118 6.5175 21.282V20.499C6.5175 20.113 6.576 19.7925 6.693 19.5375C6.79246 19.301 6.95942 19.0991 7.173 18.957C7.3852 18.8264 7.63036 18.7592 7.8795 18.7635C8.1435 18.7635 8.378 18.8285 8.583 18.9585C8.79807 19.0991 8.96626 19.3007 9.066 19.5375C9.183 19.7925 9.2415 20.113 9.2415 20.499ZM10.446 21.2775V20.508C10.446 19.943 10.3435 19.457 10.1385 19.05C9.94588 18.6532 9.63794 18.3238 9.255 18.105C8.874 17.885 8.4155 17.775 7.8795 17.775C7.3465 17.775 6.8865 17.885 6.4995 18.105C6.11605 18.3212 5.80779 18.6493 5.616 19.0455C5.412 19.4515 5.3095 19.939 5.3085 20.508V21.2775C5.3085 21.8405 5.411 22.327 5.616 22.737C5.821 23.143 6.116 23.4565 6.501 23.6775C6.887 23.8935 7.347 24.0015 7.881 24.0015C8.416 24.0015 8.874 23.8935 9.255 23.6775C9.638 23.4575 9.933 23.144 10.14 22.737C10.344 22.327 10.446 21.8405 10.446 21.2775ZM0 17.889V23.889H2.1885C2.7915 23.889 3.291 23.77 3.687 23.532C4.08773 23.2922 4.40066 22.9299 4.5795 22.4985C4.7755 22.0485 4.8735 21.5065 4.8735 20.8725C4.8735 20.2425 4.7755 19.705 4.5795 19.26C4.40201 18.8336 4.09162 18.4758 3.6945 18.24C3.2995 18.006 2.7975 17.889 2.1885 17.889H0ZM1.1865 18.8565H2.031C2.402 18.8565 2.7065 18.9325 2.9445 19.0845C3.19129 19.2472 3.37783 19.4865 3.4755 19.7655C3.5935 20.0675 3.6525 20.444 3.6525 20.895C3.65715 21.1942 3.62286 21.4927 3.5505 21.783C3.49876 22.0126 3.39852 22.2284 3.2565 22.416C3.12599 22.5842 2.95308 22.7147 2.7555 22.794C2.52398 22.8805 2.27811 22.9223 2.031 22.917H1.185V18.855L1.1865 18.8565ZM12.3195 19.581C12.2082 19.8848 12.1558 20.2071 12.165 20.5305V21.273C12.165 21.642 12.2165 21.9555 12.3195 22.2135C12.4053 22.4508 12.5612 22.6563 12.7665 22.803C12.9807 22.9383 13.2303 23.0067 13.4835 22.9995C13.6915 23.0024 13.8973 22.9573 14.085 22.8675C14.2523 22.7823 14.3937 22.6539 14.4945 22.4955C14.5963 22.3304 14.6565 22.143 14.67 21.9495H15.8175V22.0635C15.803 22.4259 15.6854 22.7766 15.4785 23.0745C15.2735 23.3645 14.9985 23.5915 14.6535 23.7555C14.284 23.9252 13.881 24.0093 13.4745 24.0015C12.9345 24.0015 12.4775 23.8935 12.1035 23.6775C11.7276 23.4601 11.4284 23.1315 11.247 22.737C11.053 22.329 10.956 21.841 10.956 21.273V20.526C10.956 19.958 11.0545 19.469 11.2515 19.059C11.4465 18.648 11.732 18.3315 12.108 18.1095C12.486 17.8865 12.9415 17.775 13.4745 17.775C13.8025 17.775 14.106 17.8235 14.385 17.9205C14.665 18.0135 14.9095 18.1495 15.1185 18.3285C15.3289 18.5079 15.4996 18.7291 15.6199 18.9781C15.7403 19.227 15.8075 19.4982 15.8175 19.7745V19.884H14.67C14.656 19.6824 14.5943 19.4871 14.49 19.314C14.3919 19.1484 14.2503 19.013 14.0805 18.9225C13.8975 18.823 13.6918 18.7729 13.4835 18.777C13.2301 18.769 12.9807 18.8415 12.771 18.984C12.5654 19.1346 12.4085 19.3422 12.3195 19.581Z" fill="#0766F1"/>
</g>
<defs>
<clipPath id="clip0_2283_397">
<rect width="24" height="24" fill="white"/>
</clipPath>
</defs>
</svg>
