<svg width="24" height="24" viewBox="0 0 24 24" fill="none" xmlns="http://www.w3.org/2000/svg">
<g id="Mobile-Icon">
<path id="Union" fill-rule="evenodd" clip-rule="evenodd" d="M11.7125 17.9441C11.6214 17.9063 11.5386 17.8508 11.469 17.781L6.96897 13.281C6.82814 13.1402 6.74902 12.9492 6.74902 12.75C6.74902 12.5508 6.82814 12.3598 6.96897 12.219C7.1098 12.0782 7.30081 11.9991 7.49997 11.9991C7.69913 11.9991 7.89014 12.0782 8.03097 12.219L11.25 15.4395V2.25C11.25 2.05109 11.329 1.86032 11.4696 1.71967C11.6103 1.57902 11.8011 1.5 12 1.5C12.1989 1.5 12.3896 1.57902 12.5303 1.71967C12.671 1.86032 12.75 2.05109 12.75 2.25V15.4395L15.969 12.219C16.1098 12.0782 16.3008 11.9991 16.5 11.9991C16.6991 11.9991 16.8901 12.0782 17.031 12.219C17.1718 12.3598 17.2509 12.5508 17.2509 12.75C17.2509 12.9492 17.1718 13.1402 17.031 13.281L12.531 17.781C12.4613 17.8508 12.3785 17.9063 12.2874 17.9441C12.1963 17.9819 12.0986 18.0013 12 18.0013C11.9013 18.0013 11.8036 17.9819 11.7125 17.9441ZM1.28033 15.0696C1.13968 14.929 0.948912 14.85 0.75 14.85C0.551088 14.85 0.360322 14.929 0.21967 15.0696C0.0790176 15.2103 0 15.4011 0 15.6V19.35C0 20.1456 0.316071 20.9087 0.87868 21.4713C1.44129 22.0339 2.20435 22.35 3 22.35H21C21.7956 22.35 22.5587 22.0339 23.1213 21.4713C23.6839 20.9087 24 20.1456 24 19.35V15.6C24 15.4011 23.921 15.2103 23.7803 15.0696C23.6397 14.929 23.4489 14.85 23.25 14.85C23.0511 14.85 22.8603 14.929 22.7197 15.0696C22.579 15.2103 22.5 15.4011 22.5 15.6V19.35C22.5 19.7478 22.342 20.1293 22.0607 20.4106C21.7794 20.6919 21.3978 20.85 21 20.85H3C2.60218 20.85 2.22064 20.6919 1.93934 20.4106C1.65804 20.1293 1.5 19.7478 1.5 19.35V15.6C1.5 15.4011 1.42098 15.2103 1.28033 15.0696Z" fill="#525252"/>
</g>
</svg>
