<svg width="16" height="16" viewBox="0 0 16 16" fill="none" xmlns="http://www.w3.org/2000/svg">
<path d="M8.06001 6.5C8.19261 6.5 8.31979 6.55268 8.41356 6.64645C8.50733 6.74021 8.56001 6.86739 8.56001 7V7.776C8.55989 8.97055 8.37366 10.1578 8.00801 11.295L6.67701 15.435C6.63403 15.5581 6.54468 15.6595 6.42801 15.7177C6.31133 15.7758 6.17656 15.7861 6.05241 15.7463C5.92826 15.7066 5.82455 15.6199 5.76339 15.5047C5.70223 15.3896 5.68846 15.2551 5.72501 15.13L7.05501 10.989C7.38886 9.95068 7.5589 8.86668 7.55901 7.776V7C7.55901 6.86739 7.61168 6.74021 7.70545 6.64645C7.79922 6.55268 7.9264 6.5 8.05901 6.5H8.06001Z" fill="#0766F1"/>
<path d="M6.05995 7C6.05995 6.73736 6.11168 6.47728 6.21219 6.23463C6.3127 5.99198 6.46002 5.7715 6.64573 5.58579C6.83145 5.40007 7.05193 5.25275 7.29458 5.15224C7.53723 5.05173 7.7973 5 8.05995 5C8.32259 5 8.58266 5.05173 8.82532 5.15224C9.06797 5.25275 9.28844 5.40007 9.47416 5.58579C9.65988 5.7715 9.8072 5.99198 9.90771 6.23463C10.0082 6.47728 10.0599 6.73736 10.0599 7C10.0599 7.13261 10.0073 7.25978 9.9135 7.35355C9.81973 7.44732 9.69256 7.5 9.55995 7.5C9.42734 7.5 9.30016 7.44732 9.2064 7.35355C9.11263 7.25978 9.05995 7.13261 9.05995 7C9.05995 6.73478 8.95459 6.48043 8.76706 6.29289C8.57952 6.10536 8.32517 6 8.05995 6C7.79473 6 7.54038 6.10536 7.35284 6.29289C7.16531 6.48043 7.05995 6.73478 7.05995 7V7.332C7.05995 7.74067 7.03795 8.14767 6.99395 8.553C6.97664 8.68212 6.90963 8.79938 6.80717 8.87984C6.70471 8.96029 6.5749 8.99758 6.44536 8.98377C6.31582 8.96995 6.19679 8.90613 6.1136 8.80588C6.03041 8.70562 5.98963 8.57686 5.99995 8.447C6.03995 8.077 6.05995 7.70533 6.05995 7.332V7ZM9.56895 8C9.63462 8.00168 9.69931 8.01629 9.75933 8.04299C9.81935 8.06969 9.87352 8.10795 9.91875 8.15559C9.96397 8.20323 9.99937 8.25932 10.0229 8.32064C10.0465 8.38197 10.0577 8.44733 10.0559 8.513C10.0263 9.64889 9.8285 10.7741 9.46895 11.852L8.20295 15.652C8.16091 15.7778 8.0706 15.8818 7.95189 15.9411C7.83318 16.0004 7.69579 16.01 7.56995 15.968C7.4441 15.926 7.34011 15.8357 7.28085 15.7169C7.22159 15.5982 7.21191 15.4608 7.25395 15.335L8.52095 11.535C8.84884 10.551 9.02914 9.52385 9.05595 8.487C9.05763 8.42133 9.07224 8.35664 9.09894 8.29662C9.12564 8.2366 9.1639 8.18243 9.21154 8.1372C9.25918 8.09198 9.31527 8.05658 9.37659 8.03304C9.43792 8.0095 9.50328 7.99827 9.56895 8ZM6.21295 10.115C6.27575 10.1344 6.33411 10.166 6.38469 10.2079C6.43528 10.2499 6.47709 10.3014 6.50774 10.3596C6.53839 10.4177 6.55728 10.4813 6.56332 10.5468C6.56936 10.6122 6.56244 10.6782 6.54295 10.741L5.23995 14.939C5.22148 15.0028 5.19047 15.0624 5.14873 15.1141C5.10699 15.1658 5.05536 15.2087 4.99686 15.2402C4.93836 15.2717 4.87415 15.2913 4.80801 15.2977C4.74186 15.3041 4.6751 15.2973 4.61162 15.2776C4.54814 15.258 4.48922 15.2258 4.4383 15.1831C4.38739 15.1404 4.3455 15.088 4.31508 15.0289C4.28467 14.9698 4.26633 14.9052 4.26116 14.839C4.25599 14.7727 4.26407 14.7061 4.28495 14.643L5.58795 10.444C5.62733 10.3176 5.71525 10.2119 5.83242 10.1503C5.94959 10.0886 6.08644 10.0759 6.21295 10.115Z" fill="#0766F1"/>
<path d="M4.75902 5.83304C5.03519 5.05565 5.57702 4.40076 6.28893 3.98389C7.00084 3.56702 7.8371 3.41494 8.6502 3.55448C9.46329 3.69402 10.201 4.11622 10.7332 4.7466C11.2654 5.37699 11.5578 6.17505 11.559 7.00004C11.559 7.13265 11.5063 7.25982 11.4126 7.35359C11.3188 7.44736 11.1916 7.50004 11.059 7.50004C10.9264 7.50004 10.7992 7.44736 10.7055 7.35359C10.6117 7.25982 10.559 7.13265 10.559 7.00004C10.5589 6.41034 10.3504 5.83966 9.97023 5.38884C9.59009 4.93802 9.06282 4.63609 8.48161 4.53641C7.90039 4.43673 7.30265 4.54571 6.79402 4.8441C6.28538 5.14249 5.8986 5.61107 5.70202 6.16704C5.65773 6.29209 5.56557 6.39442 5.44583 6.45153C5.32609 6.50863 5.18857 6.51583 5.06352 6.47154C4.93847 6.42725 4.83613 6.3351 4.77903 6.21535C4.72192 6.09561 4.71473 5.95809 4.75902 5.83304ZM5.05902 7.50304C5.19095 7.51594 5.31235 7.5807 5.39655 7.68309C5.48075 7.78547 5.52084 7.9171 5.50802 8.04904C5.44064 8.73738 5.30668 9.41756 5.10802 10.08L3.88602 14.152C3.84796 14.2791 3.76099 14.3858 3.64425 14.4487C3.52751 14.5116 3.39056 14.5256 3.26352 14.4875C3.13648 14.4495 3.02976 14.3625 2.96684 14.2458C2.90392 14.129 2.88996 13.9921 2.92802 13.865L4.15002 9.79304C4.33029 9.19222 4.45186 8.57533 4.51302 7.95104C4.52592 7.81911 4.59068 7.6977 4.69306 7.6135C4.79545 7.52931 4.92708 7.49021 5.05902 7.50304ZM11.059 8.15004C11.1916 8.15004 11.3188 8.20272 11.4126 8.29649C11.5063 8.39025 11.559 8.51743 11.559 8.65004C11.559 9.93004 11.346 11.202 10.927 12.412L9.83702 15.557C9.78954 15.6768 9.6977 15.7736 9.58062 15.8273C9.46354 15.8809 9.33026 15.8874 9.20856 15.8452C9.08685 15.8031 8.98611 15.7156 8.92733 15.601C8.86854 15.4864 8.85625 15.3535 8.89302 15.23L9.98202 12.085C10.364 10.98 10.56 9.81904 10.56 8.65004C10.56 8.51743 10.6127 8.39025 10.7065 8.29649C10.8002 8.20272 10.9274 8.15004 11.06 8.15004H11.059Z" fill="#0766F1"/>
<path d="M3.90202 4.22198C4.45795 3.38951 5.25097 2.74307 6.17842 2.36635C7.10587 1.98963 8.12504 1.89997 9.10402 2.10898C9.1683 2.12264 9.22926 2.14882 9.28343 2.18604C9.33759 2.22326 9.38389 2.27078 9.41969 2.32589C9.45548 2.381 9.48007 2.44262 9.49206 2.50724C9.50404 2.57185 9.50318 2.6382 9.48952 2.70248C9.47586 2.76676 9.44968 2.82772 9.41246 2.88189C9.37524 2.93605 9.32772 2.98235 9.27261 3.01815C9.2175 3.05394 9.15587 3.07854 9.09126 3.09052C9.02664 3.1025 8.9603 3.10164 8.89602 3.08798C8.11267 2.92043 7.29706 2.99195 6.55482 3.29326C5.81258 3.59458 5.17792 4.11182 4.73302 4.77798C4.65823 4.88565 4.54414 4.95965 4.41533 4.98403C4.28651 5.0084 4.15328 4.98121 4.04432 4.90831C3.93535 4.83541 3.85939 4.72262 3.83277 4.59425C3.80615 4.46588 3.83102 4.33219 3.90202 4.22198ZM10.622 3.26698C10.7086 3.16663 10.8316 3.10478 10.9638 3.09502C11.096 3.08527 11.2266 3.12842 11.327 3.21498C11.8712 3.68402 12.3076 4.26502 12.6065 4.91826C12.9054 5.57151 13.0598 6.28159 13.059 6.99998V8.49998C13.059 8.63259 13.0063 8.75976 12.9126 8.85353C12.8188 8.9473 12.6916 8.99998 12.559 8.99998C12.4264 8.99998 12.2992 8.9473 12.2055 8.85353C12.1117 8.75976 12.059 8.63259 12.059 8.49998V6.99998C12.0597 6.42522 11.9362 5.85709 11.697 5.33447C11.4578 4.81185 11.1085 4.34709 10.673 3.97198C10.5728 3.88523 10.5111 3.76223 10.5016 3.63004C10.492 3.49784 10.5353 3.36725 10.622 3.26698ZM3.68002 5.84198C3.74504 5.85152 3.80755 5.87379 3.86396 5.90751C3.92037 5.94123 3.96958 5.98574 4.00877 6.03849C4.04797 6.09125 4.07638 6.15121 4.09238 6.21495C4.10838 6.2787 4.11165 6.34497 4.10202 6.40998C4.07268 6.60265 4.05802 6.79931 4.05802 6.99998C4.05802 7.70998 3.95802 8.41698 3.76002 9.09998L2.62002 13.023C2.60293 13.0874 2.57314 13.1478 2.53239 13.2005C2.49164 13.2533 2.44075 13.2973 2.38272 13.3301C2.32469 13.3629 2.26069 13.3838 2.19448 13.3915C2.12827 13.3992 2.06119 13.3936 1.99718 13.375C1.93317 13.3564 1.87353 13.3252 1.82176 13.2832C1.76999 13.2412 1.72714 13.1893 1.69573 13.1305C1.66431 13.0717 1.64497 13.0072 1.63884 12.9408C1.63271 12.8745 1.63991 12.8075 1.66002 12.744L2.80002 8.82098C2.97189 8.22928 3.05876 7.61614 3.05802 6.99998C3.05802 6.74998 3.07602 6.50465 3.11202 6.26398C3.12156 6.19896 3.14383 6.13645 3.17755 6.08004C3.21127 6.02363 3.25578 5.97442 3.30853 5.93522C3.36129 5.89603 3.42125 5.86762 3.48499 5.85162C3.54874 5.83562 3.61501 5.83234 3.68002 5.84198ZM12.562 9.50198C12.6941 9.51318 12.8163 9.57634 12.9018 9.6776C12.9873 9.77886 13.0291 9.90991 13.018 10.042C12.934 11.042 12.72 12.028 12.378 12.976L11.634 15.044C11.5876 15.1667 11.4949 15.2662 11.3758 15.3212C11.2567 15.3761 11.1207 15.3821 10.9973 15.3377C10.8738 15.2934 10.7728 15.2023 10.7158 15.0841C10.6589 14.966 10.6507 14.8301 10.693 14.706L11.438 12.636C11.7489 11.7727 11.9452 10.8723 12.022 9.95798C12.0332 9.82593 12.0964 9.70372 12.1976 9.61821C12.2989 9.53271 12.43 9.4909 12.562 9.50198Z" fill="#0766F1"/>
<path d="M4.80998 1.36998C5.79817 0.799451 6.91913 0.499109 8.06019 0.499146C9.20125 0.499182 10.3222 0.799596 11.3103 1.37019C12.2985 1.94078 13.119 2.76145 13.6895 3.74969C14.2599 4.73793 14.5601 5.85892 14.56 6.99998C14.56 7.13259 14.5073 7.25977 14.4135 7.35353C14.3198 7.4473 14.1926 7.49998 14.06 7.49998C13.9274 7.49998 13.8002 7.4473 13.7064 7.35353C13.6127 7.25977 13.56 7.13259 13.56 6.99998C13.5603 6.03437 13.3064 5.08569 12.8238 4.24933C12.3412 3.41296 11.6469 2.71839 10.8108 2.23545C9.97463 1.7525 9.02606 1.4982 8.06045 1.49812C7.09484 1.49804 6.14622 1.75218 5.30998 2.23498C5.19571 2.29476 5.06276 2.30807 4.93891 2.27214C4.81505 2.23621 4.70987 2.15381 4.64534 2.04216C4.5808 1.93051 4.56189 1.79824 4.59258 1.67298C4.62326 1.54772 4.70115 1.43916 4.80998 1.36998ZM3.91998 2.62698C3.96897 2.67071 4.00886 2.72366 4.03738 2.78281C4.0659 2.84195 4.08249 2.90614 4.08621 2.9717C4.08992 3.03725 4.08069 3.1029 4.05903 3.16489C4.03737 3.22688 4.00371 3.284 3.95998 3.33298C3.05655 4.34052 2.55786 5.64671 2.55998 6.99998C2.55998 7.13259 2.5073 7.25977 2.41354 7.35353C2.31977 7.4473 2.19259 7.49998 2.05998 7.49998C1.92737 7.49998 1.8002 7.4473 1.70643 7.35353C1.61266 7.25977 1.55998 7.13259 1.55998 6.99998C1.55998 5.33598 2.18598 3.81598 3.21498 2.66698C3.25871 2.618 3.31166 2.5781 3.37081 2.54958C3.42995 2.52106 3.49414 2.50447 3.5597 2.50076C3.62526 2.49704 3.6909 2.50628 3.75289 2.52793C3.81488 2.54959 3.871 2.58325 3.91998 2.62698ZM1.91498 8.01998C2.04249 8.05588 2.15054 8.14091 2.21541 8.25641C2.28028 8.3719 2.29667 8.50841 2.26098 8.63598L1.48198 11.403C1.46643 11.4685 1.43779 11.5303 1.39778 11.5845C1.35778 11.6387 1.30722 11.6843 1.24917 11.7184C1.19111 11.7526 1.12674 11.7747 1.05993 11.7834C0.993117 11.7921 0.925239 11.7872 0.860372 11.769C0.795504 11.7508 0.734985 11.7196 0.682449 11.6775C0.629913 11.6353 0.586444 11.5829 0.554652 11.5235C0.522859 11.4641 0.5034 11.3989 0.497442 11.3318C0.491484 11.2647 0.499151 11.1971 0.519982 11.133L1.29798 8.36598C1.31575 8.30273 1.34581 8.24361 1.38644 8.19199C1.42708 8.14036 1.47748 8.09725 1.53478 8.06512C1.59208 8.03299 1.65515 8.01246 1.72039 8.00472C1.78563 7.99697 1.85175 8.00216 1.91498 8.01998ZM14.065 8.50098C14.1306 8.50228 14.1954 8.51651 14.2556 8.54284C14.3157 8.56918 14.3701 8.60711 14.4156 8.65447C14.4611 8.70183 14.4969 8.75769 14.5208 8.81886C14.5447 8.88003 14.5563 8.94532 14.555 9.01098C14.525 10.51 14.394 12.036 13.828 13.544L13.758 13.731C13.709 13.8517 13.6148 13.9486 13.4955 14.001C13.3761 14.0533 13.2411 14.057 13.1191 14.0112C12.9971 13.9655 12.8977 13.8739 12.8422 13.756C12.7867 13.6381 12.7795 13.5032 12.822 13.38L12.892 13.193C13.398 11.843 13.526 10.453 13.555 8.99098C13.5563 8.92531 13.5705 8.86055 13.5968 8.80038C13.6232 8.74022 13.6611 8.68583 13.7085 8.64033C13.7558 8.59482 13.8117 8.5591 13.8729 8.53519C13.934 8.51128 13.9993 8.49965 14.065 8.50098Z" fill="#0766F1"/>
</svg>
