<svg width="157" height="20" viewBox="0 0 157 20" fill="none" xmlns="http://www.w3.org/2000/svg">
<mask id="mask0_8874_13816" style="mask-type:luminance" maskUnits="userSpaceOnUse" x="0" y="0" width="20" height="20">
<path d="M20 0H0V20H20V0Z" fill="white"/>
</mask>
<g mask="url(#mask0_8874_13816)">
<path d="M19.6 10.2273C19.6 9.5182 19.5364 8.8364 19.4182 8.1818H10V12.05H15.3818C15.15 13.3 14.4455 14.3591 13.3864 15.0682V17.5773H16.6182C18.5091 15.8364 19.6 13.2727 19.6 10.2273Z" fill="#4285F4"/>
<path d="M9.99988 20C12.6999 20 14.9635 19.1045 16.6181 17.5773L13.3863 15.0682C12.4908 15.6682 11.3453 16.0227 9.99988 16.0227C7.39528 16.0227 5.19078 14.2636 4.40438 11.9H1.06348V14.4909C2.70898 17.7591 6.09078 20 9.99988 20Z" fill="#34A853"/>
<path d="M4.4045 11.9C4.2045 11.3 4.0909 10.6591 4.0909 10C4.0909 9.3409 4.2045 8.7 4.4045 8.1V5.5091H1.0636C0.386401 6.8591 0 8.3864 0 10C0 11.6136 0.386401 13.1409 1.0636 14.4909L4.4045 11.9Z" fill="#FBBC04"/>
<path d="M9.99988 3.9773C11.4681 3.9773 12.7862 4.4818 13.8226 5.4727L16.6908 2.6045C14.959 0.9909 12.6953 0 9.99988 0C6.09078 0 2.70898 2.2409 1.06348 5.5091L4.40438 8.1C5.19078 5.7364 7.39528 3.9773 9.99988 3.9773Z" fill="#E94235"/>
</g>
<path d="M38.248 12.4365C38.248 12.2314 38.2161 12.0492 38.1523 11.8896C38.0931 11.7301 37.986 11.5843 37.8311 11.4521C37.6761 11.32 37.4574 11.1924 37.1748 11.0693C36.8968 10.9417 36.5413 10.8118 36.1084 10.6797C35.6344 10.5339 35.1969 10.3721 34.7959 10.1943C34.3994 10.012 34.0531 9.8024 33.7568 9.5654C33.4606 9.3239 33.2305 9.0482 33.0664 8.7383C32.9023 8.4238 32.8203 8.0615 32.8203 7.6514C32.8203 7.2458 32.9046 6.8766 33.0732 6.5439C33.2464 6.2113 33.4902 5.9242 33.8047 5.6826C34.1237 5.4365 34.4997 5.2474 34.9326 5.1152C35.3656 4.9785 35.8441 4.9102 36.3682 4.9102C37.1064 4.9102 37.7422 5.0469 38.2754 5.3203C38.8132 5.5938 39.2256 5.9606 39.5127 6.4209C39.8044 6.8812 39.9502 7.3893 39.9502 7.9453H38.248C38.248 7.6172 38.1774 7.3278 38.0361 7.0771C37.8994 6.8219 37.6898 6.6214 37.4072 6.4756C37.1292 6.3298 36.776 6.2568 36.3477 6.2568C35.9421 6.2568 35.6048 6.3184 35.3359 6.4414C35.0671 6.5645 34.8665 6.7308 34.7344 6.9404C34.6022 7.1501 34.5361 7.387 34.5361 7.6514C34.5361 7.8382 34.5794 8.0091 34.666 8.1641C34.7526 8.3145 34.8848 8.4557 35.0625 8.5879C35.2402 8.7155 35.4635 8.8363 35.7324 8.9502C36.0013 9.0641 36.318 9.1735 36.6826 9.2783C37.234 9.4424 37.7148 9.6247 38.125 9.8252C38.5352 10.0212 38.877 10.2445 39.1504 10.4951C39.4238 10.7458 39.6289 11.0306 39.7656 11.3496C39.9023 11.6641 39.9707 12.0218 39.9707 12.4229C39.9707 12.8421 39.8864 13.2204 39.7178 13.5576C39.5492 13.8903 39.3076 14.1751 38.9932 14.4121C38.6833 14.6445 38.3096 14.8245 37.8721 14.9521C37.4391 15.0752 36.9561 15.1367 36.4229 15.1367C35.9443 15.1367 35.4727 15.0729 35.0078 14.9453C34.5475 14.8177 34.1283 14.624 33.75 14.3643C33.3717 14.0999 33.071 13.7718 32.8477 13.3799C32.6243 12.9834 32.5127 12.5208 32.5127 11.9922H34.2285C34.2285 12.3158 34.2832 12.5915 34.3926 12.8193C34.5065 13.0472 34.6637 13.234 34.8643 13.3799C35.0648 13.5212 35.2972 13.626 35.5615 13.6943C35.8304 13.7627 36.1175 13.7969 36.4229 13.7969C36.8239 13.7969 37.1589 13.7399 37.4277 13.626C37.7012 13.512 37.9062 13.3525 38.043 13.1475C38.1797 12.9424 38.248 12.7054 38.248 12.4365ZM43.0879 7.6035V15H41.4336V7.6035H43.0879ZM41.3242 5.6621C41.3242 5.4115 41.4062 5.2041 41.5703 5.04C41.7389 4.8714 41.9714 4.7871 42.2676 4.7871C42.5592 4.7871 42.7894 4.8714 42.958 5.04C43.1266 5.2041 43.2109 5.4115 43.2109 5.6621C43.2109 5.9082 43.1266 6.1133 42.958 6.2773C42.7894 6.4414 42.5592 6.5234 42.2676 6.5234C41.9714 6.5234 41.7389 6.4414 41.5703 6.2773C41.4062 6.1133 41.3242 5.9082 41.3242 5.6621ZM49.6299 7.6035H51.127V14.7949C51.127 15.4603 50.9857 16.0254 50.7031 16.4902C50.4206 16.9551 50.0264 17.3083 49.5205 17.5498C49.0146 17.7959 48.429 17.9189 47.7637 17.9189C47.4811 17.9189 47.1667 17.8779 46.8203 17.7959C46.4785 17.7139 46.1458 17.5817 45.8223 17.3994C45.5033 17.2217 45.2367 16.987 45.0225 16.6953L45.7949 15.7246C46.0592 16.0391 46.3509 16.2692 46.6699 16.415C46.9889 16.5609 47.3239 16.6338 47.6748 16.6338C48.0531 16.6338 48.3743 16.5632 48.6387 16.4219C48.9076 16.2852 49.1149 16.0824 49.2607 15.8135C49.4066 15.5446 49.4795 15.2165 49.4795 14.8291V9.2783L49.6299 7.6035ZM44.6055 11.3838V11.2402C44.6055 10.6797 44.6738 10.1693 44.8105 9.709C44.9473 9.2441 45.1432 8.8454 45.3984 8.5127C45.6536 8.1755 45.9635 7.918 46.3281 7.7402C46.6927 7.5579 47.1051 7.4668 47.5654 7.4668C48.0439 7.4668 48.4518 7.5534 48.7891 7.7266C49.1309 7.8997 49.4157 8.1481 49.6436 8.4717C49.8714 8.7907 50.0492 9.1735 50.1768 9.6201C50.3089 10.0622 50.4069 10.5544 50.4707 11.0967V11.5547C50.4115 12.0833 50.3112 12.5664 50.1699 13.0039C50.0286 13.4414 49.8418 13.8197 49.6094 14.1387C49.377 14.4577 49.0898 14.7038 48.748 14.877C48.4108 15.0501 48.012 15.1367 47.5518 15.1367C47.1006 15.1367 46.6927 15.0433 46.3281 14.8564C45.9681 14.6696 45.6582 14.4076 45.3984 14.0703C45.1432 13.7331 44.9473 13.3366 44.8105 12.8809C44.6738 12.4206 44.6055 11.9215 44.6055 11.3838ZM46.2529 11.2402V11.3838C46.2529 11.721 46.2848 12.0355 46.3486 12.3271C46.417 12.6188 46.5195 12.8763 46.6562 13.0996C46.7975 13.3184 46.9753 13.4915 47.1895 13.6191C47.4082 13.7422 47.6657 13.8037 47.9619 13.8037C48.3493 13.8037 48.666 13.7217 48.9121 13.5576C49.1628 13.3936 49.3542 13.1725 49.4863 12.8945C49.623 12.612 49.7188 12.2975 49.7734 11.9512V10.7139C49.7461 10.445 49.6891 10.1943 49.6025 9.9619C49.5205 9.7295 49.4089 9.5267 49.2676 9.3535C49.1263 9.1758 48.9486 9.0391 48.7344 8.9434C48.5202 8.8431 48.2673 8.793 47.9756 8.793C47.6794 8.793 47.4219 8.8568 47.2031 8.9844C46.9844 9.112 46.8044 9.2874 46.6631 9.5107C46.5264 9.734 46.4238 9.9938 46.3555 10.29C46.2871 10.5863 46.2529 10.903 46.2529 11.2402ZM54.4697 9.1826V15H52.8223V7.6035H54.374L54.4697 9.1826ZM54.1758 11.0283L53.6426 11.0215C53.6471 10.4974 53.7201 10.0166 53.8613 9.5791C54.0072 9.1416 54.2077 8.7656 54.4629 8.4512C54.7227 8.1367 55.0326 7.8952 55.3926 7.7266C55.7526 7.5534 56.1536 7.4668 56.5957 7.4668C56.9512 7.4668 57.2725 7.5169 57.5596 7.6172C57.8512 7.7129 58.0996 7.8701 58.3047 8.0889C58.5143 8.3076 58.6738 8.5924 58.7832 8.9434C58.8926 9.2897 58.9473 9.7158 58.9473 10.2217V15H57.293V10.2148C57.293 9.8594 57.2406 9.5791 57.1357 9.374C57.0355 9.1644 56.8874 9.0163 56.6914 8.9297C56.5 8.8385 56.2607 8.793 55.9736 8.793C55.6911 8.793 55.4382 8.8522 55.2148 8.9707C54.9915 9.0892 54.8024 9.251 54.6475 9.4561C54.4971 9.6611 54.3809 9.8981 54.2988 10.167C54.2168 10.4359 54.1758 10.723 54.1758 11.0283ZM68.5654 13.2568V7.6035H70.2197V15H68.6611L68.5654 13.2568ZM68.7979 11.7188L69.3516 11.7051C69.3516 12.2018 69.2969 12.6598 69.1875 13.0791C69.0781 13.4938 68.9095 13.8561 68.6816 14.166C68.4538 14.4714 68.1621 14.7106 67.8066 14.8838C67.4512 15.0524 67.0251 15.1367 66.5283 15.1367C66.1683 15.1367 65.8379 15.0843 65.5371 14.9795C65.2363 14.8747 64.9766 14.7129 64.7578 14.4941C64.5436 14.2754 64.3773 13.9906 64.2588 13.6396C64.1403 13.2887 64.0811 12.8695 64.0811 12.3818V7.6035H65.7285V12.3955C65.7285 12.6644 65.7604 12.89 65.8242 13.0723C65.888 13.25 65.9746 13.3936 66.084 13.5029C66.1934 13.6123 66.321 13.6898 66.4668 13.7354C66.6126 13.7809 66.7676 13.8037 66.9316 13.8037C67.401 13.8037 67.7702 13.7126 68.0391 13.5303C68.3125 13.3434 68.5062 13.0928 68.6201 12.7783C68.7386 12.4639 68.7979 12.1107 68.7979 11.7188ZM73.5625 9.0254V17.8438H71.915V7.6035H73.4326L73.5625 9.0254ZM78.3818 11.2334V11.377C78.3818 11.9147 78.318 12.4137 78.1904 12.874C78.0674 13.3298 77.8828 13.7285 77.6367 14.0703C77.3952 14.4076 77.0967 14.6696 76.7412 14.8564C76.3857 15.0433 75.9756 15.1367 75.5107 15.1367C75.0505 15.1367 74.6471 15.0524 74.3008 14.8838C73.959 14.7106 73.6696 14.4668 73.4326 14.1523C73.1956 13.8379 73.0042 13.4688 72.8584 13.0449C72.7171 12.6165 72.6169 12.1471 72.5576 11.6367V11.083C72.6169 10.5407 72.7171 10.0485 72.8584 9.6064C73.0042 9.1644 73.1956 8.7839 73.4326 8.4648C73.6696 8.1458 73.959 7.8997 74.3008 7.7266C74.6426 7.5534 75.0413 7.4668 75.4971 7.4668C75.9619 7.4668 76.3743 7.5579 76.7344 7.7402C77.0944 7.918 77.3975 8.1732 77.6436 8.5059C77.8896 8.834 78.0742 9.2305 78.1973 9.6953C78.3203 10.1556 78.3818 10.6683 78.3818 11.2334ZM76.7344 11.377V11.2334C76.7344 10.8916 76.7025 10.5749 76.6387 10.2832C76.5749 9.987 76.4746 9.7272 76.3379 9.5039C76.2012 9.2806 76.0257 9.1074 75.8115 8.9844C75.6019 8.8568 75.349 8.793 75.0527 8.793C74.7611 8.793 74.5104 8.8431 74.3008 8.9434C74.0911 9.0391 73.9157 9.1735 73.7744 9.3467C73.6331 9.5199 73.5238 9.7227 73.4463 9.9551C73.3688 10.1829 73.3141 10.4313 73.2822 10.7002V12.0264C73.3369 12.3545 73.4303 12.6553 73.5625 12.9287C73.6947 13.2021 73.8815 13.4209 74.123 13.585C74.3691 13.7445 74.6836 13.8242 75.0664 13.8242C75.3626 13.8242 75.6156 13.7604 75.8252 13.6328C76.0348 13.5052 76.2057 13.3298 76.3379 13.1064C76.4746 12.8786 76.5749 12.6165 76.6387 12.3203C76.7025 12.0241 76.7344 11.7096 76.7344 11.377ZM85.279 13.3594L86.988 7.6035H88.041L87.754 9.3262L86.031 15H85.088L85.279 13.3594ZM84.274 7.6035L85.607 13.3867L85.717 15H84.664L82.6611 7.6035H84.274ZM89.641 13.3184L90.933 7.6035H92.539L90.543 15H89.49L89.641 13.3184ZM88.219 7.6035L89.907 13.291L90.119 15H89.176L87.433 9.3193L87.146 7.6035H88.219ZM95.424 7.6035V15H93.77V7.6035H95.424ZM93.66 5.6621C93.66 5.4115 93.742 5.2041 93.906 5.04C94.075 4.8714 94.307 4.7871 94.604 4.7871C94.895 4.7871 95.125 4.8714 95.294 5.04C95.463 5.2041 95.547 5.4115 95.547 5.6621C95.547 5.9082 95.463 6.1133 95.294 6.2773C95.125 6.4414 94.895 6.5234 94.604 6.5234C94.307 6.5234 94.075 6.4414 93.906 6.2773C93.742 6.1133 93.66 5.9082 93.66 5.6621ZM100.619 7.6035V8.8066H96.449V7.6035H100.619ZM97.652 5.792H99.3V12.9561C99.3 13.1839 99.332 13.3594 99.396 13.4824C99.464 13.6009 99.557 13.6807 99.676 13.7217C99.794 13.7627 99.933 13.7832 100.093 13.7832C100.207 13.7832 100.316 13.7764 100.421 13.7627C100.526 13.749 100.61 13.7354 100.674 13.7217L100.681 14.9795C100.544 15.0205 100.384 15.057 100.202 15.0889C100.024 15.1208 99.819 15.1367 99.587 15.1367C99.209 15.1367 98.874 15.0706 98.582 14.9385C98.29 14.8018 98.062 14.5807 97.898 14.2754C97.734 13.9701 97.652 13.5645 97.652 13.0586V5.792ZM103.518 4.5V15H101.877V4.5H103.518ZM103.23 11.0283L102.697 11.0215C102.702 10.5111 102.772 10.0394 102.909 9.6064C103.05 9.1735 103.246 8.7975 103.497 8.4785C103.752 8.1549 104.058 7.9066 104.413 7.7334C104.769 7.5557 105.163 7.4668 105.596 7.4668C105.96 7.4668 106.288 7.5169 106.58 7.6172C106.876 7.7174 107.132 7.8792 107.346 8.1025C107.56 8.3213 107.722 8.6084 107.831 8.9639C107.945 9.3148 108.002 9.7432 108.002 10.249V15H106.348V10.2354C106.348 9.8799 106.295 9.5973 106.19 9.3877C106.09 9.1781 105.942 9.0277 105.746 8.9365C105.55 8.8408 105.311 8.793 105.028 8.793C104.732 8.793 104.47 8.8522 104.242 8.9707C104.019 9.0892 103.832 9.251 103.682 9.4561C103.531 9.6611 103.417 9.8981 103.34 10.167C103.267 10.4359 103.23 10.723 103.23 11.0283ZM120.963 9.9141V13.7148C120.822 13.9017 120.601 14.1068 120.3 14.3301C120.004 14.5488 119.609 14.738 119.117 14.8975C118.625 15.057 118.012 15.1367 117.278 15.1367C116.654 15.1367 116.082 15.0319 115.562 14.8223C115.043 14.6081 114.594 14.2959 114.216 13.8857C113.842 13.4756 113.553 12.9766 113.348 12.3887C113.143 11.7962 113.04 11.1217 113.04 10.3652V9.6748C113.04 8.9229 113.133 8.2529 113.32 7.665C113.512 7.0726 113.785 6.5713 114.141 6.1611C114.496 5.751 114.924 5.4411 115.426 5.2314C115.932 5.0173 116.504 4.9102 117.142 4.9102C117.957 4.9102 118.632 5.0469 119.165 5.3203C119.703 5.5892 120.118 5.9629 120.409 6.4414C120.701 6.9199 120.885 7.4668 120.963 8.082H119.281C119.227 7.7357 119.119 7.4258 118.96 7.1523C118.805 6.8789 118.582 6.6647 118.29 6.5098C118.003 6.3503 117.629 6.2705 117.169 6.2705C116.772 6.2705 116.424 6.3457 116.123 6.4961C115.822 6.6465 115.572 6.8675 115.371 7.1592C115.175 7.4508 115.027 7.8063 114.927 8.2256C114.826 8.6449 114.776 9.1234 114.776 9.6611V10.3652C114.776 10.9121 114.833 11.3975 114.947 11.8213C115.066 12.2451 115.234 12.6029 115.453 12.8945C115.676 13.1862 115.948 13.4072 116.267 13.5576C116.586 13.7035 116.946 13.7764 117.347 13.7764C117.739 13.7764 118.06 13.7445 118.311 13.6807C118.561 13.6123 118.759 13.5326 118.905 13.4414C119.056 13.3457 119.172 13.2546 119.254 13.168V11.1924H117.183V9.9141H120.963ZM122.385 11.3838V11.2266C122.385 10.6934 122.462 10.1989 122.617 9.7432C122.772 9.2829 122.995 8.8841 123.287 8.5469C123.583 8.2051 123.943 7.9408 124.367 7.7539C124.796 7.5625 125.279 7.4668 125.816 7.4668C126.359 7.4668 126.842 7.5625 127.266 7.7539C127.694 7.9408 128.056 8.2051 128.353 8.5469C128.649 8.8841 128.874 9.2829 129.029 9.7432C129.184 10.1989 129.262 10.6934 129.262 11.2266V11.3838C129.262 11.917 129.184 12.4115 129.029 12.8672C128.874 13.3229 128.649 13.7217 128.353 14.0635C128.056 14.4007 127.696 14.665 127.272 14.8564C126.849 15.0433 126.368 15.1367 125.83 15.1367C125.288 15.1367 124.802 15.0433 124.374 14.8564C123.95 14.665 123.59 14.4007 123.294 14.0635C122.998 13.7217 122.772 13.3229 122.617 12.8672C122.462 12.4115 122.385 11.917 122.385 11.3838ZM124.032 11.2266V11.3838C124.032 11.7165 124.066 12.0309 124.135 12.3271C124.203 12.6234 124.31 12.8831 124.456 13.1064C124.602 13.3298 124.789 13.5052 125.017 13.6328C125.244 13.7604 125.516 13.8242 125.83 13.8242C126.135 13.8242 126.4 13.7604 126.623 13.6328C126.851 13.5052 127.038 13.3298 127.184 13.1064C127.329 12.8831 127.437 12.6234 127.505 12.3271C127.578 12.0309 127.614 11.7165 127.614 11.3838V11.2266C127.614 10.8984 127.578 10.5885 127.505 10.2969C127.437 10.0007 127.327 9.7386 127.177 9.5107C127.031 9.2829 126.844 9.1051 126.616 8.9775C126.393 8.8454 126.126 8.7793 125.816 8.7793C125.507 8.7793 125.238 8.8454 125.01 8.9775C124.786 9.1051 124.602 9.2829 124.456 9.5107C124.31 9.7386 124.203 10.0007 124.135 10.2969C124.066 10.5885 124.032 10.8984 124.032 11.2266ZM130.328 11.3838V11.2266C130.328 10.6934 130.406 10.1989 130.561 9.7432C130.715 9.2829 130.939 8.8841 131.23 8.5469C131.527 8.2051 131.887 7.9408 132.311 7.7539C132.739 7.5625 133.222 7.4668 133.76 7.4668C134.302 7.4668 134.785 7.5625 135.209 7.7539C135.637 7.9408 136 8.2051 136.296 8.5469C136.592 8.8841 136.818 9.2829 136.973 9.7432C137.128 10.1989 137.205 10.6934 137.205 11.2266V11.3838C137.205 11.917 137.128 12.4115 136.973 12.8672C136.818 13.3229 136.592 13.7217 136.296 14.0635C136 14.4007 135.64 14.665 135.216 14.8564C134.792 15.0433 134.311 15.1367 133.773 15.1367C133.231 15.1367 132.746 15.0433 132.317 14.8564C131.894 14.665 131.534 14.4007 131.237 14.0635C130.941 13.7217 130.715 13.3229 130.561 12.8672C130.406 12.4115 130.328 11.917 130.328 11.3838ZM131.976 11.2266V11.3838C131.976 11.7165 132.01 12.0309 132.078 12.3271C132.146 12.6234 132.254 12.8831 132.399 13.1064C132.545 13.3298 132.732 13.5052 132.96 13.6328C133.188 13.7604 133.459 13.8242 133.773 13.8242C134.079 13.8242 134.343 13.7604 134.566 13.6328C134.794 13.5052 134.981 13.3298 135.127 13.1064C135.273 12.8831 135.38 12.6234 135.448 12.3271C135.521 12.0309 135.558 11.7165 135.558 11.3838V11.2266C135.558 10.8984 135.521 10.5885 135.448 10.2969C135.38 10.0007 135.271 9.7386 135.12 9.5107C134.974 9.2829 134.787 9.1051 134.56 8.9775C134.336 8.8454 134.07 8.7793 133.76 8.7793C133.45 8.7793 133.181 8.8454 132.953 8.9775C132.73 9.1051 132.545 9.2829 132.399 9.5107C132.254 9.7386 132.146 10.0007 132.078 10.2969C132.01 10.5885 131.976 10.8984 131.976 11.2266ZM143.323 7.6035H144.82V14.7949C144.82 15.4603 144.679 16.0254 144.396 16.4902C144.114 16.9551 143.72 17.3083 143.214 17.5498C142.708 17.7959 142.122 17.9189 141.457 17.9189C141.174 17.9189 140.86 17.8779 140.514 17.7959C140.172 17.7139 139.839 17.5817 139.516 17.3994C139.197 17.2217 138.93 16.987 138.716 16.6953L139.488 15.7246C139.753 16.0391 140.044 16.2692 140.363 16.415C140.682 16.5609 141.017 16.6338 141.368 16.6338C141.746 16.6338 142.068 16.5632 142.332 16.4219C142.601 16.2852 142.808 16.0824 142.954 15.8135C143.1 15.5446 143.173 15.2165 143.173 14.8291V9.2783L143.323 7.6035ZM138.299 11.3838V11.2402C138.299 10.6797 138.367 10.1693 138.504 9.709C138.641 9.2441 138.837 8.8454 139.092 8.5127C139.347 8.1755 139.657 7.918 140.021 7.7402C140.386 7.5579 140.799 7.4668 141.259 7.4668C141.737 7.4668 142.145 7.5534 142.482 7.7266C142.824 7.8997 143.109 8.1481 143.337 8.4717C143.565 8.7907 143.743 9.1735 143.87 9.6201C144.002 10.0622 144.1 10.5544 144.164 11.0967V11.5547C144.105 12.0833 144.005 12.5664 143.863 13.0039C143.722 13.4414 143.535 13.8197 143.303 14.1387C143.07 14.4577 142.783 14.7038 142.441 14.877C142.104 15.0501 141.705 15.1367 141.245 15.1367C140.794 15.1367 140.386 15.0433 140.021 14.8564C139.661 14.6696 139.352 14.4076 139.092 14.0703C138.837 13.7331 138.641 13.3366 138.504 12.8809C138.367 12.4206 138.299 11.9215 138.299 11.3838ZM139.946 11.2402V11.3838C139.946 11.721 139.978 12.0355 140.042 12.3271C140.11 12.6188 140.213 12.8763 140.35 13.0996C140.491 13.3184 140.669 13.4915 140.883 13.6191C141.102 13.7422 141.359 13.8037 141.655 13.8037C142.043 13.8037 142.359 13.7217 142.605 13.5576C142.856 13.3936 143.048 13.1725 143.18 12.8945C143.316 12.612 143.412 12.2975 143.467 11.9512V10.7139C143.439 10.445 143.382 10.1943 143.296 9.9619C143.214 9.7295 143.102 9.5267 142.961 9.3535C142.82 9.1758 142.642 9.0391 142.428 8.9434C142.214 8.8431 141.961 8.793 141.669 8.793C141.373 8.793 141.115 8.8568 140.896 8.9844C140.678 9.112 140.498 9.2874 140.356 9.5107C140.22 9.734 140.117 9.9938 140.049 10.29C139.98 10.5863 139.946 10.903 139.946 11.2402ZM148.293 4.5V15H146.639V4.5H148.293ZM153.358 15.1367C152.812 15.1367 152.317 15.0479 151.875 14.8701C151.438 14.6878 151.064 14.4349 150.754 14.1113C150.449 13.7878 150.214 13.4072 150.05 12.9697C149.886 12.5322 149.804 12.0605 149.804 11.5547V11.2812C149.804 10.7025 149.888 10.1784 150.057 9.709C150.225 9.2396 150.46 8.8385 150.761 8.5059C151.062 8.1686 151.417 7.9111 151.827 7.7334C152.237 7.5557 152.682 7.4668 153.16 7.4668C153.689 7.4668 154.151 7.5557 154.548 7.7334C154.944 7.9111 155.272 8.1618 155.532 8.4854C155.797 8.8044 155.993 9.1849 156.12 9.627C156.252 10.069 156.318 10.5566 156.318 11.0898V11.7939H150.604V10.6113H154.691V10.4814C154.682 10.1852 154.623 9.9072 154.514 9.6475C154.409 9.3877 154.247 9.1781 154.028 9.0186C153.81 8.859 153.518 8.7793 153.153 8.7793C152.88 8.7793 152.636 8.8385 152.422 8.957C152.212 9.071 152.037 9.2373 151.896 9.4561C151.754 9.6748 151.645 9.9391 151.567 10.249C151.494 10.5544 151.458 10.8984 151.458 11.2812V11.5547C151.458 11.8783 151.501 12.179 151.588 12.457C151.679 12.7305 151.811 12.9697 151.984 13.1748C152.158 13.3799 152.367 13.5417 152.613 13.6602C152.859 13.7741 153.14 13.8311 153.454 13.8311C153.851 13.8311 154.204 13.7513 154.514 13.5918C154.824 13.4323 155.092 13.2067 155.32 12.915L156.188 13.7559C156.029 13.9883 155.822 14.2116 155.566 14.4258C155.311 14.6354 154.999 14.8063 154.63 14.9385C154.265 15.0706 153.841 15.1367 153.358 15.1367Z" fill="#E3E3E3"/>
</svg>
