<svg width="21" height="20" viewBox="0 0 21 20" fill="none" xmlns="http://www.w3.org/2000/svg">
<g id="Mobile-Icon" clip-path="url(#clip0_2270_1744)">
<path id="Vector" d="M10.75 18.75C8.42936 18.75 6.20376 17.8281 4.56282 16.1872C2.92187 14.5462 2 12.3206 2 10C2 7.67936 2.92187 5.45376 4.56282 3.81282C6.20376 2.17187 8.42936 1.25 10.75 1.25C13.0706 1.25 15.2962 2.17187 16.9372 3.81282C18.5781 5.45376 19.5 7.67936 19.5 10C19.5 12.3206 18.5781 14.5462 16.9372 16.1872C15.2962 17.8281 13.0706 18.75 10.75 18.75ZM10.75 20C13.4022 20 15.9457 18.9464 17.8211 17.0711C19.6964 15.1957 20.75 12.6522 20.75 10C20.75 7.34784 19.6964 4.8043 17.8211 2.92893C15.9457 1.05357 13.4022 0 10.75 0C8.09784 0 5.5543 1.05357 3.67893 2.92893C1.80357 4.8043 0.75 7.34784 0.75 10C0.75 12.6522 1.80357 15.1957 3.67893 17.0711C5.5543 18.9464 8.09784 20 10.75 20Z" fill="#525252"/>
<path id="Vector_2" d="M11.9124 8.235L9.04994 8.59375L8.94744 9.06875L9.50994 9.1725C9.87744 9.26 9.94994 9.3925 9.86994 9.75875L8.94744 14.0938C8.70494 15.215 9.07869 15.7425 9.95744 15.7425C10.6387 15.7425 11.4299 15.4275 11.7887 14.995L11.8987 14.475C11.6487 14.695 11.2837 14.7825 11.0412 14.7825C10.6974 14.7825 10.5724 14.5413 10.6612 14.1163L11.9124 8.235ZM11.9999 5.625C11.9999 5.95652 11.8682 6.27446 11.6338 6.50888C11.3994 6.7433 11.0815 6.875 10.7499 6.875C10.4184 6.875 10.1005 6.7433 9.86606 6.50888C9.63164 6.27446 9.49994 5.95652 9.49994 5.625C9.49994 5.29348 9.63164 4.97554 9.86606 4.74112C10.1005 4.5067 10.4184 4.375 10.7499 4.375C11.0815 4.375 11.3994 4.5067 11.6338 4.74112C11.8682 4.97554 11.9999 5.29348 11.9999 5.625Z" fill="#525252"/>
</g>
<defs>
<clipPath id="clip0_2270_1744">
<rect width="20" height="20" fill="white" transform="translate(0.75)"/>
</clipPath>
</defs>
</svg>
