<svg width="21" height="20" viewBox="0 0 21 20" fill="none" xmlns="http://www.w3.org/2000/svg">
<g id="Mobile-Icon" clip-path="url(#clip0_2340_1285)">
<path id="Vector" d="M10.75 20C13.4022 20 15.9457 18.9464 17.8211 17.0711C19.6964 15.1957 20.75 12.6522 20.75 10C20.75 7.34784 19.6964 4.8043 17.8211 2.92893C15.9457 1.05357 13.4022 0 10.75 0C8.09784 0 5.5543 1.05357 3.67893 2.92893C1.80357 4.8043 0.75 7.34784 0.75 10C0.75 12.6522 1.80357 15.1957 3.67893 17.0711C5.5543 18.9464 8.09784 20 10.75 20ZM11.9125 8.235L10.6625 14.1163C10.575 14.5413 10.6988 14.7825 11.0425 14.7825C11.285 14.7825 11.6512 14.695 11.9 14.475L11.79 14.995C11.4312 15.4275 10.64 15.7425 9.95875 15.7425C9.08 15.7425 8.70625 15.215 8.94875 14.0938L9.87125 9.75875C9.95125 9.3925 9.87875 9.26 9.5125 9.17125L8.94875 9.07L9.05125 8.59375L11.9125 8.235ZM10.75 6.875C10.4185 6.875 10.1005 6.7433 9.86612 6.50888C9.6317 6.27446 9.5 5.95652 9.5 5.625C9.5 5.29348 9.6317 4.97554 9.86612 4.74112C10.1005 4.5067 10.4185 4.375 10.75 4.375C11.0815 4.375 11.3995 4.5067 11.6339 4.74112C11.8683 4.97554 12 5.29348 12 5.625C12 5.95652 11.8683 6.27446 11.6339 6.50888C11.3995 6.7433 11.0815 6.875 10.75 6.875Z" fill="#0766F1"/>
</g>
<defs>
<clipPath id="clip0_2340_1285">
<rect width="20" height="20" fill="white" transform="translate(0.75)"/>
</clipPath>
</defs>
</svg>
