<svg width="20" height="20" viewBox="0 0 20 20" fill="none" xmlns="http://www.w3.org/2000/svg">
<g id="Mobile-Icon" clip-path="url(#clip0_2270_1729)">
<path id="Vector" d="M10.2937 1.94882C10.2033 1.90067 10.1024 1.87549 9.99998 1.87549C9.89753 1.87549 9.79666 1.90067 9.70623 1.94882L0.331231 6.94882C0.23139 7.00217 0.147912 7.08163 0.0897082 7.17871C0.0315047 7.2758 0.000761719 7.38687 0.000761719 7.50007C0.000761719 7.61327 0.0315047 7.72434 0.0897082 7.82143C0.147912 7.91852 0.23139 7.99798 0.331231 8.05132L3.98498 10.0001L0.329981 11.9488C0.23014 12.0022 0.146662 12.0816 0.0884582 12.1787C0.0302547 12.2758 -0.000488281 12.3869 -0.000488281 12.5001C-0.000488281 12.6133 0.0302547 12.7243 0.0884582 12.8214C0.146662 12.9185 0.23014 12.998 0.329981 13.0513L9.70498 18.0513C9.79541 18.0995 9.89628 18.1247 9.99873 18.1247C10.1012 18.1247 10.2021 18.0995 10.2925 18.0513L19.6675 13.0513C19.7673 12.998 19.8508 12.9185 19.909 12.8214C19.9672 12.7243 19.9979 12.6133 19.9979 12.5001C19.9979 12.3869 19.9672 12.2758 19.909 12.1787C19.8508 12.0816 19.7673 12.0022 19.6675 11.9488L16.0162 10.0001L19.6687 8.05132C19.7686 7.99798 19.8521 7.91852 19.9103 7.82143C19.9685 7.72434 19.9992 7.61327 19.9992 7.50007C19.9992 7.38687 19.9685 7.2758 19.9103 7.17871C19.8521 7.08163 19.7686 7.00217 19.6687 6.94882L10.2937 1.94882ZM14.6875 10.7088L18.0475 12.5001L9.99998 16.7913L1.95248 12.5001L5.31248 10.7088L9.70623 13.0513C9.79666 13.0995 9.89753 13.1247 9.99998 13.1247C10.1024 13.1247 10.2033 13.0995 10.2937 13.0513L14.6875 10.7088ZM9.99998 11.7913L1.95248 7.50007L9.99998 3.20882L18.0475 7.50007L9.99998 11.7913Z" fill="#525252"/>
</g>
<defs>
<clipPath id="clip0_2270_1729">
<rect width="20" height="20" fill="white"/>
</clipPath>
</defs>
</svg>
