<svg width="20" height="20" viewBox="0 0 20 20" fill="none" xmlns="http://www.w3.org/2000/svg">
<g id="Mobile-Icon">
<path id="Vector" d="M9.7062 1.94882C9.79663 1.90067 9.89751 1.87549 9.99995 1.87549C10.1024 1.87549 10.2033 1.90067 10.2937 1.94882L19.6687 6.94882C19.7685 7.00217 19.852 7.08162 19.9102 7.17871C19.9684 7.2758 19.9992 7.38687 19.9992 7.50007C19.9992 7.61327 19.9684 7.72434 19.9102 7.82143C19.852 7.91852 19.7685 7.99798 19.6687 8.05132L10.2937 13.0513C10.2033 13.0995 10.1024 13.1247 9.99995 13.1247C9.89751 13.1247 9.79663 13.0995 9.7062 13.0513L0.331202 8.05132C0.231361 7.99798 0.147882 7.91852 0.0896789 7.82143C0.0314754 7.72434 0.000732422 7.61327 0.000732422 7.50007C0.000732422 7.38687 0.0314754 7.2758 0.0896789 7.17871C0.147882 7.08162 0.231361 7.00217 0.331202 6.94882L9.7062 1.94882Z" fill="#0766F1"/>
<path id="Vector_2" d="M2.6562 10.709L0.331202 11.949C0.231361 12.0023 0.147882 12.0818 0.0896789 12.1789C0.0314754 12.276 0.000732422 12.387 0.000732422 12.5002C0.000732422 12.6134 0.0314754 12.7245 0.0896789 12.8216C0.147882 12.9187 0.231361 12.9981 0.331202 13.0515L9.7062 18.0515C9.79663 18.0996 9.89751 18.1248 9.99995 18.1248C10.1024 18.1248 10.2033 18.0996 10.2937 18.0515L19.6687 13.0515C19.7685 12.9981 19.852 12.9187 19.9102 12.8216C19.9684 12.7245 19.9992 12.6134 19.9992 12.5002C19.9992 12.387 19.9684 12.276 19.9102 12.1789C19.852 12.0818 19.7685 12.0023 19.6687 11.949L17.3437 10.709L10.8812 14.154C10.6099 14.2984 10.3073 14.374 9.99995 14.374C9.69261 14.374 9.38998 14.2984 9.1187 14.154L2.6562 10.709Z" fill="#0766F1"/>
</g>
</svg>
