<svg width="20" height="20" viewBox="0 0 20 20" fill="none" xmlns="http://www.w3.org/2000/svg">
<g id="Mobile-Icon">
<path id="Vector" d="M1.66663 6.24984C1.66663 5.6973 1.88612 5.1674 2.27682 4.7767C2.66752 4.386 3.19743 4.1665 3.74996 4.1665H16.25C16.8025 4.1665 17.3324 4.386 17.7231 4.7767C18.1138 5.1674 18.3333 5.6973 18.3333 6.24984V14.5832C18.3333 15.1357 18.1138 15.6656 17.7231 16.0563C17.3324 16.447 16.8025 16.6665 16.25 16.6665H3.74996C3.19743 16.6665 2.66752 16.447 2.27682 16.0563C1.88612 15.6656 1.66663 15.1357 1.66663 14.5832V6.24984ZM3.74996 5.20817C3.47369 5.20817 3.20874 5.31792 3.01339 5.51327C2.81804 5.70862 2.70829 5.97357 2.70829 6.24984V6.47588L9.99996 10.8509L17.2916 6.47588V6.24984C17.2916 5.97357 17.1819 5.70862 16.9865 5.51327C16.7912 5.31792 16.5262 5.20817 16.25 5.20817H3.74996ZM17.2916 7.69046L12.3875 10.6332L17.2916 13.6509V7.69046ZM17.2562 14.853L11.3812 11.2373L9.99996 12.0655L8.61871 11.2373L2.74371 14.8519C2.8029 15.0736 2.93362 15.2695 3.11557 15.4093C3.29752 15.549 3.52053 15.6248 3.74996 15.6248H16.25C16.4793 15.6249 16.7022 15.5492 16.8841 15.4097C17.066 15.2701 17.1968 15.0744 17.2562 14.853ZM2.70829 13.6509L7.61246 10.6332L2.70829 7.69046V13.6509Z" fill="#525252"/>
</g>
</svg>
