<svg width="16" height="16" viewBox="0 0 16 16" fill="none" xmlns="http://www.w3.org/2000/svg">
<path d="M12.5 16C13.4283 16 14.3185 15.6313 14.9749 14.9749C15.6313 14.3185 16 13.4283 16 12.5C16 11.5717 15.6313 10.6815 14.9749 10.0251C14.3185 9.36875 13.4283 9 12.5 9C11.5717 9 10.6815 9.36875 10.0251 10.0251C9.36875 10.6815 9 11.5717 9 12.5C9 13.4283 9.36875 14.3185 10.0251 14.9749C10.6815 15.6313 11.5717 16 12.5 16ZM14.179 11.507L12.844 13.733C12.7853 13.8308 12.7051 13.9139 12.6095 13.9761C12.5139 14.0382 12.4053 14.0777 12.2922 14.0916C12.179 14.1055 12.0641 14.0934 11.9563 14.0562C11.8485 14.019 11.7506 13.9577 11.67 13.877L10.896 13.104C10.8021 13.0101 10.7494 12.8828 10.7494 12.75C10.7494 12.6172 10.8021 12.4899 10.896 12.396C10.9899 12.3021 11.1172 12.2494 11.25 12.2494C11.3828 12.2494 11.5101 12.3021 11.604 12.396L12.151 12.944L13.321 10.993C13.3547 10.9367 13.3993 10.8875 13.452 10.8484C13.5047 10.8093 13.5647 10.7809 13.6284 10.7649C13.6921 10.749 13.7583 10.7457 13.8233 10.7553C13.8882 10.7649 13.9507 10.7873 14.007 10.821C14.0633 10.8547 14.1125 10.8993 14.1516 10.952C14.1907 11.0047 14.2191 11.0647 14.2351 11.1284C14.251 11.1921 14.2543 11.2583 14.2447 11.3233C14.2351 11.3882 14.2127 11.4507 14.179 11.507ZM11 5C11 5.79565 10.6839 6.55871 10.1213 7.12132C9.55871 7.68393 8.79565 8 8 8C7.20435 8 6.44129 7.68393 5.87868 7.12132C5.31607 6.55871 5 5.79565 5 5C5 4.20435 5.31607 3.44129 5.87868 2.87868C6.44129 2.31607 7.20435 2 8 2C8.79565 2 9.55871 2.31607 10.1213 2.87868C10.6839 3.44129 11 4.20435 11 5ZM8 7C8.53043 7 9.03914 6.78929 9.41421 6.41421C9.78929 6.03914 10 5.53043 10 5C10 4.46957 9.78929 3.96086 9.41421 3.58579C9.03914 3.21071 8.53043 3 8 3C7.46957 3 6.96086 3.21071 6.58579 3.58579C6.21071 3.96086 6 4.46957 6 5C6 5.53043 6.21071 6.03914 6.58579 6.41421C6.96086 6.78929 7.46957 7 8 7Z" fill="#525252"/>
<path d="M8.256 14C8.1415 13.6752 8.06466 13.3383 8.027 12.996H3C3.001 12.75 3.154 12.01 3.832 11.332C4.484 10.68 5.711 10 8 10C8.26 10 8.50667 10.0083 8.74 10.025C8.966 9.684 9.236 9.375 9.544 9.107C9.07733 9.037 8.56267 9.00133 8 9C3 9 2 12 2 13C2 14 3 14 3 14H8.256Z" fill="#525252"/>
</svg>
