<svg width="16" height="16" viewBox="0 0 16 16" fill="none" xmlns="http://www.w3.org/2000/svg">
<g clip-path="url(#clip0_2794_599)">
<path d="M11.7423 10.3421C12.7106 9.02083 13.1443 7.38264 12.9566 5.7553C12.7689 4.12795 11.9737 2.63149 10.7301 1.56528C9.4864 0.499068 7.88604 -0.0582491 6.24912 0.00482408C4.61221 0.0678972 3.05947 0.746709 1.90156 1.90545C0.743639 3.0642 0.065938 4.61742 0.00403618 6.25438C-0.0578656 7.89134 0.500597 9.49131 1.5677 10.7342C2.63479 11.9771 4.13183 12.7712 5.75931 12.9577C7.38678 13.1442 9.02467 12.7094 10.3453 11.7401H10.3443C10.3743 11.7801 10.4063 11.8181 10.4423 11.8551L14.2923 15.7051C14.4798 15.8928 14.7342 15.9983 14.9994 15.9983C15.2647 15.9984 15.5191 15.8932 15.7068 15.7056C15.8944 15.5181 15.9999 15.2638 16 14.9985C16.0001 14.7332 15.8948 14.4788 15.7073 14.2911L11.8573 10.4411C11.8215 10.405 11.7831 10.3725 11.7423 10.3421ZM12.0003 6.49815C12.0003 7.22042 11.858 7.93561 11.5816 8.60291C11.3052 9.2702 10.9001 9.87651 10.3894 10.3872C9.87865 10.898 9.27234 11.3031 8.60505 11.5795C7.93776 11.8559 7.22256 11.9981 6.50029 11.9981C5.77802 11.9981 5.06282 11.8559 4.39553 11.5795C3.72824 11.3031 3.12192 10.898 2.6112 10.3872C2.10048 9.87651 1.69535 9.2702 1.41895 8.60291C1.14255 7.93561 1.00029 7.22042 1.00029 6.49815C1.00029 5.03946 1.57975 3.64051 2.6112 2.60906C3.64265 1.57761 5.0416 0.998147 6.50029 0.998147C7.95898 0.998147 9.35792 1.57761 10.3894 2.60906C11.4208 3.64051 12.0003 5.03946 12.0003 6.49815Z" fill="#333333"/>
</g>
<defs>
<clipPath id="clip0_2794_599">
<rect width="16" height="16" fill="white"/>
</clipPath>
</defs>
</svg>
