<svg width="24" height="24" viewBox="0 0 24 24" fill="none" xmlns="http://www.w3.org/2000/svg">
<path d="M20.2475 1.19201L20.4697 0.969783C21.1768 0.262677 22.3232 0.262676 23.0303 0.969783C23.7375 1.67689 23.7375 2.82334 23.0303 3.53044L22.8081 3.75267C23.5973 4.63617 23.5678 5.99296 22.7197 6.8411L7.28034 22.2804C7.18423 22.3766 7.06379 22.4447 6.93192 22.4777L0.931918 23.9777C0.676336 24.0416 0.405971 23.9667 0.219686 23.7804C0.0334005 23.5942 -0.0414863 23.3238 0.022409 23.0682L1.52241 17.0682C1.55538 16.9363 1.62357 16.8159 1.71969 16.7198L16.1816 2.25789C15.8889 2.0515 15.4816 2.07923 15.2197 2.3411L10.2803 7.28044C9.98745 7.57334 9.51258 7.57334 9.21968 7.28044C8.92679 6.98755 8.92679 6.51268 9.21968 6.21978L14.159 1.28044C15.008 0.431484 16.3666 0.402768 17.25 1.1943C18.1017 0.431242 19.3949 0.430479 20.2475 1.19201ZM19.2803 2.3411C18.9875 2.04821 18.5126 2.04821 18.2197 2.3411L2.92724 17.6335L1.78079 22.2193L6.36658 21.0729L21.659 5.78044C21.9519 5.48755 21.9519 5.01268 21.659 4.71978L19.2803 2.3411Z" fill="#0766F1"/>
</svg>
