<svg width="192" height="46" viewBox="0 0 192 46" fill="none" xmlns="http://www.w3.org/2000/svg">
<g id="MySwaddle Logo(Color)" clip-path="url(#clip0_1459_4055)">
<g id="Group">
<path id="Vector" d="M72.0634 25.1251C71.7927 24.5824 71.5221 24.0834 71.1642 23.7332C69.9682 22.5601 66.3454 20.0738 61.4044 17.4825C60.6013 17.0623 60.0775 16.5371 59.7283 16.0906C59.3792 15.6441 59.2395 15.1013 59.3268 14.471C59.4053 13.902 59.6847 13.4468 60.1648 13.1141C60.645 12.7727 61.2386 12.5538 61.9369 12.6414C64.7392 12.9828 66.0137 15.4428 66.0748 15.5916C66.1359 15.7492 66.2319 15.9855 66.3716 16.3094C66.5026 16.6334 66.6422 16.896 66.7732 17.0798C66.9041 17.2637 67.07 17.465 67.2708 17.6839C67.4715 17.9027 67.6985 18.0778 67.9517 18.2092C68.2136 18.3405 68.4842 18.4368 68.7723 18.5068C69.846 18.7257 70.6491 18.4718 71.1817 17.7539C71.7142 17.0361 71.9499 16.1869 71.6007 15.329C70.911 13.6306 67.3319 11.1268 62.5829 11.1268C59.6149 11.1268 57.1967 11.372 55.3111 12.4575C53.4255 13.5431 52.3518 14.9525 52.0812 16.7034C51.6447 19.6361 53.2597 22.0173 56.9261 23.8557C57.3364 24.0746 64.294 27.1824 64.9487 29.1171C65.0709 29.4848 65.1495 29.8437 65.1058 30.2202C65.0447 30.8067 64.7566 31.3057 64.2328 31.7084C63.7178 32.1111 63.0194 32.3125 62.1465 32.3125C59.5799 32.3125 58.1396 29.9576 57.6856 27.3487C57.4586 26.0618 56.9872 25.1164 56.2714 24.5123C55.5556 23.9083 54.6477 23.7069 53.5478 23.9083C52.6573 24.0571 52.0113 24.5036 51.6185 25.2389C51.2257 25.9743 51.1209 26.806 51.4003 27.7164C53.2335 33.7044 58.5149 33.8708 61.1513 34.0196C64.5908 34.2209 67.3755 33.6782 69.5143 32.4088C71.6443 31.1394 72.6395 29.2835 72.4998 26.8322C72.4824 26.2457 72.334 25.6767 72.0634 25.1251Z" fill="#0766E6"/>
<path id="Vector_2" d="M118.426 24.5824C117.152 19.6011 115.345 17.465 109.889 17.6839C106.694 17.8152 104.782 18.2967 103.612 19.7849C103.027 20.5291 102.242 23.2867 104.668 23.5668C107.34 23.8732 107.846 21.5008 108.003 21.1506C108.178 20.7567 108.684 19.6274 109.609 19.5573C110.509 19.4961 110.849 19.8637 111.224 20.4765C111.556 21.1331 111.521 21.7722 111.12 22.3938C110.718 23.0153 109.924 23.4793 108.745 23.7857C108.667 23.8032 108.536 23.8382 108.37 23.882C107.331 24.1446 106.58 24.346 106.118 24.4861C105.655 24.6261 105.018 24.8625 104.223 25.1952C103.429 25.5191 102.844 25.8517 102.486 26.1757C102.128 26.4996 101.788 26.946 101.473 27.5063C101.159 28.0666 100.985 28.7057 100.941 29.4235C100.862 31.0606 101.5 32.3563 102.87 33.293C104.241 34.2297 105.899 34.6149 107.846 34.4398C108.527 34.3785 109.164 34.1772 109.74 33.8533C110.526 33.3893 111.024 32.5576 111.067 31.9886C111.111 31.5509 111.155 30.2727 110.159 30.299C109.077 30.3165 107.82 30.0101 107.584 28.767C107.383 27.6902 108.125 26.8848 109.304 26.0531C109.531 25.878 109.871 25.6679 110.317 25.414C110.762 25.1601 111.102 24.9325 111.338 24.7224C111.574 24.5123 112.298 23.7945 112.56 23.5231C113.005 23.0591 113.232 23.4705 113.049 24.0046C112.097 26.8673 109.906 34.256 115.45 34.3172C120.583 34.3785 119.544 30.763 119.439 29.5636C119.395 29.0821 118.653 25.5278 118.418 24.5824H118.426Z" fill="#0766E6"/>
<path id="Vector_3" d="M172.55 16.4233C172.795 12.904 171.573 11.7484 170.551 11.4683C168.037 10.7592 162.38 13.5343 162.206 15.828C162.04 18.0516 164.1 18.288 164.283 19.9513C164.877 25.2127 162.275 26.7447 162.275 31.3408C162.275 32.9341 164.406 34.3173 167.601 34.3173C171.162 34.3173 173.406 33.3193 173.266 31.1569C173.109 28.872 172.027 23.9958 172.55 16.432V16.4233Z" fill="#0766E6"/>
<path id="Vector_4" d="M138.4 18.9708C138.697 16.5545 139.316 14.3134 139.404 13.0966C139.526 11.4682 137.745 11.3894 137.623 11.3894C137.396 11.3894 129.181 11.7134 129.618 15.8367C129.792 17.5175 131.241 17.8677 131.434 19.2246C131.434 19.5836 131.442 19.9512 131.442 20.3102C130.552 18.9532 129.26 18.2004 127.558 18.0428C125.777 17.9115 124.197 18.5856 122.835 20.0563C121.464 21.5358 120.748 23.5406 120.687 26.0793C120.626 28.7494 121.29 30.8155 122.695 32.2774C124.092 33.7394 125.716 34.4748 127.558 34.4748C128.238 34.4748 128.893 34.3347 129.504 34.0633C130.115 33.7919 130.587 33.4768 130.918 33.1266C131.25 32.7764 131.573 32.47 131.896 32.1899C132.219 31.9185 132.472 31.7784 132.656 31.7784C132.926 31.8047 133.214 31.936 133.529 32.1724C133.843 32.4175 136.54 34.2034 137.099 34.2734C137.763 34.3435 141.499 34.0808 139.255 28.6093C138.199 26.0356 138.182 21.7547 138.391 18.962L138.4 18.9708ZM131.372 26.1056C131.303 27.4975 131.058 28.6794 130.622 29.6336C130.194 30.5966 129.627 31.0868 128.911 31.1131C128.204 31.1394 127.654 30.6841 127.278 29.7474C126.894 28.8107 126.737 27.6551 126.816 26.2807C126.877 24.8625 127.13 23.6806 127.558 22.7351C127.994 21.7897 128.561 21.2994 129.269 21.2732C129.976 21.2469 130.526 21.7021 130.91 22.6564C131.294 23.6018 131.451 24.7574 131.372 26.1056Z" fill="#0766E6"/>
<path id="Vector_5" d="M158.993 18.9708C159.29 16.5545 159.91 14.3134 159.997 13.0966C160.119 11.4682 158.338 11.3894 158.216 11.3894C157.989 11.3894 149.775 11.7134 150.211 15.8367C150.386 17.5175 151.835 17.8677 152.027 19.2246C152.027 19.5836 152.036 19.9512 152.036 20.3102C151.145 18.9532 149.853 18.2004 148.151 18.0428C146.37 17.9115 144.79 18.5856 143.428 20.0563C142.058 21.5358 141.342 23.5406 141.281 26.0793C141.219 28.7494 141.883 30.8155 143.288 32.2774C144.685 33.7394 146.309 34.4748 148.151 34.4748C148.832 34.4748 149.486 34.3347 150.098 34.0633C150.709 33.7919 151.18 33.4768 151.512 33.1266C151.843 32.7764 152.166 32.47 152.489 32.1899C152.812 31.9185 153.066 31.7784 153.249 31.7784C153.52 31.8047 153.808 31.936 154.122 32.1724C154.436 32.4175 157.134 34.2034 157.692 34.2734C158.356 34.3435 162.092 34.0808 159.849 28.6093C158.792 26.0356 158.775 21.7547 158.984 18.962L158.993 18.9708ZM151.966 26.1056C151.896 27.4975 151.651 28.6794 151.215 29.6336C150.787 30.5966 150.22 31.0868 149.504 31.1131C148.797 31.1394 148.247 30.6841 147.871 29.7474C147.487 28.8107 147.33 27.6551 147.409 26.2807C147.47 24.8625 147.723 23.6806 148.151 22.7351C148.587 21.7897 149.155 21.2994 149.862 21.2732C150.569 21.2469 151.119 21.7021 151.503 22.6564C151.887 23.6018 152.044 24.7574 151.966 26.1056Z" fill="#0766E6"/>
<path id="Vector_6" d="M191.773 23.0941C191.467 21.4658 189.564 20.8092 189.25 22.6739C189.215 24.4685 188.578 25.7817 187.338 26.6133C186.177 27.4187 185.016 27.7252 183.419 27.1736C182.895 26.9898 182.467 26.7884 182.101 26.5521C184.667 25.6416 190.603 20.9668 188.142 18.4367C187.853 18.1391 187.522 17.7977 187.024 17.535C186.518 17.2724 185.881 17.071 185.095 16.9222C184.309 16.7734 183.349 16.8609 182.214 17.1761C181.079 17.4913 179.892 18.0603 178.67 18.8832C176.679 20.2051 175.379 21.9297 174.776 24.0483C174.165 26.1669 174.453 28.2417 175.632 30.2552C176.845 32.33 178.591 33.5994 180.87 34.0633C183.148 34.5273 185.348 34.1334 187.469 32.8815C189.259 31.831 192.96 29.5286 191.773 23.1203V23.0941ZM180.896 25.4315C179.517 23.9257 178.958 22.8227 178.766 21.8597C178.574 20.8967 178.923 19.8549 179.595 19.461C181.027 18.6206 182.301 20.0213 182.607 20.7829C183.375 22.6739 182.546 24.416 180.896 25.4315Z" fill="#0766E6"/>
<path id="Vector_7" d="M99.2213 17.7451C96.3318 17.6576 95.389 19.1283 95.4064 19.995C95.4239 21.4307 96.7334 22.42 96.0961 24.8012C95.6858 25.8604 95.066 27.515 94.6033 28.7144C94.4462 29.1083 93.9137 29.1083 93.7565 28.7144C93.1978 27.3399 92.3598 24.9325 91.967 23.9345C91.2511 22.0873 92.7177 20.7566 92.8225 20.0213C92.8836 19.566 93.0756 17.8414 89.7845 17.7364C86.895 17.6488 85.9522 19.1196 85.9697 19.9862C85.9872 21.422 87.2966 22.4112 86.6593 24.7924C86.249 25.8517 85.6292 27.5063 85.1666 28.7056C85.0094 29.0996 84.4769 29.0996 84.3198 28.7056C83.7611 27.3312 82.827 24.9587 82.5302 23.9257C82.0152 22.1136 82.8357 21.991 82.8881 20.1438C82.9405 18.4105 81.1509 17.6926 77.4146 17.6926C74.4902 17.6926 72.7355 18.3842 72.5347 20.1001C72.2205 22.8139 74.2632 22.9978 75.1536 25.5278C75.7909 27.3399 76.821 29.2221 77.9297 31.936C78.6892 33.7832 80.3391 34.2121 80.8628 34.2121H83.9182C84.442 34.2121 85.315 33.8094 85.8038 32.5313C86.2316 31.4107 86.6419 30.4215 87.026 29.5373C87.253 30.3077 87.4537 31.1043 87.5934 31.901C87.9513 33.8707 89.7671 34.2121 90.2909 34.2121H93.3462C93.87 34.2121 94.743 33.8094 95.2318 32.5313C99.4483 21.5095 101.866 22.7001 102.242 20.0213C102.303 19.566 102.495 17.8414 99.2038 17.7364L99.2213 17.7451Z" fill="#0766E6"/>
</g>
<g id="Group_2">
<g id="Group_3">
<path id="Vector_8" d="M26.5644 22.3762C25.3248 20.3189 24.8272 18.2266 24.8359 17.7802C24.8883 15.5565 25.5954 14.6198 24.6264 13.543C24.0503 12.904 22.2869 12.3349 18.7863 13.3592C16.8221 13.937 16.0539 15.434 15.9055 16.1431C15.2508 19.391 15.4865 25.9743 15.4865 25.9743C15.4865 26.2194 15.1722 26.3157 15.0325 26.1143C15.0325 26.1143 10.7026 19.3735 8.91304 17.7276C8.39799 17.2549 7.03616 16.8347 5.05453 17.4212C1.70234 18.4017 0.113547 19.2772 0.00879107 20.1701C-0.183261 21.7634 1.97296 22.5601 2.24358 23.7332C3.1602 27.7164 2.40945 35.4203 3.09909 37.7402C3.65779 39.6486 5.00215 40.0689 7.12346 39.4473C9.33206 38.7995 11.27 37.6614 9.91695 35.8055C9.77727 35.6129 6.73935 29.4235 5.86639 26.2544C5.77909 25.948 6.2243 25.7904 6.40763 26.0356C8.18848 28.4168 12.9723 34.7812 13.2168 35.0438C14.5786 36.4708 17.73 35.0438 17.9308 33.6431C17.9831 33.293 18.0617 25.7379 18.0966 22.4988C18.0966 22.2712 18.4109 22.2449 18.4633 22.4638C19.2228 25.484 20.9425 32.2774 21.0734 32.5313C21.9551 34.2297 22.9241 34.8512 27.385 33.5293C32.0204 32.1636 32.0903 30.1589 31.8371 29.371C31.2348 27.5063 28.2492 25.1951 26.5557 22.3762H26.5644Z" fill="#DC5DDC"/>
<path id="Vector_9" d="M57.5983 2.65259C57.1531 1.5758 56.4286 0.822917 55.4247 0.402706C54.412 -0.0175051 53.3557 -0.201347 51.9852 0.306408C45.0276 2.89771 43.6745 19.0758 43.4214 23.917C43.2555 24.4773 42.5397 24.6174 42.1468 24.1709C39.8509 21.5883 40.3835 19.3735 39.1351 17.1324C38.201 15.4603 35.8178 14.7161 32.2038 15.7842C29.2444 16.6509 27.804 18.6294 28.2754 20.1089C29.6373 24.3722 33.487 21.8072 40.0779 32.0148C40.5842 32.8027 40.8287 33.5206 40.916 34.1071C41.0033 34.6937 40.8549 35.254 40.3573 35.4028C38.1399 36.0506 38.5939 31.1481 33.9846 32.4963C32.1339 33.0391 31.7586 35.5429 33.0331 36.9523C34.3338 38.3968 35.4949 38.9833 39.2486 37.8803C43.3865 36.6634 45.0713 33.8883 45.5427 31.0956C46.4331 26.2194 47.7164 8.85945 55.6167 7.44124C56.7428 7.23989 57.3801 6.3557 57.7118 5.41022C58.0435 4.45599 58.0086 3.53678 57.6158 2.65259H57.5983Z" fill="#DC5DDC"/>
</g>
<g id="Group_4">
<path id="Vector_10" d="M101.936 44.9188H102.678V41.4257H106.109V40.7429H102.678V38.2304H106.371V37.5388H101.936V44.9188Z" fill="#DC5DDC"/>
<path id="Vector_11" d="M111.652 40.6466C111.425 40.419 111.155 40.2352 110.84 40.1126C110.526 39.9813 110.177 39.92 109.793 39.92C109.409 39.92 109.077 39.9813 108.763 40.1126C108.448 40.2439 108.178 40.419 107.951 40.6466C107.724 40.8743 107.541 41.1456 107.418 41.4608C107.287 41.776 107.226 42.1174 107.226 42.4851C107.226 42.8528 107.287 43.1942 107.418 43.5093C107.549 43.8245 107.724 44.0959 107.951 44.3235C108.178 44.5511 108.448 44.7349 108.763 44.8575C109.077 44.9888 109.426 45.0501 109.793 45.0501C110.159 45.0501 110.526 44.9888 110.84 44.8575C111.155 44.7262 111.425 44.5511 111.652 44.3235C111.879 44.0959 112.063 43.8245 112.185 43.5093C112.316 43.1942 112.377 42.8528 112.377 42.4851C112.377 42.1174 112.316 41.776 112.185 41.4608C112.054 41.1456 111.879 40.8743 111.652 40.6466ZM111.495 43.2467C111.408 43.4831 111.286 43.6844 111.128 43.8595C110.971 44.0346 110.779 44.1747 110.552 44.271C110.325 44.376 110.072 44.4198 109.793 44.4198C109.513 44.4198 109.252 44.3673 109.025 44.271C108.798 44.1659 108.606 44.0346 108.457 43.8595C108.3 43.6844 108.178 43.4831 108.091 43.2467C108.003 43.0103 107.96 42.7565 107.96 42.4851C107.96 42.2137 108.003 41.9598 108.091 41.7234C108.178 41.4871 108.3 41.2857 108.457 41.1106C108.614 40.9355 108.806 40.7955 109.025 40.6992C109.252 40.6029 109.505 40.5503 109.793 40.5503C110.081 40.5503 110.334 40.6029 110.552 40.6992C110.779 40.8042 110.971 40.9355 111.128 41.1106C111.286 41.2857 111.408 41.4871 111.495 41.7234C111.582 41.9598 111.626 42.2137 111.626 42.4851C111.626 42.7565 111.582 43.0103 111.495 43.2467Z" fill="#DC5DDC"/>
<path id="Vector_12" d="M115.336 40.0075C115.17 40.0688 115.022 40.1476 114.891 40.2439C114.76 40.3402 114.655 40.454 114.559 40.5678C114.472 40.6904 114.402 40.8129 114.35 40.9443H114.332V40.0338H113.66C113.66 40.384 113.677 40.6729 113.686 40.9005C113.695 41.1281 113.704 41.3382 113.704 41.5571V44.91H114.393V42.1611C114.393 41.9948 114.42 41.8197 114.481 41.6358C114.542 41.452 114.629 41.2857 114.76 41.1281C114.882 40.9705 115.039 40.8392 115.231 40.7429C115.415 40.6378 115.642 40.5941 115.904 40.5941C116.078 40.5941 116.209 40.6116 116.296 40.6466L116.436 39.9725C116.288 39.9287 116.122 39.9112 115.93 39.9112C115.712 39.9112 115.519 39.9375 115.354 39.9988L115.336 40.0075Z" fill="#DC5DDC"/>
<path id="Vector_13" d="M123.839 43.5443L121.36 37.5388H120.216V44.9188H120.958V38.5455H120.984L123.647 44.9188H124.04L126.702 38.5455H126.72V44.9188H127.47V37.5388H126.327L123.839 43.5443Z" fill="#DC5DDC"/>
<path id="Vector_14" d="M133.407 40.6466C133.18 40.419 132.909 40.2352 132.595 40.1126C132.281 39.9813 131.931 39.92 131.547 39.92C131.163 39.92 130.831 39.9813 130.517 40.1126C130.203 40.2439 129.932 40.419 129.705 40.6466C129.478 40.8743 129.295 41.1456 129.173 41.4608C129.042 41.776 128.981 42.1174 128.981 42.4851C128.981 42.8528 129.042 43.1942 129.173 43.5093C129.304 43.8245 129.478 44.0959 129.705 44.3235C129.932 44.5511 130.203 44.7349 130.517 44.8575C130.831 44.9888 131.181 45.0501 131.547 45.0501C131.914 45.0501 132.281 44.9888 132.595 44.8575C132.909 44.7262 133.18 44.5511 133.407 44.3235C133.634 44.0959 133.817 43.8245 133.939 43.5093C134.07 43.1942 134.131 42.8528 134.131 42.4851C134.131 42.1174 134.07 41.776 133.939 41.4608C133.808 41.1456 133.634 40.8743 133.407 40.6466ZM133.25 43.2467C133.162 43.4831 133.04 43.6844 132.883 43.8595C132.726 44.0346 132.534 44.1747 132.307 44.271C132.08 44.376 131.827 44.4198 131.538 44.4198C131.25 44.4198 130.997 44.3673 130.77 44.271C130.543 44.1659 130.351 44.0346 130.203 43.8595C130.046 43.6844 129.924 43.4831 129.836 43.2467C129.749 43.0103 129.705 42.7565 129.705 42.4851C129.705 42.2137 129.749 41.9598 129.836 41.7234C129.924 41.4871 130.046 41.2857 130.203 41.1106C130.36 40.9355 130.552 40.7955 130.77 40.6992C130.997 40.6029 131.25 40.5503 131.538 40.5503C131.827 40.5503 132.08 40.6029 132.307 40.6992C132.534 40.8042 132.726 40.9355 132.883 41.1106C133.04 41.2857 133.162 41.4871 133.25 41.7234C133.337 41.9598 133.38 42.2137 133.38 42.4851C133.38 42.7565 133.337 43.0103 133.25 43.2467Z" fill="#DC5DDC"/>
<path id="Vector_15" d="M140.801 39.92C140.478 39.92 140.163 40.0076 139.858 40.1914C139.552 40.3753 139.334 40.6204 139.194 40.9355C139.116 40.7254 139.011 40.5591 138.889 40.4278C138.767 40.2965 138.636 40.1914 138.496 40.1214C138.356 40.0513 138.217 39.9988 138.068 39.9726C137.92 39.9463 137.78 39.9288 137.649 39.9288C137.361 39.9288 137.064 39.9988 136.767 40.1476C136.471 40.2965 136.244 40.5066 136.078 40.7955H136.06V40.0513H135.327C135.344 40.2352 135.353 40.4103 135.362 40.5941C135.371 40.778 135.379 40.9531 135.379 41.1369V44.9275H136.069V42.4238C136.069 41.9773 136.13 41.6359 136.261 41.382C136.392 41.1281 136.532 40.9443 136.689 40.8217C136.846 40.6992 137.003 40.6204 137.152 40.5941C137.3 40.5679 137.396 40.5503 137.44 40.5503C137.911 40.5503 138.234 40.6817 138.409 40.9443C138.583 41.2069 138.67 41.5834 138.67 42.0824V44.9275H139.36V42.3362C139.36 42.1086 139.386 41.8898 139.43 41.6709C139.482 41.4608 139.552 41.2682 139.666 41.1019C139.77 40.9355 139.91 40.8042 140.085 40.6992C140.259 40.6029 140.478 40.5503 140.731 40.5503C141.202 40.5503 141.525 40.6817 141.7 40.9443C141.874 41.2069 141.962 41.5834 141.962 42.0824V44.9275H142.651V41.8285C142.651 41.2157 142.503 40.7429 142.206 40.419C141.909 40.0864 141.447 39.92 140.827 39.92H140.801Z" fill="#DC5DDC"/>
<path id="Vector_16" d="M146.405 42.2137L145.707 42.0473C145.392 41.9686 145.148 41.881 144.991 41.776C144.834 41.6709 144.755 41.5046 144.755 41.277C144.755 41.1456 144.781 41.0318 144.842 40.9443C144.904 40.8568 144.982 40.778 145.078 40.7167C145.174 40.6554 145.288 40.6116 145.401 40.5854C145.523 40.5591 145.646 40.5416 145.759 40.5416C146.012 40.5416 146.222 40.6029 146.396 40.7167C146.571 40.8392 146.711 40.9968 146.815 41.1982L147.426 40.7955C147.269 40.4716 147.042 40.2527 146.754 40.1214C146.466 39.9901 146.143 39.92 145.811 39.92C145.584 39.92 145.357 39.9463 145.148 40.0076C144.93 40.0689 144.738 40.1564 144.572 40.2702C144.406 40.3928 144.266 40.5416 144.17 40.7254C144.065 40.9093 144.022 41.1281 144.022 41.382C144.022 41.6096 144.074 41.8022 144.17 41.9598C144.266 42.1174 144.38 42.2399 144.519 42.3362C144.659 42.4325 144.79 42.5026 144.938 42.5551C145.078 42.6076 145.192 42.6426 145.279 42.6602L145.942 42.8177C146.196 42.879 146.414 42.9666 146.597 43.0716C146.78 43.1767 146.868 43.3518 146.868 43.5969C146.868 43.7369 146.833 43.8595 146.772 43.9646C146.711 44.0696 146.623 44.1572 146.51 44.2184C146.405 44.2885 146.283 44.3322 146.143 44.3673C146.003 44.4023 145.864 44.411 145.724 44.411C145.436 44.411 145.183 44.3498 144.973 44.2097C144.764 44.0784 144.589 43.9033 144.45 43.6757L143.856 44.0784C144.083 44.4285 144.362 44.6737 144.685 44.8137C145.008 44.9538 145.357 45.0238 145.733 45.0238C145.969 45.0238 146.204 44.9976 146.431 44.9363C146.658 44.8838 146.859 44.7875 147.042 44.6737C147.217 44.5511 147.365 44.3935 147.47 44.2009C147.575 44.0083 147.627 43.7807 147.627 43.5181C147.627 43.1679 147.514 42.879 147.287 42.6514C147.06 42.415 146.78 42.2662 146.44 42.1874L146.405 42.2137Z" fill="#DC5DDC"/>
<path id="Vector_17" d="M157.649 40.9268H156.811L155.798 42.6777L154.105 40.9268C154.288 40.8305 154.48 40.7167 154.672 40.5941C154.864 40.4716 155.039 40.3315 155.196 40.1739C155.353 40.0163 155.475 39.8412 155.571 39.6486C155.667 39.4561 155.72 39.2372 155.72 39.0008C155.72 38.7294 155.676 38.4931 155.58 38.283C155.484 38.0816 155.362 37.9065 155.196 37.7665C155.03 37.6264 154.847 37.5213 154.628 37.4513C154.41 37.3813 154.183 37.3462 153.939 37.3462C153.677 37.3462 153.432 37.3813 153.214 37.46C152.996 37.5388 152.795 37.6526 152.629 37.8015C152.463 37.9503 152.332 38.1341 152.236 38.353C152.14 38.5719 152.097 38.817 152.097 39.0971C152.097 39.4385 152.184 39.7537 152.359 40.0426C152.533 40.3315 152.734 40.5941 152.952 40.8305C152.734 40.9355 152.516 41.0581 152.315 41.1982C152.114 41.3382 151.94 41.4958 151.782 41.6709C151.625 41.846 151.503 42.0474 151.416 42.2662C151.329 42.4851 151.276 42.739 151.276 43.0103C151.276 43.343 151.337 43.6407 151.459 43.9033C151.582 44.1659 151.756 44.3848 151.966 44.5686C152.175 44.7525 152.42 44.8838 152.708 44.9801C152.987 45.0764 153.284 45.1201 153.589 45.1201C154.087 45.1201 154.515 45.0063 154.855 44.7787C155.204 44.5511 155.527 44.2447 155.833 43.842L156.872 44.9275H157.928L156.278 43.2204L157.631 40.9355L157.649 40.9268ZM152.952 39.5173C152.891 39.386 152.865 39.2547 152.865 39.1234C152.865 38.7907 152.97 38.5281 153.179 38.3355C153.389 38.1429 153.651 38.0466 153.965 38.0466C154.244 38.0466 154.489 38.1341 154.689 38.3092C154.89 38.4843 154.986 38.7207 154.986 39.0096C154.986 39.1934 154.943 39.3685 154.855 39.5086C154.768 39.6574 154.654 39.78 154.524 39.8938C154.393 40.0076 154.244 40.1039 154.078 40.1914C153.912 40.279 153.773 40.3665 153.633 40.4453C153.572 40.3928 153.493 40.3227 153.406 40.2177C153.319 40.1126 153.24 40.0076 153.153 39.885C153.074 39.7712 153.005 39.6399 152.943 39.5086L152.952 39.5173ZM155.021 43.7632C154.899 43.8945 154.759 44.0083 154.62 44.1046C154.48 44.2009 154.323 44.2797 154.166 44.3322C154 44.3848 153.816 44.4198 153.616 44.4198C153.415 44.4198 153.223 44.3848 153.048 44.3147C152.865 44.2447 152.708 44.1484 152.568 44.0258C152.428 43.9033 152.315 43.7545 152.236 43.5794C152.149 43.4043 152.114 43.2117 152.114 43.0103C152.114 42.8265 152.14 42.6514 152.184 42.5026C152.236 42.3538 152.306 42.2049 152.411 42.0736C152.516 41.9423 152.655 41.811 152.821 41.6884C152.987 41.5659 153.197 41.4345 153.441 41.2945L155.388 43.3342C155.266 43.4831 155.152 43.6319 155.021 43.7632Z" fill="#DC5DDC"/>
<path id="Vector_18" d="M165.27 41.0318V41.0143C165.689 40.918 166.003 40.7254 166.23 40.4365C166.457 40.1476 166.57 39.8062 166.57 39.4035C166.57 39.0533 166.501 38.7644 166.37 38.5281C166.239 38.2917 166.064 38.0991 165.837 37.959C165.619 37.8102 165.366 37.7051 165.078 37.6439C164.79 37.5826 164.502 37.5476 164.196 37.5476H162.005V44.9275H164.248C164.833 44.9275 165.305 44.84 165.663 44.6736C166.021 44.5073 166.282 44.3147 166.474 44.0871C166.667 43.8595 166.789 43.6319 166.841 43.4043C166.902 43.1766 166.928 43.0016 166.928 42.879C166.928 42.3362 166.78 41.9073 166.483 41.5833C166.186 41.2594 165.785 41.0756 165.261 41.0406L165.27 41.0318ZM162.756 38.2304H164.187C164.545 38.2304 164.825 38.2829 165.025 38.3792C165.235 38.4843 165.392 38.5981 165.497 38.7382C165.602 38.8782 165.671 39.0183 165.706 39.1584C165.741 39.2984 165.75 39.4035 165.75 39.4823C165.75 39.7187 165.706 39.92 165.61 40.0776C165.523 40.2439 165.401 40.3752 165.261 40.4803C165.121 40.5853 164.955 40.6554 164.781 40.7079C164.606 40.7517 164.423 40.7779 164.248 40.7779H162.738V38.2392L162.756 38.2304ZM165.968 43.4655C165.863 43.6406 165.732 43.7807 165.558 43.8945C165.383 44.0083 165.182 44.0959 164.947 44.1484C164.711 44.2009 164.458 44.2359 164.187 44.2359H162.756V41.3995H164.283C164.886 41.3995 165.34 41.5221 165.654 41.7584C165.968 41.9948 166.125 42.3537 166.125 42.844C166.125 43.0891 166.073 43.2992 165.977 43.4655H165.968Z" fill="#DC5DDC"/>
<path id="Vector_19" d="M172.105 43.8245V41.6446C172.105 41.347 172.053 41.0844 171.957 40.8743C171.861 40.6554 171.73 40.4803 171.573 40.3402C171.415 40.2002 171.223 40.0951 171.005 40.0251C170.787 39.955 170.56 39.92 170.324 39.92C169.408 39.92 168.727 40.1564 168.264 40.6291L168.683 41.1194C169.102 40.7342 169.6 40.5503 170.167 40.5503C170.996 40.5503 171.415 40.9706 171.415 41.811V41.9335H171.075C170.787 41.9335 170.464 41.9511 170.115 41.9773C169.766 42.0036 169.434 42.0736 169.128 42.1874C168.823 42.3012 168.561 42.4676 168.36 42.6952C168.159 42.9228 168.055 43.2292 168.055 43.6319C168.055 43.8683 168.098 44.0784 168.194 44.2535C168.29 44.4285 168.412 44.5774 168.57 44.6999C168.727 44.8225 168.901 44.91 169.102 44.9713C169.303 45.0326 169.512 45.0589 169.722 45.0589C170.115 45.0589 170.455 44.9888 170.726 44.8488C170.996 44.7087 171.241 44.4723 171.442 44.1484H171.459C171.459 44.2797 171.459 44.4198 171.477 44.5511C171.485 44.6912 171.503 44.8225 171.52 44.9363H172.184C172.166 44.805 172.14 44.6386 172.123 44.4285C172.105 44.2272 172.096 44.0258 172.096 43.842L172.105 43.8245ZM171.424 42.844C171.424 43.0629 171.398 43.2642 171.337 43.4568C171.276 43.6494 171.189 43.8157 171.058 43.9558C170.935 44.0959 170.778 44.2097 170.595 44.2972C170.412 44.3848 170.193 44.4198 169.949 44.4198C169.809 44.4198 169.67 44.4023 169.539 44.376C169.399 44.341 169.277 44.2885 169.172 44.2184C169.058 44.1484 168.971 44.0521 168.91 43.9383C168.849 43.8245 168.814 43.6844 168.814 43.5268C168.814 43.2817 168.901 43.0891 169.067 42.9578C169.233 42.8177 169.443 42.7127 169.678 42.6514C169.914 42.5814 170.167 42.5464 170.429 42.5288C170.691 42.5113 170.909 42.5026 171.075 42.5026H171.433V42.8528L171.424 42.844Z" fill="#DC5DDC"/>
<path id="Vector_20" d="M178.155 40.6466C177.928 40.419 177.657 40.2351 177.343 40.1126C177.029 39.9813 176.679 39.92 176.295 39.92C176.138 39.92 175.964 39.9375 175.789 39.9725C175.614 40.0075 175.44 40.0601 175.274 40.1388C175.108 40.2176 174.951 40.3139 174.794 40.4277C174.645 40.5503 174.506 40.6904 174.401 40.8567H174.383V37.0398H173.694V44.9188H174.383V44.1046H174.401C174.514 44.2709 174.645 44.411 174.794 44.5336C174.942 44.6474 175.108 44.7524 175.274 44.8225C175.44 44.9012 175.614 44.9538 175.789 44.9888C175.964 45.0238 176.129 45.0413 176.295 45.0413C176.679 45.0413 177.029 44.98 177.343 44.8487C177.657 44.7174 177.928 44.5423 178.155 44.3147C178.382 44.0871 178.565 43.8157 178.687 43.5005C178.818 43.1854 178.879 42.844 178.879 42.4763C178.879 42.1086 178.818 41.7672 178.687 41.452C178.556 41.1369 178.382 40.8655 178.155 40.6378V40.6466ZM178.006 43.2467C177.919 43.483 177.797 43.6844 177.64 43.8595C177.483 44.0346 177.29 44.1746 177.063 44.2709C176.837 44.376 176.583 44.4198 176.304 44.4198C176.025 44.4198 175.763 44.3672 175.527 44.2709C175.291 44.1659 175.091 44.0346 174.916 43.8595C174.741 43.6844 174.61 43.483 174.514 43.2467C174.418 43.0103 174.366 42.7564 174.366 42.485C174.366 42.2136 174.418 41.9598 174.514 41.7234C174.61 41.487 174.75 41.2857 174.916 41.1106C175.091 40.9355 175.291 40.7954 175.527 40.6991C175.763 40.6028 176.025 40.5503 176.304 40.5503C176.583 40.5503 176.845 40.6028 177.063 40.6991C177.29 40.8042 177.483 40.9355 177.64 41.1106C177.797 41.2857 177.919 41.487 178.006 41.7234C178.094 41.9598 178.137 42.2136 178.137 42.485C178.137 42.7564 178.094 43.0103 178.006 43.2467Z" fill="#DC5DDC"/>
<path id="Vector_21" d="M180.896 40.0425H180.206V44.9187H180.896V40.0425Z" fill="#DC5DDC"/>
<path id="Vector_22" d="M180.547 37.6702C180.424 37.6702 180.311 37.7139 180.206 37.8102C180.101 37.9065 180.049 38.0203 180.049 38.1692C180.049 38.318 180.101 38.4318 180.206 38.5281C180.311 38.6244 180.424 38.6682 180.547 38.6682C180.669 38.6682 180.782 38.6244 180.887 38.5281C180.992 38.4318 181.044 38.318 181.044 38.1692C181.044 38.0203 180.992 37.9065 180.887 37.8102C180.782 37.7139 180.669 37.6702 180.547 37.6702Z" fill="#DC5DDC"/>
<path id="Vector_23" d="M186.465 40.6466C186.265 40.4278 186.029 40.2527 185.732 40.1214C185.444 39.9901 185.112 39.92 184.746 39.92C184.397 39.92 184.074 39.9813 183.777 40.1126C183.48 40.2439 183.218 40.419 183 40.6466C182.782 40.8743 182.607 41.1456 182.476 41.4608C182.354 41.776 182.293 42.1174 182.293 42.4851C182.293 42.8528 182.354 43.1942 182.485 43.5093C182.616 43.8245 182.79 44.0959 183.009 44.3235C183.227 44.5511 183.497 44.7349 183.803 44.8575C184.108 44.9888 184.449 45.0501 184.807 45.0501C185.208 45.0501 185.584 44.9713 185.933 44.8137C186.282 44.6562 186.605 44.3935 186.893 44.0171L186.361 43.5794C186.221 43.7982 186.02 43.9996 185.75 44.1659C185.479 44.3322 185.165 44.4198 184.798 44.4198C184.554 44.4198 184.327 44.376 184.126 44.2885C183.916 44.2009 183.733 44.0784 183.576 43.9208C183.419 43.7632 183.288 43.5794 183.192 43.3605C183.096 43.1416 183.035 42.914 183.017 42.6689H187.068V42.3538C187.068 42.0211 187.015 41.7059 186.911 41.4083C186.806 41.1106 186.658 40.8567 186.457 40.6379L186.465 40.6466ZM183.043 42.1086C183.043 41.9073 183.087 41.7147 183.183 41.5221C183.279 41.3382 183.401 41.1632 183.559 41.0231C183.716 40.8743 183.899 40.7605 184.1 40.6729C184.309 40.5854 184.519 40.5416 184.746 40.5416C185.243 40.5416 185.636 40.6904 185.907 40.9706C186.186 41.2595 186.326 41.6359 186.326 42.0999H183.043V42.1086Z" fill="#DC5DDC"/>
<path id="Vector_24" d="M191.345 42.6777C191.118 42.4413 190.839 42.2925 190.499 42.2137L189.8 42.0473C189.486 41.9686 189.241 41.881 189.084 41.776C188.927 41.6709 188.849 41.5046 188.849 41.277C188.849 41.1456 188.875 41.0318 188.936 40.9443C188.997 40.8568 189.076 40.778 189.172 40.7167C189.268 40.6554 189.381 40.6116 189.495 40.5854C189.617 40.5591 189.739 40.5416 189.853 40.5416C190.106 40.5416 190.315 40.6029 190.49 40.7167C190.664 40.8392 190.804 40.9968 190.909 41.1982L191.52 40.7955C191.363 40.4716 191.136 40.2527 190.848 40.1214C190.56 39.9901 190.245 39.92 189.905 39.92C189.678 39.92 189.451 39.9463 189.241 40.0076C189.023 40.0689 188.831 40.1564 188.665 40.2702C188.499 40.3928 188.36 40.5416 188.264 40.7254C188.159 40.9093 188.115 41.1281 188.115 41.382C188.115 41.6096 188.168 41.8022 188.264 41.9598C188.36 42.1174 188.473 42.2399 188.613 42.3362C188.753 42.4325 188.884 42.5026 189.032 42.5551C189.172 42.6076 189.285 42.6426 189.372 42.6602L190.036 42.8177C190.289 42.879 190.507 42.9666 190.691 43.0716C190.874 43.1767 190.961 43.3518 190.961 43.5969C190.961 43.7369 190.926 43.8595 190.865 43.9646C190.804 44.0696 190.717 44.1572 190.603 44.2184C190.499 44.2885 190.376 44.3322 190.237 44.3673C190.097 44.4023 189.957 44.411 189.818 44.411C189.53 44.411 189.276 44.3498 189.067 44.2097C188.857 44.0784 188.683 43.9033 188.543 43.6757L187.949 44.0784C188.176 44.4285 188.456 44.6737 188.779 44.8137C189.102 44.9538 189.451 45.0238 189.826 45.0238C190.062 45.0238 190.298 44.9976 190.525 44.9363C190.752 44.8838 190.952 44.7875 191.136 44.6737C191.31 44.5511 191.459 44.3935 191.564 44.2009C191.668 44.0083 191.721 43.7807 191.721 43.5181C191.721 43.1679 191.607 42.879 191.38 42.6514L191.345 42.6777Z" fill="#DC5DDC"/>
</g>
</g>
</g>
<defs>
<clipPath id="clip0_1459_4055">
<rect width="192" height="45.0262" fill="white"/>
</clipPath>
</defs>
</svg>
