<svg width="24" height="24" viewBox="0 0 24 24" fill="none" xmlns="http://www.w3.org/2000/svg">
<g clip-path="url(#clip0_669_1223)">
<path d="M11.907 3.02405C11.9364 3.00793 11.9695 2.99966 12.003 3.00005C12.0361 2.99992 12.0686 3.00818 12.0975 3.02405C12.1317 3.04485 12.1596 3.07436 12.1785 3.10955L22.464 20.6101C22.518 20.7001 22.5165 20.7961 22.467 20.8846C22.4464 20.9197 22.4189 20.9504 22.386 20.9746C22.357 20.9944 22.322 21.0034 22.287 21.0001H1.71904C1.68407 21.0034 1.64904 20.9944 1.62004 20.9746C1.5872 20.9504 1.55964 20.9197 1.53904 20.8846C1.51495 20.8427 1.50252 20.7952 1.50305 20.7469C1.50358 20.6986 1.51704 20.6514 1.54204 20.6101L11.826 3.10955C11.845 3.07436 11.8729 3.04485 11.907 3.02405ZM13.473 2.34905C13.3246 2.0904 13.1105 1.8755 12.8524 1.72606C12.5942 1.57662 12.3013 1.49792 12.003 1.49792C11.7048 1.49792 11.4118 1.57662 11.1537 1.72606C10.8956 1.8755 10.6815 2.0904 10.533 2.34905L0.247541 19.8496C-0.437959 21.0166 0.384041 22.5001 1.71754 22.5001H22.287C23.6205 22.5001 24.444 21.0151 23.757 19.8496L13.473 2.34905Z" fill="#525252"/>
<path d="M10.5029 18.0001C10.5029 17.8031 10.5417 17.608 10.6171 17.426C10.6925 17.244 10.803 17.0787 10.9423 16.9394C11.0816 16.8001 11.2469 16.6896 11.4289 16.6142C11.6109 16.5389 11.8059 16.5001 12.0029 16.5001C12.1999 16.5001 12.395 16.5389 12.577 16.6142C12.7589 16.6896 12.9243 16.8001 13.0636 16.9394C13.2029 17.0787 13.3134 17.244 13.3887 17.426C13.4641 17.608 13.5029 17.8031 13.5029 18.0001C13.5029 18.3979 13.3449 18.7794 13.0636 19.0607C12.7823 19.342 12.4008 19.5001 12.0029 19.5001C11.6051 19.5001 11.2236 19.342 10.9423 19.0607C10.661 18.7794 10.5029 18.3979 10.5029 18.0001ZM10.6499 8.99255C10.63 8.80332 10.65 8.61199 10.7087 8.431C10.7675 8.25 10.8636 8.08338 10.9909 7.94193C11.1182 7.80049 11.2738 7.68739 11.4476 7.60998C11.6215 7.53256 11.8096 7.49255 11.9999 7.49255C12.1902 7.49255 12.3784 7.53256 12.5522 7.60998C12.726 7.68739 12.8817 7.80049 13.009 7.94193C13.1362 8.08338 13.2324 8.25 13.2911 8.431C13.3499 8.61199 13.3699 8.80332 13.3499 8.99255L12.8249 14.2531C12.8073 14.4597 12.7127 14.6522 12.56 14.7925C12.4072 14.9328 12.2073 15.0106 11.9999 15.0106C11.7925 15.0106 11.5927 14.9328 11.4399 14.7925C11.2871 14.6522 11.1926 14.4597 11.1749 14.2531L10.6499 8.99255Z" fill="#525252"/>
</g>
<defs>
<clipPath id="clip0_669_1223">
<rect width="24" height="24" fill="white"/>
</clipPath>
</defs>
</svg>
