<svg width="64" height="64" viewBox="0 0 64 64" fill="none" xmlns="http://www.w3.org/2000/svg">
<path d="M42.825 13.175C39.3393 12.4056 35.7169 12 31.9998 12C21.0348 12 10.8941 15.5296 2.65205 21.5146C1.68617 22.216 1.61734 23.6175 2.4614 24.4616C3.17557 25.1758 4.31368 25.2477 5.13304 24.6571C12.6917 19.2094 21.971 16 31.9998 16C34.5213 16 36.9955 16.2029 39.4068 16.5932L42.825 13.175Z" fill="#B3B3B3"/>
<path d="M32 24C24.3798 24 17.2833 26.243 11.335 30.1048C10.3096 30.7705 10.2195 32.2197 11.0839 33.0841C11.7747 33.7748 12.8707 33.8708 13.6933 33.3441C17.8453 30.6862 22.6131 28.9059 27.7351 28.2649L32 24Z" fill="#B3B3B3"/>
<path d="M42.3849 29.6153L45.5233 26.4768C48.0432 27.4367 50.4346 28.657 52.6646 30.1048C53.69 30.7705 53.7802 32.2197 52.9157 33.0841C52.225 33.7748 51.129 33.8708 50.3063 33.3441C47.8616 31.7791 45.2033 30.5183 42.3849 29.6153Z" fill="#B3B3B3"/>
<path d="M32.0002 40L35.734 36.2662C38.5939 36.6775 41.3034 37.5543 43.7833 38.8173C44.9232 39.3979 45.0887 40.9111 44.1842 41.8157L44.124 41.8758C43.4825 42.5173 42.4936 42.6379 41.6791 42.2382C38.7583 40.8049 35.4733 40.0001 32.0002 40Z" fill="#B3B3B3"/>
<path d="M51.6186 20.3815L54.6086 17.3915C56.969 18.5902 59.2214 19.9707 61.3476 21.5146C62.3135 22.216 62.3823 23.6175 61.5382 24.4616C60.8241 25.1758 59.686 25.2477 58.8666 24.6571C56.597 23.0213 54.1722 21.5874 51.6186 20.3815Z" fill="#B3B3B3"/>
<path d="M36.082 47.1185C37.0315 47.6829 37.0235 48.9763 36.2425 49.7574L33.414 52.5858C32.633 53.3668 31.3667 53.3668 30.5856 52.5858L27.7572 49.7574C26.9761 48.9763 26.9682 47.6829 27.9176 47.1185C29.1127 46.408 30.5086 46 31.9998 46C33.491 46 34.8869 46.408 36.082 47.1185Z" fill="#B3B3B3"/>
<path d="M53.5 7.50001C54.3284 6.67159 55.6716 6.67159 56.5 7.50001C57.3284 8.32844 57.3284 9.67158 56.5 10.5L13.5 53.5C12.6716 54.3284 11.3284 54.3284 10.5 53.5C9.67159 52.6716 9.67159 51.3284 10.5 50.5L53.5 7.50001Z" fill="#B3B3B3"/>
</svg>
